<svg width="136" height="95" viewBox="0 0 136 95" fill="none" xmlns="http://www.w3.org/2000/svg">
<path d="M98.8528 25.4804C97.4861 26.6528 95.9218 27.311 94.1597 27.4552C92.3964 27.5979 90.7785 27.2364 89.3058 26.3707L78.4253 35.7045C76.1125 37.6885 73.4262 38.5634 70.3664 38.3293C67.3066 38.0952 64.7846 36.8217 62.8006 34.5089C60.8166 32.1962 59.9417 29.5099 60.1758 26.45C60.41 23.3902 61.6834 20.8683 63.9962 18.8843L68.2012 15.277C69.3576 14.285 69.9944 13.0234 70.1116 11.4922C70.2285 9.96359 69.791 8.62109 68.799 7.4647C67.807 6.30831 66.5461 5.67093 65.0163 5.55257C63.4863 5.43681 62.1431 5.87493 60.9867 6.86693L50.1061 16.2008C50.7027 17.818 50.8054 19.4793 50.4143 21.1847C50.0206 22.8899 49.1404 24.3287 47.7738 25.5011C46.0217 27.0041 44.0063 27.6685 41.7277 27.4941C39.4491 27.3198 37.5583 26.3565 36.0553 24.6044C34.5522 22.8523 33.8879 20.837 34.0623 18.5584C34.2366 16.2798 35.1998 14.389 36.9519 12.8859C38.3186 11.7136 39.8745 11.0625 41.6198 10.9328C43.3648 10.8057 44.9912 11.16 46.4988 11.9957L57.3794 2.66188C59.6922 0.677879 62.3785 -0.197058 65.4383 0.0370687C68.4981 0.271196 71.0201 1.54465 73.0041 3.85742C74.9881 6.1702 75.863 8.8565 75.6289 11.9163C75.3947 14.9762 74.1213 17.4981 71.8085 19.4821L67.6035 23.0893C66.4471 24.0813 65.8104 25.3417 65.6934 26.8703C65.5763 28.4015 66.0137 29.7453 67.0057 30.9017C67.9977 32.0581 69.2593 32.6948 70.7905 32.812C72.3191 32.929 73.6616 32.4914 74.818 31.4994L85.6986 22.1656C85.102 20.5484 85 18.8864 85.3925 17.1798C85.7848 15.4758 86.6643 14.0377 88.0309 12.8653C89.783 11.3623 91.7984 10.6979 94.077 10.8723C96.3556 11.0466 98.2464 12.0098 99.7494 13.7619C101.252 15.514 101.917 17.5294 101.742 19.808C101.568 22.0866 100.605 23.9774 98.8528 25.4804ZM44.1665 21.296C44.7622 20.785 45.0894 20.1552 45.1479 19.4066C45.2039 18.6578 44.9764 17.9856 44.4654 17.3899C43.9543 16.7942 43.3245 16.467 42.576 16.4084C41.8272 16.3524 41.1549 16.58 40.5592 17.091C39.9635 17.602 39.6363 18.2318 39.5778 18.9804C39.5218 19.7292 39.7493 20.4014 40.2603 20.9971C40.7714 21.5929 41.4012 21.92 42.1497 21.9786C42.8985 22.0346 43.5708 21.8071 44.1665 21.296Z" fill="#3E71F3"/>
<path d="M4.25781 94.1423V73.3806H4.43359L19.043 94.1423H22.9883V65.9587H18.7305V86.7399H18.5742L3.96484 65.9587H0V94.1423H4.25781Z" fill="#3E71F3"/>
<path d="M34.6016 76.1149C37.6875 76.1149 39.7773 78.3024 39.875 81.6032H29.1133C29.3477 78.3415 31.5547 76.1149 34.6016 76.1149ZM39.8555 87.9314C39.2695 89.7868 37.3359 90.9587 34.875 90.9587C31.3984 90.9587 29.0938 88.5368 29.0938 84.8649V84.611H44.1133V83.1267C44.1133 76.7009 40.4414 72.6579 34.6211 72.6579C28.6836 72.6579 24.8164 76.9743 24.8164 83.6149C24.8164 90.2556 28.6445 94.3962 34.7969 94.3962C39.5625 94.3962 43.293 91.7399 43.8984 87.9314H39.8555Z" fill="#3E71F3"/>
<path d="M54.6133 94.3962C60.7461 94.3962 64.6328 90.2165 64.6328 83.5368C64.6328 76.8571 60.7266 72.6579 54.6133 72.6579C48.5 72.6579 44.5742 76.8767 44.5742 83.5368C44.5742 90.2165 48.4805 94.3962 54.6133 94.3962ZM54.6133 90.8806C51.0195 90.8806 48.8711 88.1657 48.8711 83.5368C48.8711 78.9274 51.0195 76.1735 54.6133 76.1735C58.207 76.1735 60.3359 78.9079 60.3359 83.5368C60.3359 88.1657 58.207 90.8806 54.6133 90.8806Z" fill="#3E71F3"/>
<path d="M66.4609 65.9587V94.1423H70.8359V84.5134H77.3594C82.8867 84.5134 86.793 80.7243 86.793 75.2165C86.793 69.7282 82.9648 65.9587 77.4961 65.9587H66.4609ZM70.8359 69.6501H76.3438C80.1523 69.6501 82.3203 71.6814 82.3203 75.236C82.3203 78.7907 80.1328 80.8415 76.3438 80.8415H70.8359V69.6501Z" fill="#3E71F3"/>
<path d="M93.9336 90.9782C91.4922 90.9782 89.9102 89.8064 89.9102 87.9899C89.9102 86.1149 91.4141 85.0407 94.3047 84.8649L99.4609 84.5134V86.1735C99.4609 88.9665 97.0781 90.9782 93.9336 90.9782ZM92.8008 94.3571C95.6914 94.3571 98.3281 92.9118 99.5 90.6071H99.5977V94.1423H103.641V79.5915C103.641 75.3923 100.301 72.6579 95.125 72.6579C90.3594 72.6579 86.8047 75.4314 86.6875 79.1814H90.6523C91.0234 77.3454 92.7031 76.154 95.0078 76.154C97.8398 76.154 99.4609 77.4821 99.4609 79.904V81.5446L93.7383 81.8767C88.5039 82.2087 85.6328 84.3571 85.6328 88.0681C85.6328 91.8571 88.5625 94.3571 92.8008 94.3571Z" fill="#3E71F3"/>
<path d="M107.168 68.1657V72.9314H104.238V76.2712H107.168V88.5564C107.168 92.6579 108.809 94.279 113.047 94.279C113.965 94.279 114.961 94.1814 115.43 94.0642V90.7243C115.156 90.7634 114.434 90.822 113.984 90.822C112.207 90.822 111.387 89.9626 111.387 88.1267V76.2712H115.449V72.9314H111.387V68.1657H107.168Z" fill="#3E71F3"/>
<path d="M117.199 94.1423H121.438V81.9939C121.438 78.5954 123.43 76.3298 126.73 76.3298C129.836 76.3298 131.418 78.2439 131.418 81.4079V94.1423H135.656V80.5876C135.656 75.8024 132.863 72.697 128.195 72.697C124.953 72.697 122.766 74.0056 121.496 76.5056H121.398V64.6892H117.199V94.1423Z" fill="#3E71F3"/>
</svg>
