<svg width="270" height="330" viewBox="0 0 270 330" fill="none" xmlns="http://www.w3.org/2000/svg">
<path d="M20.3916 198.977C45.4983 257.45 111.772 282.566 163.699 278.282C177.877 277.114 206.404 274.761 228.677 253.773C271.453 213.468 264.865 129.218 223.917 79.6163C218.643 73.2297 182.142 30.433 125.262 31.0057C83.6181 31.4254 54.3881 54.865 50.8336 57.784C46.344 61.4727 36.4413 70.239 27.5157 84.1452C6.54516 116.822 4.70175 162.438 20.3916 198.977Z" fill="#E0ECFF"/>
<path d="M261.906 200.881C261.913 200.885 261.872 200.999 261.786 201.218C261.687 201.457 261.557 201.775 261.392 202.178C261.026 203.039 260.508 204.259 259.855 205.797C258.502 208.928 256.59 213.351 254.307 218.632L254.274 218.71L254.189 218.724C249.071 219.57 243.102 220.556 236.751 221.605C234.761 221.93 232.808 222.249 230.905 222.561L230.64 222.604L230.706 222.343C232.127 216.735 233.435 211.57 234.547 207.184L234.629 207.352C230.371 205.449 226.858 203.879 224.382 202.772C223.179 202.224 222.23 201.791 221.555 201.484C221.248 201.339 221.005 201.225 220.818 201.136C220.652 201.056 220.569 201.011 220.572 201.004C220.575 200.997 220.665 201.028 220.836 201.096C221.027 201.174 221.276 201.276 221.589 201.405C222.272 201.695 223.232 202.103 224.449 202.62C226.937 203.7 230.467 205.231 234.746 207.087L234.858 207.135L234.828 207.255C233.735 211.646 232.447 216.815 231.048 222.429L230.848 222.212C232.751 221.9 234.704 221.579 236.694 221.252C243.047 220.219 249.019 219.247 254.138 218.415L254.02 218.506C256.351 213.247 258.304 208.841 259.686 205.723C260.373 204.199 260.917 202.992 261.302 202.138C261.486 201.744 261.631 201.432 261.74 201.198C261.842 200.986 261.898 200.878 261.906 200.881Z" fill="#DFDFDF"/>
<path d="M232.949 220.501L232.473 221.756L233.236 222.86L231.895 222.794L231.082 223.862L230.729 222.566L229.463 222.122L230.586 221.387L230.617 220.045L231.663 220.886L232.949 220.501Z" fill="#DFDFDF"/>
<path d="M220.976 200.159L220.738 200.783L221.118 201.332L220.451 201.3L220.046 201.831L219.871 201.186L219.241 200.965L219.8 200.6L219.815 199.932L220.336 200.35L220.976 200.159Z" fill="#DFDFDF"/>
<path d="M254.794 217.847L254.557 218.471L254.937 219.02L254.27 218.988L253.865 219.519L253.69 218.874L253.06 218.653L253.619 218.288L253.634 217.62L254.155 218.038L254.794 217.847Z" fill="#DFDFDF"/>
<path d="M235.279 206.617L235.042 207.241L235.422 207.79L234.755 207.758L234.35 208.289L234.175 207.644L233.545 207.423L234.103 207.058L234.119 206.39L234.639 206.808L235.279 206.617Z" fill="#DFDFDF"/>
<path d="M262.717 200.257L262.48 200.881L262.86 201.431L262.193 201.398L261.788 201.929L261.613 201.285L260.983 201.063L261.542 200.698L261.557 200.03L262.078 200.449L262.717 200.257Z" fill="#DFDFDF"/>
<path d="M44.4882 252.652H82.1806C82.1806 252.652 78.8475 246.587 69.1453 247.47C59.8792 248.313 59.4081 244.486 54.6966 244.015C49.9851 243.543 46.0587 247.156 44.4882 252.652Z" fill="#ADCEFF"/>
<path d="M51.9722 104.251H89.6646C89.6646 104.251 86.3315 98.1853 76.6292 99.0682C67.3631 99.9114 66.8921 96.0842 62.1806 95.6131C57.469 95.1419 53.5427 98.7541 51.9722 104.251Z" fill="#F4F4F4"/>
<path d="M235 130.463H265.969C265.969 130.463 263.23 125.479 255.259 126.204C247.646 126.897 247.259 123.753 243.387 123.366C239.516 122.979 236.29 125.946 235 130.463Z" fill="#F4F4F4"/>
<path d="M181.567 191.588C183.104 179.983 174.946 170.409 164.751 164.656C154.556 158.903 142.729 156.977 131.469 153.778C120.849 150.76 110.287 146.358 102.42 138.611C94.5542 130.864 89.836 119.218 92.6635 108.545C93.3734 105.866 94.6422 103.174 96.9434 101.628C99.2445 100.083 102.758 100.122 104.474 102.299C108.13 106.934 101.006 115.238 105.467 119.105C106.491 119.992 107.899 120.319 108.958 121.164C111.779 123.413 110.866 127.786 111.264 131.371C112.051 138.462 118.7 143.386 125.231 146.259C133.977 150.108 143.453 151.916 152.733 154.197C162.012 156.478 171.368 159.352 179.099 164.968C186.83 170.585 193.536 179.377 193.483 188.933C193.468 191.603 193.128 194.887 191.452 196.965C189.777 199.044 187.642 199.476 185.226 198.339C182.81 197.202 181.119 195.444 181.567 191.588Z" fill="#3E71F3"/>
<path d="M181.567 191.588C183.104 179.983 174.946 170.409 164.751 164.656C154.556 158.903 142.729 156.977 131.469 153.778C120.849 150.76 110.287 146.358 102.42 138.611C94.5542 130.864 89.836 119.218 92.6635 108.545C93.3734 105.866 94.6422 103.174 96.9434 101.628C99.2445 100.083 102.758 100.122 104.474 102.299C108.13 106.934 101.006 115.238 105.467 119.105C106.491 119.992 107.899 120.319 108.958 121.164C111.779 123.413 110.866 127.786 111.264 131.371C112.051 138.462 118.7 143.386 125.231 146.259C133.977 150.108 143.453 151.916 152.733 154.197C162.012 156.478 171.368 159.352 179.099 164.968C186.83 170.585 193.536 179.377 193.483 188.933C193.468 191.603 193.128 194.887 191.452 196.965C189.777 199.044 187.642 199.476 185.226 198.339C182.81 197.202 181.119 195.444 181.567 191.588Z" fill="#E5EFFF"/>
<path d="M126.954 9.01681C125.065 9.81196 124.028 12.2052 124.741 14.1275C125.453 16.0499 127.799 17.1892 129.751 16.5608C131.702 15.9321 132.942 13.6377 132.398 11.6609C131.855 9.6842 129.616 8.34595 127.618 8.80333L126.954 9.01681Z" fill="#3E71F3"/>
<path d="M126.954 9.01681C125.065 9.81196 124.028 12.2052 124.741 14.1275C125.453 16.0499 127.799 17.1892 129.751 16.5608C131.702 15.9321 132.942 13.6377 132.398 11.6609C131.855 9.6842 129.616 8.34595 127.618 8.80333L126.954 9.01681Z" fill="#E0ECFF"/>
<path d="M150.406 286.446C148.075 281.612 150.107 275.588 153.821 271.714C157.535 267.84 162.608 265.63 167.519 263.466C178.358 258.692 189.834 253.002 195.346 242.519C197.204 238.983 198.264 235.092 199.309 231.237C201.333 223.775 203.229 215.302 199.16 208.727C197.99 206.836 196.23 205.154 194.041 204.765C191.548 204.323 188.984 205.696 187.448 207.708C185.911 209.72 185.252 212.269 184.935 214.781C184.33 219.56 184.831 224.42 184.328 229.211C183.826 234.001 182.073 239.01 178.122 241.765C173.324 245.11 166.476 244.359 161.815 247.894C158.052 250.748 156.621 255.698 153.677 259.391C151.204 262.496 147.742 264.618 144.571 267.005C141.4 269.393 138.334 272.307 137.257 276.127C136.137 280.096 137.537 284.66 140.688 287.319C143.84 289.978 148.574 290.589 152.298 288.818L150.406 286.446Z" fill="#3E71F3"/>
<path d="M150.406 286.446C148.075 281.612 150.107 275.588 153.821 271.714C157.535 267.84 162.608 265.63 167.519 263.466C178.358 258.692 189.834 253.002 195.346 242.519C197.204 238.983 198.264 235.092 199.309 231.237C201.333 223.775 203.229 215.302 199.16 208.727C197.99 206.836 196.23 205.154 194.041 204.765C191.548 204.323 188.984 205.696 187.448 207.708C185.911 209.72 185.252 212.269 184.935 214.781C184.33 219.56 184.831 224.42 184.328 229.211C183.826 234.001 182.073 239.01 178.122 241.765C173.324 245.11 166.476 244.359 161.815 247.894C158.052 250.748 156.621 255.698 153.677 259.391C151.204 262.496 147.742 264.618 144.571 267.005C141.4 269.393 138.334 272.307 137.257 276.127C136.137 280.096 137.537 284.66 140.688 287.319C143.84 289.978 148.574 290.589 152.298 288.818L150.406 286.446Z" fill="#E5EFFF"/>
<path d="M83.5427 49.0787H82.489C80.3364 49.0787 78.5916 47.3337 78.5916 45.1813V26.94H87.4403V45.1813C87.4403 47.3337 85.6953 49.0787 83.5427 49.0787Z" fill="#3E71F3"/>
<path d="M78.5916 26.94L83.0158 18.825L87.4403 26.94H78.5916Z" fill="#FFBD9C"/>
<path d="M81.2634 22.0393C81.2634 22.0393 82.607 24.06 84.7683 22.0393L83.0158 18.825L81.2634 22.0393Z" fill="#3E71F3"/>
<path d="M87.5626 44.2929C87.5626 44.3917 85.5486 44.4717 83.065 44.4717C80.5803 44.4717 78.5667 44.3917 78.5667 44.2929C78.5667 44.1941 80.5803 44.1141 83.065 44.1141C85.5486 44.1141 87.5626 44.1941 87.5626 44.2929Z" fill="#263138"/>
<path d="M87.4722 42.9367C87.4722 43.0357 85.4988 43.1157 83.0649 43.1157C80.6301 43.1157 78.6571 43.0357 78.6571 42.9367C78.6571 42.8381 80.6301 42.7581 83.0649 42.7581C85.4988 42.7581 87.4722 42.8381 87.4722 42.9367Z" fill="#263138"/>
<path d="M81.1887 27.0698C81.2873 27.0698 81.3673 30.6019 81.3673 34.9576C81.3673 39.3151 81.2873 42.8463 81.1887 42.8463C81.0899 42.8463 81.0097 39.3151 81.0097 34.9576C81.0097 30.6019 81.0899 27.0698 81.1887 27.0698Z" fill="#F9F9F9"/>
<path d="M84.7683 27.0698C84.8671 27.0698 84.9471 30.6019 84.9471 34.9576C84.9471 39.3151 84.8671 42.8463 84.7683 42.8463C84.6695 42.8463 84.5895 39.3151 84.5895 34.9576C84.5895 30.6019 84.6695 27.0698 84.7683 27.0698Z" fill="#F9F9F9"/>
<path d="M155.469 276.277L195.67 277.997L196.641 280.339L170.293 323.105L122.729 321.719L155.469 276.277Z" fill="#263138"/>
<path d="M120.924 317.55L168.775 320.282L193.767 281.497L176.218 282.923L131.8 298.565L120.924 317.55Z" fill="#DFDFDF"/>
<path d="M114.204 314.673L158.144 315.367C156.319 309.746 160.624 301.828 166.531 299.165C170.447 297.4 177.814 295.113 181.615 293.163C188.839 289.457 195.366 282.44 194.796 276.419L176.749 275.844L153.715 274.953C151.789 280.667 147.669 284.411 141.406 286.662C135.802 288.677 129.422 288.672 123.955 290.962C115.156 294.648 110.927 306.588 114.204 314.673Z" fill="#EBEBEB"/>
<path d="M114.204 314.673C114.204 314.673 114.162 314.579 114.093 314.39C114.022 314.19 113.923 313.909 113.792 313.542C113.639 313.174 113.55 312.689 113.418 312.119C113.261 311.554 113.208 310.878 113.115 310.119C113.004 308.598 113.019 306.698 113.464 304.533C113.911 302.376 114.76 299.946 116.282 297.559C116.676 296.973 117.055 296.353 117.547 295.792C117.784 295.507 118.008 295.203 118.266 294.924C118.534 294.653 118.804 294.379 119.078 294.101C119.341 293.813 119.644 293.561 119.956 293.312C120.267 293.064 120.569 292.794 120.897 292.555C121.587 292.123 122.254 291.617 123.037 291.279C126.082 289.744 129.719 289.097 133.507 288.411C135.406 288.066 137.361 287.703 139.325 287.164C141.28 286.609 143.248 285.868 145.117 284.832C146.056 284.325 146.963 283.732 147.821 283.059C148.685 282.394 149.494 281.638 150.22 280.794C151.697 279.124 152.809 277.094 153.559 274.901L153.599 274.784L153.722 274.789C159.839 275.022 166.259 275.267 172.914 275.52C179.568 275.782 186.46 275.963 193.515 276.199C193.948 276.213 194.38 276.226 194.801 276.24L194.96 276.245L194.974 276.402C195.095 277.794 194.841 279.178 194.393 280.463C194.188 281.117 193.875 281.722 193.588 282.336C193.249 282.921 192.932 283.519 192.537 284.063C191.039 286.301 189.119 288.173 187.093 289.819C185.05 291.451 182.833 292.808 180.524 293.877C178.206 294.919 175.859 295.769 173.561 296.619C171.263 297.469 168.99 298.275 166.832 299.214C165.774 299.707 164.757 300.269 163.877 301.008C163.409 301.341 163.019 301.763 162.593 302.137C162.217 302.561 161.799 302.946 161.465 303.399C160.046 305.139 158.98 307.113 158.392 309.174C157.77 311.221 157.7 313.387 158.283 315.322L158.342 315.516L158.142 315.513C144.832 315.277 133.852 315.082 126.186 314.946C122.365 314.869 119.373 314.808 117.324 314.766C116.312 314.741 115.535 314.722 114.999 314.708C114.474 314.693 114.204 314.673 114.204 314.673C114.204 314.673 114.474 314.663 115 314.664C115.536 314.667 116.313 314.672 117.325 314.679C119.375 314.702 122.367 314.736 126.188 314.779C133.855 314.885 144.836 315.037 158.146 315.221L158.005 315.412C157.395 313.407 157.467 311.18 158.097 309.089C158.694 306.982 159.775 304.973 161.217 303.197C161.557 302.735 161.982 302.342 162.365 301.909C162.8 301.526 163.197 301.096 163.674 300.754C164.571 299.999 165.619 299.415 166.699 298.912C168.874 297.961 171.146 297.153 173.443 296.3C175.739 295.448 178.083 294.596 180.38 293.561C182.659 292.504 184.854 291.159 186.873 289.543C188.876 287.915 190.772 286.062 192.242 283.864C192.63 283.329 192.939 282.743 193.272 282.17C193.551 281.571 193.858 280.98 194.056 280.346C194.491 279.097 194.733 277.764 194.618 276.436L194.79 276.597C194.369 276.584 193.936 276.57 193.503 276.556C186.448 276.32 179.556 276.137 172.901 275.87C166.247 275.61 159.826 275.358 153.709 275.119L153.871 275.006C153.107 277.235 151.969 279.304 150.46 281.003C149.719 281.863 148.893 282.632 148.013 283.306C147.14 283.989 146.217 284.589 145.265 285.101C143.368 286.147 141.379 286.89 139.403 287.446C137.421 287.985 135.457 288.343 133.556 288.683C129.766 289.357 126.149 289.993 123.144 291.495C122.373 291.824 121.714 292.32 121.033 292.743C120.708 292.977 120.41 293.242 120.102 293.486C119.793 293.73 119.493 293.977 119.232 294.261C118.96 294.533 118.691 294.803 118.426 295.069C118.17 295.344 117.948 295.644 117.711 295.925C117.223 296.476 116.845 297.088 116.451 297.667C114.933 300.022 114.075 302.428 113.616 304.565C113.16 306.711 113.128 308.598 113.222 310.111C113.305 310.866 113.349 311.539 113.497 312.103C113.62 312.671 113.7 313.157 113.845 313.526C113.963 313.896 114.054 314.179 114.119 314.38C114.18 314.573 114.204 314.673 114.204 314.673Z" fill="#263138"/>
<path d="M166.059 275.666C166.027 275.656 166.117 275.384 166.158 274.88C166.197 274.381 166.163 273.632 165.813 272.805C165.474 271.988 164.801 271.082 163.736 270.58C162.687 270.074 161.3 269.968 160.033 270.447C158.757 270.915 157.837 271.955 157.358 273.021C156.86 274.095 156.792 275.202 156.935 276.082C157.079 276.97 157.415 277.636 157.686 278.059C157.958 278.487 158.162 278.689 158.139 278.71C158.127 278.724 157.889 278.555 157.572 278.139C157.258 277.728 156.87 277.052 156.686 276.127C156.503 275.21 156.546 274.033 157.057 272.887C157.547 271.749 158.526 270.62 159.907 270.112C161.271 269.598 162.756 269.722 163.88 270.283C165.025 270.846 165.722 271.839 166.048 272.712C166.386 273.597 166.379 274.385 166.296 274.896C166.253 275.154 166.201 275.35 166.15 275.477C166.101 275.605 166.071 275.67 166.059 275.666Z" fill="#263138"/>
<path d="M172.946 275.666C172.914 275.656 173.003 275.384 173.045 274.88C173.083 274.381 173.05 273.632 172.7 272.805C172.361 271.988 171.688 271.082 170.622 270.58C169.573 270.074 168.187 269.968 166.92 270.447C165.643 270.915 164.724 271.955 164.245 273.021C163.746 274.095 163.679 275.202 163.822 276.082C163.966 276.97 164.302 277.636 164.573 278.059C164.845 278.487 165.048 278.689 165.026 278.71C165.014 278.724 164.776 278.555 164.459 278.139C164.144 277.728 163.757 277.052 163.573 276.127C163.39 275.21 163.432 274.033 163.944 272.887C164.434 271.749 165.412 270.62 166.794 270.112C168.158 269.598 169.643 269.722 170.767 270.283C171.912 270.846 172.609 271.839 172.935 272.712C173.273 273.597 173.266 274.385 173.183 274.896C173.14 275.154 173.088 275.35 173.036 275.477C172.988 275.605 172.957 275.67 172.946 275.666Z" fill="#263138"/>
<path d="M178.176 276.023C178.144 276.016 178.218 275.738 178.231 275.234C178.241 274.733 178.165 273.987 177.769 273.181C177.384 272.385 176.661 271.518 175.569 271.077C174.493 270.631 173.103 270.604 171.865 271.154C170.617 271.693 169.757 272.784 169.34 273.875C168.903 274.976 168.898 276.085 169.091 276.955C169.285 277.833 169.658 278.48 169.952 278.887C170.249 279.298 170.463 279.488 170.441 279.511C170.43 279.525 170.183 279.37 169.843 278.973C169.506 278.58 169.081 277.927 168.845 277.014C168.61 276.109 168.586 274.932 169.032 273.758C169.456 272.595 170.369 271.412 171.72 270.827C173.053 270.236 174.542 270.275 175.697 270.773C176.872 271.269 177.624 272.221 177.998 273.074C178.386 273.939 178.423 274.726 178.37 275.242C178.341 275.501 178.301 275.7 178.256 275.83C178.215 275.961 178.188 276.027 178.176 276.023Z" fill="#263138"/>
<path d="M183.784 276.343C183.751 276.337 183.81 276.056 183.796 275.551C183.78 275.05 183.665 274.31 183.226 273.526C182.8 272.751 182.032 271.924 180.918 271.541C179.82 271.153 178.431 271.2 177.223 271.814C176.006 272.419 175.205 273.553 174.846 274.666C174.468 275.788 174.522 276.896 174.761 277.754C175.001 278.621 175.408 279.246 175.723 279.638C176.041 280.033 176.265 280.211 176.245 280.235C176.234 280.25 175.979 280.108 175.619 279.729C175.261 279.355 174.802 278.726 174.518 277.826C174.236 276.935 174.149 275.76 174.533 274.565C174.894 273.38 175.744 272.151 177.062 271.495C178.361 270.835 179.851 270.795 181.03 271.231C182.23 271.664 183.031 272.575 183.45 273.407C183.883 274.25 183.962 275.034 183.936 275.552C183.921 275.812 183.891 276.013 183.853 276.145C183.82 276.278 183.796 276.345 183.784 276.343Z" fill="#263138"/>
<path d="M189.403 276.211C189.37 276.205 189.421 275.923 189.393 275.419C189.363 274.919 189.227 274.182 188.766 273.411C188.319 272.648 187.527 271.843 186.403 271.491C185.295 271.135 183.907 271.22 182.717 271.868C181.517 272.507 180.749 273.663 180.421 274.785C180.075 275.918 180.16 277.024 180.422 277.875C180.687 278.735 181.111 279.349 181.438 279.731C181.766 280.117 181.995 280.289 181.976 280.314C181.966 280.329 181.707 280.194 181.336 279.826C180.968 279.461 180.491 278.845 180.182 277.954C179.875 277.071 179.755 275.899 180.105 274.693C180.433 273.5 181.248 272.246 182.546 271.554C183.827 270.857 185.315 270.776 186.506 271.178C187.717 271.578 188.544 272.466 188.986 273.286C189.443 274.117 189.544 274.898 189.532 275.416C189.525 275.677 189.5 275.878 189.467 276.011C189.436 276.145 189.415 276.213 189.403 276.211Z" fill="#263138"/>
<path d="M194.137 276.842C194.104 276.835 194.167 276.555 194.159 276.05C194.149 275.55 194.042 274.807 193.613 274.019C193.196 273.239 192.437 272.403 191.328 272.006C190.235 271.606 188.845 271.636 187.63 272.236C186.406 272.827 185.592 273.951 185.22 275.059C184.828 276.177 184.87 277.286 185.098 278.147C185.328 279.016 185.727 279.647 186.038 280.042C186.351 280.44 186.573 280.621 186.552 280.645C186.542 280.66 186.288 280.515 185.932 280.132C185.579 279.753 185.128 279.118 184.854 278.216C184.583 277.322 184.51 276.146 184.907 274.955C185.283 273.775 186.147 272.555 187.472 271.915C188.78 271.27 190.269 271.248 191.443 271.698C192.638 272.145 193.428 273.066 193.837 273.902C194.261 274.751 194.331 275.536 194.298 276.053C194.281 276.313 194.248 276.514 194.209 276.645C194.173 276.777 194.149 276.844 194.137 276.842Z" fill="#263138"/>
<path d="M214.845 129.35C212.954 129.296 210.947 129.364 208.892 129.619C196.486 131.156 187.241 141.812 187.265 154.314C187.273 157.954 187.661 162.028 188.805 166.084C192.266 178.364 193.334 189.191 192.934 194.462L204.524 200.691C204.524 200.691 209.89 192.983 215.072 189.658C220.255 186.333 237.509 177.444 244.34 168.306C248.744 162.415 249.59 150.324 239.092 139.75C232.679 133.29 223.945 129.606 214.845 129.35Z" fill="#3E71F3"/>
<path d="M187.449 207.873L197.919 213.532L191.103 222.187L184.124 219.014L187.449 207.873Z" fill="#445964"/>
<path d="M187.957 208.221C187.864 208.188 188.903 205.08 190.277 201.281C191.652 197.481 192.841 194.428 192.934 194.462C193.027 194.495 191.988 197.602 190.614 201.403C189.239 205.202 188.05 208.255 187.957 208.221Z" fill="#263138"/>
<path d="M197.259 213.106C197.174 213.055 198.814 210.12 200.922 206.55C203.031 202.978 204.809 200.125 204.894 200.175C204.979 200.225 203.339 203.16 201.23 206.732C199.122 210.302 197.344 213.156 197.259 213.106Z" fill="#263138" fill-opacity="0.4"/>
<path d="M218.337 129.678C217.866 129.704 212.106 136.448 209.557 141.012C200.983 156.367 200.598 171.311 198.218 188.736C197.878 191.225 196.641 196.592 196.664 196.467C197.933 197.461 202.197 199.441 202.197 199.441C202.197 199.441 206.217 194.588 207.815 192.147C214.214 182.373 221.16 174.754 226.637 164.435C232.114 154.116 237.385 144.966 232.316 134.441C232.316 134.441 223.537 129.387 218.337 129.678Z" fill="black" fill-opacity="0.4"/>
<path d="M244.385 169.851C244.376 169.854 244.325 169.74 244.235 169.519C244.138 169.3 244.028 168.963 243.834 168.546C243.457 167.708 242.839 166.502 241.811 165.142C240.78 163.794 239.343 162.271 237.364 160.993C235.417 159.685 232.911 158.649 230.069 158.292L230 158.284L229.958 158.228C228.626 156.432 227.099 154.578 225.281 152.858C223.466 151.143 221.34 149.565 218.894 148.462C216.455 147.373 213.827 146.89 211.348 147.023C208.867 147.148 206.542 147.937 204.742 149.224L204.638 149.299L204.542 149.214C202.39 147.321 199.811 146.342 197.488 146.079C195.149 145.81 193.073 146.24 191.49 146.844C189.896 147.451 188.771 148.223 188.045 148.783C187.683 149.066 187.413 149.296 187.237 149.458C187.059 149.617 186.964 149.697 186.957 149.691C186.951 149.685 187.034 149.593 187.201 149.42C187.366 149.246 187.626 149.002 187.981 148.703C188.693 148.114 189.813 147.307 191.421 146.665C193.015 146.026 195.126 145.561 197.518 145.814C199.892 146.061 202.536 147.041 204.755 148.973L204.554 148.963C206.4 147.627 208.79 146.809 211.328 146.675C213.866 146.533 216.549 147.023 219.041 148.135C221.533 149.259 223.688 150.867 225.52 152.606C227.355 154.349 228.887 156.224 230.217 158.037L230.107 157.973C233.006 158.351 235.548 159.425 237.511 160.771C239.507 162.087 240.945 163.648 241.965 165.027C242.982 166.419 243.578 167.65 243.928 168.506C244.108 168.932 244.203 169.277 244.284 169.502C244.359 169.729 244.393 169.848 244.385 169.851Z" fill="#263138"/>
<path d="M222.841 185.151C222.77 185.176 222.784 184.104 221.842 182.633C221.365 181.919 220.654 181.107 219.616 180.497C218.602 179.868 217.244 179.446 215.781 179.588L215.635 179.602L215.613 179.458C215.381 177.969 214.764 176.385 213.712 174.981C212.665 173.584 211.199 172.338 209.412 171.643C207.945 171.059 206.383 170.854 204.916 170.954C203.446 171.059 202.076 171.477 200.912 172.085L200.802 172.143L200.717 172.052C199.558 170.811 198.063 170.114 196.692 169.872C195.316 169.594 194.061 169.734 193.083 169.985C191.102 170.525 190.259 171.482 190.219 171.407C190.213 171.401 190.265 171.348 190.373 171.251C190.483 171.16 190.635 171.004 190.863 170.844C191.314 170.517 192.031 170.094 193.032 169.8C194.027 169.515 195.315 169.344 196.741 169.609C198.16 169.838 199.726 170.54 200.955 171.835L200.76 171.801C201.958 171.161 203.373 170.721 204.891 170.607C206.406 170.497 208.023 170.705 209.544 171.311C211.4 172.033 212.915 173.329 213.988 174.777C215.068 176.232 215.693 177.873 215.916 179.413L215.748 179.283C217.298 179.149 218.708 179.615 219.747 180.284C220.811 180.935 221.526 181.789 221.992 182.537C222.456 183.297 222.661 183.972 222.76 184.433C222.81 184.664 222.818 184.847 222.834 184.967C222.846 185.088 222.849 185.15 222.841 185.151Z" fill="#263138"/>
<path d="M195.895 216.257C195.868 216.278 195.781 216.114 195.511 216.003C195.241 215.89 194.805 215.874 194.286 216.04C194.021 216.11 193.72 216.208 193.36 216.209C193 216.216 192.601 216.041 192.325 215.753C191.769 215.174 191.558 214.338 191.033 213.76C190.772 213.477 190.432 213.331 190.068 213.353C189.705 213.368 189.341 213.488 188.977 213.572C188.616 213.658 188.233 213.712 187.88 213.63C187.53 213.556 187.243 213.382 187.022 213.191C186.578 212.802 186.384 212.343 186.333 212.027C186.279 211.707 186.33 211.531 186.348 211.534C186.379 211.534 186.377 211.709 186.468 211.994C186.554 212.275 186.768 212.673 187.182 212.995C187.388 213.153 187.645 213.29 187.938 213.339C188.227 213.396 188.553 213.344 188.898 213.252C189.245 213.165 189.617 213.028 190.055 213.003C190.495 212.964 190.985 213.167 191.293 213.514C191.902 214.207 192.093 215.03 192.563 215.524C192.79 215.767 193.074 215.903 193.368 215.913C193.663 215.925 193.955 215.851 194.226 215.794C194.774 215.652 195.287 215.704 195.572 215.878C195.865 216.052 195.911 216.256 195.895 216.257Z" fill="#263138"/>
<path d="M197.096 214.577C197.049 214.664 194.762 213.534 191.988 212.055C189.213 210.574 187.001 209.304 187.048 209.217C187.094 209.13 189.381 210.259 192.156 211.739C194.93 213.219 197.142 214.49 197.096 214.577Z" fill="#263138"/>
<path d="M195.016 217.218C195.022 217.245 194.87 217.29 194.617 217.407C194.489 217.464 194.343 217.551 194.144 217.631C193.944 217.714 193.686 217.745 193.422 217.726C192.9 217.689 192.255 217.525 191.697 217.06C191.42 216.834 191.186 216.503 191.039 216.155C190.885 215.814 190.764 215.463 190.533 215.213C190.054 214.701 189.279 214.646 188.636 214.669C187.975 214.694 187.324 214.713 186.815 214.495C186.313 214.285 186.009 213.929 185.895 213.651C185.778 213.369 185.819 213.195 185.836 213.198C185.867 213.194 185.878 213.357 186.019 213.588C186.155 213.815 186.451 214.102 186.906 214.259C187.357 214.421 187.949 214.385 188.623 214.34C189.28 214.306 190.168 214.317 190.796 214.972C191.095 215.3 191.216 215.692 191.359 216.013C191.495 216.341 191.676 216.603 191.913 216.812C192.385 217.229 192.967 217.411 193.446 217.474C193.931 217.562 194.28 217.36 194.568 217.277C194.849 217.195 195.012 217.197 195.016 217.218Z" fill="#263138"/>
<path d="M115.966 149.973L134.071 147.289L125.415 135.025L120.773 135.299C117.648 135.484 114.895 137.414 113.656 140.288C112.999 141.815 112.815 143.504 113.131 145.136L115.966 149.973Z" fill="#3E71F3"/>
<path d="M115.966 149.973L134.071 147.289L125.415 135.025L120.773 135.299C117.648 135.484 114.895 137.414 113.656 140.288C112.999 141.815 112.815 143.504 113.131 145.136L115.966 149.973Z" fill="black" fill-opacity="0.4"/>
<path d="M193.739 170.036C193.925 170.554 194.129 171.168 194.335 171.902C194.512 172.532 194.574 173.188 194.53 173.842C194.477 174.633 194.363 175.682 194.122 176.237C193.824 176.924 194.516 177.615 195.103 177.272C195.69 176.928 196.556 175.056 196.503 172.647C196.449 170.237 198.907 173.125 199.822 174.162C200.737 175.198 203.717 178.272 204.259 178.243C205.053 178.201 205.154 177.343 204.216 176.329C203.267 175.303 200.681 172.077 201.252 171.62C201.814 171.17 206.398 176.51 206.398 176.51C206.398 176.51 207.193 177.81 207.871 177.304C209.092 176.392 203.8 171.074 203.284 170.581C202.925 170.237 203.528 169.719 203.893 170.108C204.269 170.508 208.342 175.541 209.594 174.624C210.555 173.921 205.282 170.21 205.018 168.696C204.753 167.183 208.73 171.917 209.62 171.208C209.952 170.943 210.162 170.7 207.486 168.311C206.187 167.151 201.248 163.695 201.248 163.695L186.388 121.147L174.912 127.719L193.739 170.036Z" fill="#FFBD9C"/>
<path d="M105.277 89.5691L88.6704 69.7515L88.6694 69.7519C88.4543 69.0708 88.1953 68.4065 87.8569 67.776C87.027 66.23 85.6539 64.883 83.9397 64.5081C82.8866 64.2779 81.6808 64.3885 80.8546 63.696C80.4852 63.3864 80.2386 62.9455 79.8519 62.658C79.4649 62.3708 78.8198 62.3155 78.5724 62.729C78.3963 63.0235 78.5079 63.4009 78.6412 63.717C79.2576 65.1798 80.2646 66.4725 81.5238 67.4383C79.9668 67.9116 77.7432 68.6269 77.7432 68.6269C77.7432 68.6269 74.233 64.8181 72.4347 64.8301C70.6366 64.8424 73.8876 68.2312 73.8876 68.2312C73.8876 68.2312 71.0085 65.5704 70.1155 66.3202C69.2228 67.0703 71.5107 69.0453 71.5107 69.0453C70.784 68.6569 69.9882 68.2561 69.1753 68.391C68.3622 68.5261 67.6623 69.486 68.0999 70.1842C68.2677 70.4519 68.5552 70.6164 68.8312 70.7701C70.3043 71.5914 71.7777 72.4125 73.2511 73.2337C73.9907 73.646 74.7675 74.0689 75.6141 74.095C77.8556 74.1644 79.5612 72.7762 81.8032 72.8356C81.8032 72.8356 94.3256 99.1958 95.5921 100.555C96.8585 101.914 124.368 103.766 124.368 103.766L140.29 90.0473L105.277 89.5691Z" fill="#FFBD9C"/>
<path d="M155.153 233.155L172.111 240.541L163.029 261.686C161.063 260.695 161.705 248.014 161.705 248.014L150.646 243.728L155.153 233.155Z" fill="#3E71F3"/>
<path d="M163.597 241.082C163.885 240.721 164.466 240.636 164.839 240.908C165.212 241.181 165.304 241.771 165.022 242.138C164.741 242.504 164.046 242.627 163.706 242.315C163.366 242.002 163.297 241.303 163.658 241.015L163.597 241.082Z" fill="white" fill-opacity="0.6"/>
<path d="M172.111 240.541L170.372 239.864L162.315 260.391C162.315 260.391 162.321 261.508 163.029 261.686L172.111 240.541Z" fill="white"/>
<path d="M161.451 248.311C161.555 248.351 161.824 247.855 162.374 247.49C162.915 247.11 163.475 247.04 163.474 246.928C163.495 246.824 162.812 246.713 162.153 247.167C161.491 247.615 161.346 248.292 161.451 248.311Z" fill="#263138"/>
<path d="M161.415 250.922C161.505 250.989 161.873 250.617 162.46 250.454C163.043 250.274 163.553 250.388 163.593 250.283C163.651 250.193 163.077 249.862 162.35 250.079C161.622 250.289 161.318 250.878 161.415 250.922Z" fill="#263138"/>
<path d="M163.529 253.322C163.591 253.238 163.137 252.872 162.458 252.895C161.778 252.912 161.346 253.303 161.413 253.384C161.473 253.478 161.911 253.295 162.469 253.286C163.027 253.263 163.475 253.42 163.529 253.322Z" fill="#263138"/>
<path d="M159.039 247.054C159.151 247.051 159.212 246.516 159.503 245.95C159.781 245.377 160.172 245.007 160.107 244.915C160.058 244.824 159.485 245.103 159.153 245.775C158.815 246.444 158.936 247.07 159.039 247.054Z" fill="#263138"/>
<path d="M156.746 245.473C156.788 245.492 157.027 245.112 157.195 244.412C157.279 244.063 157.337 243.635 157.331 243.157C157.328 242.919 157.309 242.668 157.269 242.411C157.248 242.287 157.235 242.144 157.158 241.984C157.099 241.823 156.853 241.641 156.629 241.701C156.42 241.739 156.267 241.901 156.198 242.052C156.126 242.205 156.104 242.345 156.083 242.472C156.039 242.732 156.022 242.987 156.026 243.228C156.036 243.711 156.128 244.139 156.247 244.48C156.491 245.165 156.805 245.499 156.84 245.472C156.894 245.44 156.673 245.062 156.513 244.402C156.433 244.073 156.377 243.672 156.386 243.229C156.392 243.007 156.415 242.776 156.46 242.54C156.497 242.291 156.577 242.1 156.702 242.085C156.749 242.081 156.765 242.084 156.81 242.159C156.85 242.234 156.87 242.35 156.891 242.472C156.933 242.712 156.958 242.946 156.971 243.169C156.995 243.617 156.969 244.023 156.923 244.362C156.832 245.04 156.689 245.451 156.746 245.473Z" fill="#263138"/>
<path d="M156.952 245.402C156.984 245.372 156.701 245.009 156.049 244.684C155.725 244.523 155.308 244.385 154.827 244.33C154.587 244.304 154.332 244.299 154.069 244.324C153.807 244.358 153.462 244.389 153.244 244.77C153.146 244.975 153.235 245.219 153.349 245.339C153.462 245.47 153.579 245.537 153.691 245.614C153.921 245.759 154.165 245.858 154.404 245.921C154.882 246.048 155.336 246.024 155.692 245.939C156.417 245.761 156.726 245.383 156.695 245.359C156.658 245.302 156.304 245.577 155.641 245.667C155.315 245.711 154.913 245.703 154.502 245.574C154.297 245.511 154.091 245.419 153.899 245.292C153.688 245.163 153.543 245.001 153.602 244.926C153.646 244.82 153.892 244.714 154.108 244.705C154.344 244.678 154.575 244.674 154.795 244.689C155.234 244.721 155.624 244.82 155.94 244.938C156.573 245.175 156.912 245.452 156.952 245.402Z" fill="#263138"/>
<path d="M142.092 262.204L149.106 276.899L151.303 290.121C151.461 291.074 152.393 291.694 153.333 291.471C153.859 291.346 154.29 290.979 154.493 290.478C155.782 287.285 160.467 275.518 159.893 274.471C159.229 273.259 153.524 258.48 153.524 258.48L142.092 262.204Z" fill="#3E71F3"/>
<path d="M153.333 291.471L159.443 273.469L159.726 274.098C159.97 274.642 160.017 275.255 159.85 275.827C159.405 277.36 158.084 281.563 154.538 290.458C154.332 290.975 153.878 291.357 153.333 291.471Z" fill="white" fill-opacity="0.6"/>
<path d="M154.242 270.048C153.985 270.473 154.116 271.09 154.53 271.364C154.944 271.638 155.573 271.509 155.836 271.089C156.1 270.67 155.965 269.923 155.524 269.698C155.082 269.472 154.351 269.663 154.196 270.134L154.242 270.048Z" fill="white" fill-opacity="0.6"/>
<path d="M153.81 283.456C153.745 283.535 153.06 282.908 151.989 282.886C150.918 282.833 150.192 283.411 150.132 283.328C150.103 283.297 150.239 283.097 150.565 282.892C150.886 282.686 151.41 282.509 152.001 282.529C152.592 282.551 153.103 282.764 153.409 282.991C153.72 283.218 153.842 283.427 153.81 283.456Z" fill="#263138"/>
<path d="M153.647 285.92C153.605 286.016 152.911 285.748 152.044 285.873C151.174 285.979 150.575 286.42 150.51 286.338C150.433 286.282 151.006 285.645 151.997 285.519C152.986 285.381 153.706 285.846 153.647 285.92Z" fill="#263138"/>
<path d="M154.634 280.022C154.596 280.124 153.531 279.705 152.165 279.782C150.799 279.837 149.779 280.356 149.732 280.259C149.672 280.19 150.683 279.488 152.148 279.425C153.613 279.346 154.687 279.948 154.634 280.022Z" fill="#263138"/>
<path d="M152.875 275.377C152.875 275.484 151.901 275.51 150.816 275.951C149.725 276.377 149 277.029 148.927 276.951C148.853 276.897 149.512 276.08 150.683 275.619C151.85 275.147 152.891 275.287 152.875 275.377Z" fill="#263138"/>
<path d="M150.925 271.011C150.918 271.118 149.87 270.993 148.766 271.552C147.649 272.086 147.108 272.991 147.019 272.932C146.98 272.912 147.059 272.652 147.312 272.3C147.563 271.95 148.01 271.526 148.608 271.231C149.206 270.938 149.815 270.842 150.246 270.858C150.679 270.872 150.933 270.968 150.925 271.011Z" fill="#263138"/>
<path d="M148.419 270.71C148.4 270.719 148.277 270.534 148.146 270.158C148.017 269.783 147.884 269.207 147.931 268.486C147.968 268.138 147.975 267.708 148.302 267.326C148.464 267.134 148.788 267.034 149.053 267.152C149.313 267.265 149.478 267.484 149.589 267.717C149.997 268.667 149.598 269.942 148.598 270.554C147.586 271.15 146.349 270.975 145.561 270.351C145.374 270.182 145.194 269.952 145.197 269.649C145.196 269.345 145.453 269.109 145.682 269.05C146.153 268.917 146.545 269.046 146.889 269.118C147.585 269.3 148.097 269.59 148.421 269.816C148.747 270.045 148.893 270.211 148.88 270.227C148.845 270.289 148.177 269.666 146.831 269.364C146.499 269.305 146.108 269.217 145.777 269.33C145.616 269.385 145.51 269.506 145.511 269.655C145.508 269.801 145.623 269.973 145.778 270.103C146.434 270.609 147.565 270.765 148.413 270.249C149.26 269.742 149.61 268.619 149.288 267.852C149.208 267.669 149.077 267.507 148.931 267.442C148.787 267.378 148.627 267.415 148.515 267.532C148.278 267.778 148.225 268.177 148.183 268.508C148.048 269.88 148.492 270.695 148.419 270.71Z" fill="#263138"/>
<path d="M165.725 234.951L146.496 222.007L152.86 159.517L134.646 148.88L117.99 145.021C117.99 145.021 111.034 159.492 107.941 168.756C101.361 188.459 96.7431 195.519 97.7985 209.801C98.1324 214.321 114.824 225.629 125.366 231.911C125.511 233.353 125.695 234.612 125.925 235.652C129.527 251.936 140.522 273.592 140.522 273.592L157.232 265.823L151.841 247.358L157.456 250.634L165.725 234.951ZM124.393 194.655L126.636 184.639C126.162 191.007 125.728 197.652 125.418 204.024C124.338 201.079 123.97 197.806 124.393 194.655Z" fill="#263138"/>
<path d="M140.522 273.592C140.517 273.595 140.473 273.505 140.393 273.329C140.308 273.136 140.193 272.875 140.047 272.54C139.744 271.826 139.31 270.803 138.755 269.493C137.645 266.841 136.056 262.997 134.143 258.226C132.241 253.451 129.977 247.764 127.696 241.358C127.128 239.755 126.57 238.104 126.047 236.399C125.816 235.535 125.524 234.685 125.373 233.771C125.329 233.545 125.278 233.319 125.24 233.092L125.16 232.411C125.11 231.955 125.059 231.497 125.007 231.037C124.812 229.197 124.649 227.32 124.529 225.412C124.468 224.458 124.417 223.496 124.379 222.527C124.345 221.562 124.301 220.576 124.357 219.596C124.639 211.743 125.3 204.3 125.842 197.525C126.408 190.757 126.918 184.661 127.347 179.534C127.761 174.412 128.051 170.264 128.216 167.395C128.305 165.962 128.355 164.848 128.388 164.092C128.408 163.727 128.424 163.442 128.435 163.232C128.448 163.039 128.457 162.94 128.463 162.94C128.469 162.94 128.472 163.039 128.472 163.233C128.469 163.444 128.465 163.729 128.461 164.094C128.45 164.851 128.423 165.967 128.355 167.403C128.233 170.275 127.981 174.428 127.599 179.553C127.192 184.682 126.708 190.781 126.171 197.552C125.646 204.325 124.996 211.776 124.714 219.603C124.659 220.581 124.702 221.544 124.736 222.514C124.773 223.479 124.824 224.438 124.884 225.39C125.003 227.292 125.163 229.165 125.356 231.001C125.406 231.46 125.457 231.916 125.507 232.371L125.585 233.051C125.622 233.274 125.672 233.491 125.714 233.711C125.857 234.591 126.147 235.448 126.375 236.301C126.891 237.998 127.444 239.647 128.007 241.249C130.267 247.652 132.507 253.348 134.378 258.133C136.275 262.894 137.813 266.753 138.884 269.44C139.412 270.761 139.825 271.793 140.113 272.513C140.246 272.853 140.35 273.118 140.427 273.315C140.495 273.496 140.528 273.59 140.522 273.592Z" fill="#445964"/>
<path d="M127.67 160.828C127.654 160.847 127.501 160.723 127.231 160.473C126.981 160.209 126.677 159.766 126.419 159.166C125.901 157.963 125.638 156.167 125.599 154.208C125.563 152.244 125.708 150.475 125.837 149.201C125.97 147.927 126.078 147.144 126.126 147.147C126.176 147.15 126.157 147.944 126.089 149.221C126.025 150.497 125.921 152.259 125.956 154.201C125.995 156.138 126.215 157.894 126.654 159.074C126.873 159.662 127.13 160.102 127.338 160.383C127.564 160.649 127.686 160.809 127.67 160.828Z" fill="#445964"/>
<path d="M120.479 145.955C120.515 145.947 120.688 146.61 120.622 147.704C120.562 148.787 120.193 150.311 119.244 151.705C118.293 153.099 117.009 154 116.023 154.452C115.03 154.914 114.35 154.995 114.344 154.959C114.326 154.9 114.975 154.731 115.909 154.227C116.838 153.73 118.04 152.836 118.948 151.504C119.855 150.172 120.248 148.726 120.37 147.68C120.498 146.626 120.417 145.961 120.479 145.955Z" fill="#445964"/>
<path d="M150.358 182.287C150.364 182.287 150.363 182.352 150.354 182.477C150.342 182.623 150.327 182.806 150.308 183.033C150.256 183.547 150.184 184.261 150.093 185.166C149.889 187.045 149.597 189.717 149.239 193.007C148.487 199.646 147.454 208.775 146.312 218.857C145.871 223.906 146.312 228.764 147.259 233.044C147.727 235.19 148.347 237.182 149 239.024C149.646 240.87 150.249 242.591 150.8 244.165C151.884 247.292 152.764 249.831 153.383 251.616C153.674 252.479 153.903 253.158 154.069 253.648C154.138 253.866 154.194 254.041 154.238 254.18C154.275 254.3 154.29 254.363 154.285 254.365C154.279 254.367 154.251 254.309 154.204 254.192C154.15 254.056 154.084 253.885 154.001 253.672C153.82 253.188 153.57 252.516 153.252 251.663C152.607 249.886 151.691 247.36 150.562 244.249C149.998 242.68 149.382 240.964 148.72 239.123C148.054 237.28 147.417 235.273 146.938 233.116C145.965 228.81 145.511 223.914 145.956 218.827C147.08 208.716 148.197 199.596 148.988 192.981C149.393 189.696 149.723 187.029 149.955 185.153C150.074 184.25 150.168 183.539 150.236 183.026C150.269 182.8 150.296 182.618 150.318 182.474C150.338 182.349 150.352 182.286 150.358 182.287Z" fill="#445964"/>
<path d="M117.99 144.9L120.94 137.364L127.67 147.4L118.697 145.156L117.99 144.9Z" fill="#FFBD9C"/>
<path d="M188.422 122.244L180.434 104.337C179.479 101.457 177.687 101.01 176.187 99.3397L156.176 88.0539C141.593 82.0806 133.653 102.113 133.653 102.113L120.398 132.347C104.81 137.515 115.847 149.486 115.847 149.486C115.847 149.486 111.607 142.116 115.776 139.457C120.143 136.673 124.983 144.008 129.634 150.975C135.124 159.201 152.966 164.544 152.966 164.544C155.053 162.339 154.469 154.643 156.103 150.513C156.621 149.203 168.977 120.585 168.977 120.585L173.766 132.188C173.766 132.188 179.905 124.991 182.881 123.846C185.856 122.702 188.422 122.244 188.422 122.244Z" fill="#3E71F3"/>
<path d="M152.966 134.97C152.977 134.988 152.768 135.148 152.36 135.393C151.953 135.639 151.337 135.954 150.539 136.256C148.957 136.866 146.561 137.339 143.964 136.938C141.365 136.537 139.224 135.363 137.899 134.305C137.229 133.776 136.737 133.29 136.423 132.933C136.109 132.577 135.957 132.362 135.973 132.348C136.023 132.3 136.696 133.114 138.051 134.103C139.391 135.091 141.493 136.194 144.018 136.585C146.543 136.974 148.879 136.556 150.455 136.018C152.045 135.484 152.933 134.91 152.966 134.97Z" fill="#263138"/>
<path d="M119.804 106.574L132.154 107.739L151.909 86.8581L140.29 86.4589L119.6 88.5008C119.6 88.5008 121.432 97.1249 119.804 106.574Z" fill="#3E71F3"/>
<path d="M136.956 95.5719C136.967 95.5774 136.915 95.7091 136.805 95.9546C136.676 96.2334 136.511 96.5863 136.31 97.0204C135.857 97.9876 135.236 99.3136 134.477 100.933C132.941 104.242 130.904 108.852 128.695 113.963C126.487 119.076 124.478 123.702 122.959 127.022C122.201 128.683 121.575 130.021 121.125 130.938C120.912 131.367 120.739 131.715 120.602 131.991C120.479 132.23 120.409 132.353 120.398 132.347C120.386 132.342 120.434 132.209 120.537 131.96C120.658 131.677 120.811 131.32 120.999 130.88C121.426 129.901 122.012 128.559 122.728 126.919C124.188 123.528 126.173 118.917 128.367 113.821C130.576 108.708 132.653 104.11 134.248 100.825C135.044 99.1815 135.706 97.8604 136.185 96.9583C136.411 96.5362 136.595 96.1932 136.741 95.9219C136.871 95.687 136.945 95.5662 136.956 95.5719Z" fill="#263138"/>
<path d="M174.647 101.644C174.681 101.705 173.915 102.104 172.87 102.994C172.344 103.433 171.774 104.02 171.202 104.719C170.646 105.432 170.098 106.264 169.636 107.2C169.187 108.143 168.873 109.089 168.658 109.968C168.464 110.85 168.356 111.661 168.337 112.347C168.287 113.718 168.448 114.566 168.379 114.577C168.354 114.581 168.302 114.373 168.228 113.989C168.187 113.798 168.147 113.562 168.132 113.284C168.112 113.008 168.07 112.692 168.085 112.342C168.071 111.641 168.154 110.806 168.337 109.896C168.539 108.991 168.852 108.013 169.314 107.044C169.788 106.082 170.361 105.231 170.946 104.511C171.548 103.805 172.152 103.222 172.71 102.798C172.976 102.569 173.25 102.407 173.479 102.251C173.707 102.092 173.917 101.977 174.092 101.89C174.439 101.711 174.635 101.622 174.647 101.644Z" fill="#263138"/>
<path d="M178.097 72.9656L166.512 94.621C164.62 98.1566 160.317 99.6277 156.657 97.9898C152.627 96.1866 150.96 91.3508 153.024 87.4485C154.116 85.3825 155.023 83.6962 155.023 83.6962C155.023 83.6962 149.986 80.4318 152.341 74.9894C154.443 70.1338 162.158 56.4286 163.797 53.5303L173.561 57.8999C179.046 60.7491 181.097 67.5624 178.097 72.9656Z" fill="#FFBD9C"/>
<path d="M155.048 83.6142C155.048 83.6142 158.345 85.4231 163.002 84.7665C163.002 84.7665 159.591 87.9155 154.408 85.011L155.048 83.6142Z" fill="#EB996E"/>
<path d="M158.77 66.3C158.572 66.7017 158.75 67.1999 159.166 67.4134C159.581 67.6264 160.077 67.4748 160.275 67.0729C160.472 66.6713 160.294 66.1727 159.879 65.9596C159.463 65.7459 158.967 65.8984 158.77 66.3Z" fill="#263138"/>
<path d="M158.813 65.6104C158.864 65.7541 159.644 65.5829 160.475 65.9572C161.31 66.3194 161.729 67.0205 161.865 66.9591C161.929 66.9337 161.913 66.7082 161.734 66.3958C161.559 66.0859 161.196 65.6988 160.677 65.4692C160.157 65.2402 159.636 65.2357 159.298 65.3188C158.955 65.4006 158.787 65.5443 158.813 65.6104Z" fill="#263138"/>
<path d="M166.551 70.128C166.355 70.5297 166.532 71.0277 166.948 71.2414C167.363 71.4544 167.859 71.3028 168.056 70.9009C168.253 70.4993 168.076 70.0007 167.661 69.7874C167.245 69.5737 166.748 69.7264 166.551 70.128Z" fill="#263138"/>
<path d="M166.92 69.4245C166.971 69.5682 167.751 69.3974 168.581 69.7715C169.417 70.1335 169.836 70.8346 169.972 70.7732C170.036 70.7479 170.021 70.5228 169.84 70.2097C169.665 69.8999 169.303 69.5129 168.784 69.2833C168.264 69.0543 167.743 69.05 167.405 69.1331C167.062 69.2151 166.894 69.3584 166.92 69.4245Z" fill="#263138"/>
<path d="M161.141 74.2422C161.166 74.1967 160.689 73.876 159.899 73.394C159.697 73.277 159.515 73.1448 159.543 72.9837C159.562 72.808 159.753 72.6186 159.967 72.4176C160.397 71.9931 160.847 71.5479 161.319 71.0814C163.222 69.169 164.7 67.5581 164.623 67.4822C164.545 67.4062 162.94 68.8947 161.037 70.8071C160.573 71.281 160.13 71.7322 159.707 72.1649C159.519 72.3702 159.258 72.5821 159.224 72.949C159.21 73.1333 159.314 73.3184 159.434 73.416C159.552 73.5185 159.67 73.5742 159.772 73.6277C160.595 74.0501 161.117 74.2881 161.141 74.2422Z" fill="#263138"/>
<path d="M163.332 75.9131C163.2 75.8445 162.794 76.7466 161.734 77.0417C160.675 77.3393 159.758 76.8072 159.695 76.9303C159.657 76.9813 159.83 77.2015 160.232 77.3944C160.624 77.5865 161.263 77.7187 161.912 77.5385C162.559 77.3564 162.996 76.9228 163.193 76.5662C163.396 76.2041 163.396 75.9353 163.332 75.9131Z" fill="#263138"/>
<path d="M168.164 66.0686C168.145 66.3317 169.023 66.596 169.947 67.1503C170.881 67.6861 171.54 68.324 171.76 68.1791C171.862 68.1079 171.82 67.8338 171.599 67.4724C171.382 67.1127 170.972 66.6797 170.415 66.3523C169.858 66.0261 169.28 65.879 168.86 65.8647C168.437 65.8486 168.177 65.9455 168.164 66.0686Z" fill="#263138"/>
<path d="M160.197 63.3401C160.258 63.5944 160.919 63.6548 161.612 63.954C162.316 64.2287 162.828 64.6501 163.051 64.5128C163.152 64.4432 163.145 64.2128 162.97 63.9199C162.799 63.6293 162.444 63.2956 161.964 63.098C161.484 62.9013 160.997 62.8888 160.671 62.9749C160.34 63.0602 160.173 63.219 160.197 63.3401Z" fill="#263138"/>
<path d="M174.454 76.2115C174.564 76.2129 178.666 76.7758 176.891 80.4234C175.117 84.071 171.821 81.5373 171.866 81.4296C171.91 81.322 174.454 76.2115 174.454 76.2115Z" fill="#FFBD9C"/>
<path d="M173.652 80.5897C173.674 80.5858 173.694 80.6652 173.777 80.7667C173.859 80.8654 174.023 80.9861 174.248 81.0075C174.702 81.0534 175.324 80.5993 175.661 79.9507C175.832 79.6231 175.916 79.2733 175.926 78.9543C175.944 78.6333 175.862 78.3631 175.685 78.2343C175.514 78.0955 175.32 78.1449 175.225 78.2259C175.127 78.3041 175.115 78.3882 175.092 78.3851C175.078 78.3892 175.044 78.2859 175.146 78.1494C175.197 78.0845 175.281 78.0192 175.401 77.9908C175.523 77.962 175.67 77.9885 175.798 78.0687C176.07 78.2251 176.197 78.6069 176.186 78.9572C176.191 79.3162 176.104 79.7131 175.912 80.0809C175.531 80.8046 174.821 81.3094 174.219 81.2053C173.93 81.1475 173.754 80.9659 173.685 80.8261C173.616 80.6812 173.636 80.5901 173.652 80.5897Z" fill="#EB996E"/>
<path d="M176.569 77.0074C176.066 76.6182 174.857 76.7023 174.38 77.1232C173.902 77.5438 173.581 78.1188 173.105 78.5404C172.628 78.9619 171.872 79.1972 171.367 78.8106C171.018 78.5441 170.903 78.0541 170.973 77.6212C171.044 77.1881 171.269 76.7976 171.497 76.4227C172.488 74.7922 173.618 73.2409 174.466 71.5318C175.315 69.8223 175.876 67.9032 175.626 66.0112C175.376 64.1195 174.185 62.2779 172.386 61.641C171.194 61.2189 169.871 61.3467 168.657 60.9954C167.217 60.5789 165.999 59.4598 165.462 58.0607C165.393 57.8815 164.986 57.2421 164.986 57.2421C165.026 57.1525 165.457 56.4176 165.888 56.2723C169.092 55.1904 173.439 56.4331 176.096 58.5263C178.752 60.6197 180.613 63.9895 180.645 67.3717C180.678 70.7542 178.55 74.4857 176.569 77.0074Z" fill="#263138"/>
<path d="M176.604 76.6419C177.617 74.9185 179.262 73.6693 180.517 72.1135C181.772 70.5577 182.635 68.3653 181.741 66.5772C181.436 65.9661 180.948 65.4543 180.692 64.8206C180.436 64.1838 180.435 63.478 180.337 62.7984C180.032 60.6981 178.704 58.7704 176.851 57.7368C175.569 57.0221 174.09 56.7292 172.791 56.0463C170.733 54.9646 169.229 52.9606 167.067 52.1055C166.35 51.8218 165.51 51.6844 164.825 52.0377C164.139 52.3912 163.771 53.3855 164.271 53.9735C164.182 53.2837 163.288 52.9047 162.654 53.1917C162.02 53.4786 161.696 54.2325 161.739 54.9267C161.782 55.621 162.126 56.2608 162.524 56.8311C163.837 58.7108 165.844 60.0933 168.068 60.6495L173.038 60.2619L177.113 63.2817L180.128 68.0814L174.66 75.1857L176.604 76.6419Z" fill="#263138"/>
<path d="M145.509 48.3107C144.884 38.6369 136.535 31.3015 126.861 31.9264C117.188 32.5516 109.852 40.9005 110.477 50.5743C110.93 57.5783 115.432 63.3537 121.554 65.7725C121.688 67.8481 121.839 70.1915 121.839 70.1915L137.191 69.1994C137.191 69.1994 137.124 66.7133 137.015 64.4973C142.468 61.2234 145.948 55.0948 145.509 48.3107Z" fill="#FD9800"/>
<path d="M131.635 69.4853C131.635 69.4853 131.633 69.4115 131.638 69.2682C131.646 69.1159 131.656 68.9045 131.669 68.6316C131.701 68.0724 131.747 67.2476 131.834 66.187C131.922 65.1267 132.045 63.8291 132.284 62.3345C132.531 60.8436 132.888 59.1459 133.559 57.3572C133.895 56.4637 134.292 55.5451 134.83 54.6432C135.108 54.2007 135.463 53.7643 135.958 53.49C136.452 53.2133 137.089 53.1721 137.625 53.4368C137.89 53.5682 138.122 53.8027 138.224 54.0942C138.336 54.3803 138.327 54.7148 138.209 54.9979C137.974 55.5696 137.483 55.9888 136.931 56.2512C135.801 56.7309 134.461 56.7149 133.273 56.2288C132.081 55.7437 131.088 54.7246 130.611 53.4662C130.381 52.8402 130.232 52.1477 130.377 51.4522C130.498 50.7623 131.12 50.1117 131.89 50.1321C132.271 50.1353 132.632 50.3727 132.821 50.6923C133.018 51.0099 133.088 51.396 133.032 51.7632C132.91 52.5049 132.418 53.0857 131.913 53.5831C130.868 54.5668 129.397 55.1708 127.907 55.0316C126.426 54.8922 125.047 54.0082 124.357 52.7255C123.997 52.0961 123.87 51.3121 124.101 50.6115C124.218 50.2655 124.465 49.9341 124.819 49.7872C125.167 49.6263 125.575 49.6655 125.904 49.8165C126.237 49.9657 126.516 50.2286 126.693 50.5374C126.876 50.8452 126.973 51.1889 127.025 51.5293C127.119 52.2124 127.065 52.9008 126.889 53.5484C126.543 54.8458 125.706 55.9757 124.609 56.6453C123.518 57.3217 122.216 57.566 121.017 57.3778C120.425 57.2866 119.813 57.0919 119.386 56.6435C118.968 56.2057 118.812 55.4802 119.18 54.9626C119.363 54.7132 119.654 54.5679 119.942 54.5268C120.232 54.4875 120.525 54.5275 120.788 54.6352C121.325 54.8585 121.674 55.3204 121.938 55.7679C122.439 56.6894 122.853 57.5897 123.268 58.4481C124.896 61.8879 126.078 64.7326 126.874 66.7054C127.271 67.692 127.568 68.4628 127.767 68.9861C127.862 69.2423 127.936 69.4409 127.989 69.5833C128.038 69.7184 128.058 69.7896 128.058 69.7896C128.058 69.7896 128.024 69.7237 127.969 69.5915C127.911 69.4506 127.831 69.2547 127.727 69.002C127.511 68.4757 127.198 67.714 126.796 66.737C125.977 64.7752 124.775 61.9414 123.13 58.5138C122.713 57.6625 122.289 56.7523 121.795 55.8526C121.538 55.4187 121.2 54.9891 120.723 54.7956C120.262 54.604 119.634 54.6462 119.324 55.0681C119.02 55.4871 119.148 56.1341 119.52 56.5168C119.901 56.9168 120.474 57.1052 121.046 57.1907C122.199 57.3687 123.457 57.1295 124.505 56.4764C125.556 55.8318 126.359 54.744 126.69 53.4947C126.859 52.8731 126.909 52.2083 126.819 51.5603C126.731 50.9233 126.419 50.2709 125.817 50.0092C125.528 49.878 125.189 49.8486 124.904 49.9814C124.614 50.1023 124.407 50.3735 124.302 50.6813C124.097 51.3097 124.205 52.0318 124.545 52.6239C125.198 53.8372 126.519 54.6858 127.927 54.8169C129.345 54.9505 130.761 54.3725 131.766 53.4272C132.255 52.9492 132.717 52.3869 132.821 51.7314C132.871 51.4113 132.808 51.0744 132.641 50.8042C132.478 50.5329 132.193 50.3474 131.882 50.3431C131.573 50.3325 131.261 50.4686 131.03 50.6805C130.795 50.8903 130.649 51.1854 130.581 51.4973C130.447 52.1267 130.583 52.7941 130.804 53.3929C131.259 54.5993 132.21 55.5794 133.349 56.0453C134.483 56.5159 135.786 56.529 136.851 56.0794C137.368 55.8377 137.83 55.4361 138.037 54.9311C138.259 54.4285 138.023 53.819 137.543 53.596C137.074 53.3598 136.485 53.3917 136.041 53.6413C135.584 53.8919 135.243 54.3023 134.971 54.7322C134.441 55.6108 134.038 56.5284 133.701 57.4109C133.026 59.1828 132.66 60.8701 132.403 62.3543C132.154 63.8419 132.018 65.1363 131.917 66.1943C131.829 67.2468 131.76 68.0675 131.713 68.6345C131.69 68.9067 131.673 69.1178 131.66 69.2696C131.647 69.4125 131.635 69.4853 131.635 69.4853Z" fill="#263138" fill-opacity="0.2"/>
<path d="M136.194 72.118L123.012 72.9698C122.466 73.0052 121.994 72.5908 121.959 72.0445C121.924 71.4981 122.338 71.0265 122.884 70.9913L136.066 70.1395C136.612 70.1042 137.084 70.5185 137.119 71.0648C137.154 71.6112 136.74 72.0826 136.194 72.118Z" fill="#263138" fill-opacity="0.2"/>
<path d="M136.249 72.9819L123.068 73.8338C122.522 73.8689 122.107 74.3405 122.143 74.8867C122.178 75.4331 122.65 75.8474 123.196 75.8121L124.643 75.7186L126.799 79.2482C127.045 79.6519 127.495 79.8856 127.967 79.8552L132.677 79.5509C133.154 79.5201 133.574 79.2247 133.764 78.7863L135.394 75.0238L136.377 74.9604C136.924 74.9251 137.338 74.4536 137.303 73.9072C137.267 73.3609 136.796 72.9466 136.249 72.9819Z" fill="#263138" fill-opacity="0.2"/>
<path d="M116.019 39.0087C117.127 37.845 118.312 37.0018 119.376 36.4504C120.441 35.8959 121.367 35.6009 122.025 35.4913C122.684 35.3797 123.065 35.4195 123.106 35.5569C123.203 35.8701 121.905 36.4273 120.193 37.7378C118.487 39.0224 116.386 41.2129 115.226 44.1911C114.073 47.1735 114.148 50.2082 114.542 52.3075C114.922 54.4297 115.504 55.7157 115.221 55.8816C115.099 55.9555 114.79 55.7277 114.379 55.2014C113.967 54.6766 113.482 53.8345 113.07 52.7071C112.656 51.582 112.35 50.1602 112.316 48.5538C112.28 46.9508 112.545 45.1636 113.215 43.411L116.019 39.0087Z" fill="white" fill-opacity="0.2"/>
<path d="M127.367 36.0404C126.256 36.1018 125.257 35.8616 125.105 35.2809C125.038 34.9929 125.223 34.6686 125.608 34.4003C125.991 34.1321 126.575 33.9276 127.239 33.8878C127.903 33.8486 128.507 33.9825 128.919 34.2035C129.334 34.4243 129.556 34.7242 129.523 35.0183L127.367 36.0404Z" fill="white" fill-opacity="0.2"/>
<path d="M133.538 79.1143C133.525 79.148 133.184 79.018 132.615 78.8941C132.047 78.7686 131.243 78.6759 130.361 78.7567C129.478 78.8412 128.705 79.0819 128.171 79.3107C127.635 79.538 127.324 79.7293 127.304 79.6987C127.291 79.6799 127.575 79.4411 128.107 79.1721C128.637 78.9021 129.43 78.629 130.34 78.542C131.251 78.4584 132.081 78.5794 132.652 78.7459C133.225 78.9117 133.548 79.0935 133.538 79.1143Z" fill="#445964"/>
<path d="M135.425 75.0669C135.429 75.1263 133.049 75.3286 130.11 75.5184C127.17 75.7084 124.784 75.8141 124.78 75.7547C124.777 75.6953 127.156 75.4931 130.096 75.3033C133.035 75.1132 135.421 75.0075 135.425 75.0669Z" fill="#445964"/>
<path d="M134.701 76.6838C134.704 76.7125 134.212 76.7972 133.411 76.8995C132.611 77.0021 131.503 77.1199 130.275 77.2166C129.048 77.3134 127.934 77.3705 127.128 77.3948C126.321 77.4189 125.822 77.4126 125.821 77.3836C125.819 77.3532 126.316 77.3056 127.119 77.2426C127.988 77.1758 129.066 77.0932 130.258 77.0017C131.45 76.9052 132.528 76.818 133.396 76.7478C134.199 76.6844 134.697 76.6535 134.701 76.6838Z" fill="#445964"/>
<path d="M46.6557 76.9921L47.0904 77.7146C47.5784 78.5255 48.2886 79.1796 49.1368 79.5993L49.8926 79.973L49.1703 80.4077C48.3592 80.8957 47.7051 81.6059 47.2855 82.4543L46.9118 83.2101L46.4771 82.4876C45.9893 81.6765 45.279 81.0226 44.4306 80.603L43.6749 80.2293L44.3974 79.7944C45.2082 79.3066 45.8624 78.5963 46.2818 77.7479L46.6557 76.9921Z" fill="#3E71F3"/>
<path d="M226.296 74.7443L226.504 74.8279C226.737 74.9218 226.993 74.9469 227.24 74.9L227.461 74.8581L227.377 75.0663C227.283 75.3 227.258 75.5555 227.305 75.8029L227.347 76.0233L227.139 75.9396C226.905 75.8455 226.65 75.8207 226.402 75.8676L226.182 75.9092L226.265 75.7012C226.36 75.4676 226.384 75.212 226.337 74.9647L226.296 74.7443Z" fill="#3E71F3"/>
<path d="M54.7736 57.5907L54.9817 57.6744C55.2152 57.7683 55.4709 57.7932 55.7183 57.7464L55.9387 57.7046L55.8551 57.9128C55.761 58.1463 55.7361 58.402 55.783 58.6491L55.8246 58.8696L55.6167 58.7859C55.383 58.692 55.1275 58.6669 54.8801 58.7138L54.6597 58.7557L54.7433 58.5475C54.8372 58.314 54.8623 58.0583 54.8154 57.8109L54.7736 57.5907Z" fill="#3E71F3"/>
<path d="M98.8926 260.416C98.8926 260.416 98.8298 260.492 98.6963 260.627C98.5518 260.77 98.3532 260.967 98.0979 261.221C97.556 261.749 96.7745 262.51 95.7714 263.487C93.729 265.457 90.7864 268.295 87.1411 271.811L87.1752 271.726C87.5854 280.761 88.1432 293.04 88.7632 306.695L88.7773 307.004L88.5197 306.832C87.5299 306.17 86.471 305.462 85.4034 304.749C78.2944 299.99 71.5648 295.484 65.643 291.52L65.6026 291.493L65.5875 291.447C62.6391 282.643 60.152 275.216 58.3968 269.975C57.5347 267.368 56.8526 265.306 56.3812 263.88C56.1558 263.184 55.9811 262.644 55.8583 262.263C55.804 262.088 55.7617 261.951 55.7293 261.846C55.7015 261.752 55.6893 261.703 55.693 261.702C55.6966 261.701 55.7162 261.747 55.7513 261.839C55.7891 261.942 55.8385 262.077 55.9017 262.249C56.0344 262.626 56.223 263.161 56.4661 263.852C56.9553 265.271 57.6627 267.325 58.5572 269.921C60.3384 275.152 62.8628 282.567 65.8554 291.357L65.8001 291.285C71.7272 295.242 78.4628 299.738 85.5779 304.488C86.6451 305.202 87.704 305.91 88.6938 306.572L88.4506 306.709C87.8658 293.052 87.3399 280.771 86.9529 271.736L86.9507 271.685L86.9872 271.65C90.6619 268.165 93.6278 265.351 95.6867 263.398C96.7074 262.439 97.5026 261.693 98.054 261.175C98.3187 260.931 98.5245 260.741 98.6741 260.603C98.8149 260.476 98.8926 260.416 98.8926 260.416Z" fill="#3E71F3"/>
<path d="M89.6941 302.583L89.631 304.621L91.2746 305.829L89.3163 306.399L88.6756 308.335L87.5284 306.649L85.4889 306.638L86.7382 305.026L86.1183 303.083L88.0376 303.773L89.6941 302.583Z" fill="#3E71F3"/>
<path d="M65.8911 288.748L65.9307 290.067L67.04 290.783L65.7974 291.228L65.4599 292.504L64.6523 291.46L63.3342 291.534L64.0777 290.443L63.6008 289.212L64.8678 289.582L65.8911 288.748Z" fill="#3E71F3"/>
<path d="M55.6381 259.281L56.6334 260.559L58.2509 260.464L57.3427 261.805L57.9331 263.314L56.3765 262.865L55.1241 263.893L55.0701 262.273L53.7057 261.4L55.2291 260.848L55.6381 259.281Z" fill="#3E71F3"/>
<path d="M97.8971 258.003L98.8926 259.281L100.51 259.185L99.6017 260.527L100.192 262.036L98.6357 261.587L97.3832 262.615L97.3293 260.995L95.9649 260.122L97.4881 259.57L97.8971 258.003Z" fill="#3E71F3"/>
<path d="M86.8031 270.348L87.4384 271.163L88.4705 271.103L87.8909 271.959L88.2679 272.922L87.2743 272.635L86.4751 273.291L86.4406 272.258L85.5699 271.7L86.542 271.348L86.8031 270.348Z" fill="#3E71F3"/>
<path d="M63.0586 201.535C63.0586 209.466 56.6294 215.895 48.6985 215.895C40.7678 215.895 34.3384 209.466 34.3384 201.535C34.3384 193.604 40.7678 187.175 48.6985 187.175C56.6294 187.175 63.0586 193.604 63.0586 201.535Z" fill="#3E71F3"/>
<path d="M46.8318 206.017C46.8318 207.311 45.7832 208.359 44.4898 208.359C43.1963 208.359 42.1476 207.311 42.1476 206.017C42.1476 204.724 43.1963 203.675 44.4898 203.675C45.7832 203.675 46.8318 204.724 46.8318 206.017Z" fill="white"/>
<path d="M43.5102 199.258C43.5102 200.011 42.9002 200.621 42.1477 200.621C41.3954 200.621 40.7853 200.011 40.7853 199.258C40.7853 198.506 41.3954 197.896 42.1477 197.896C42.9002 197.896 43.5102 198.506 43.5102 199.258Z" fill="white"/>
<path d="M34.7676 205.027C34.8319 205.276 22.477 217.13 25.6617 219.656C28.8462 222.181 42.243 215.703 53.6631 206.479C65.0834 197.254 75.5153 186.054 72.6602 183.089C69.8051 180.124 55.5332 188.903 55.5332 188.903L57.2388 189.99C57.2388 189.99 65.8679 184.454 68.5973 186.603C71.3268 188.752 63.5459 197.145 52.565 205.161C41.5841 213.177 30.9739 218.804 29.3266 216.608C27.6796 214.412 35.4515 207.086 35.4515 207.086L34.7676 205.027Z" fill="#3E71F3"/>
<path d="M34.7676 205.027C34.8319 205.276 22.477 217.13 25.6617 219.656C28.8462 222.181 42.243 215.703 53.6631 206.479C65.0834 197.254 75.5153 186.054 72.6602 183.089C69.8051 180.124 55.5332 188.903 55.5332 188.903L57.2388 189.99C57.2388 189.99 65.8679 184.454 68.5973 186.603C71.3268 188.752 63.5459 197.145 52.565 205.161C41.5841 213.177 30.9739 218.804 29.3266 216.608C27.6796 214.412 35.4515 207.086 35.4515 207.086L34.7676 205.027Z" fill="black" fill-opacity="0.301961"/>
<path d="M40.7853 191.419C40.9013 191.558 39.9277 192.384 38.8262 194.042C37.7241 195.675 36.571 198.261 36.5075 201.26C36.4512 204.26 37.5008 206.89 38.5368 208.565C39.5716 210.266 40.5112 211.13 40.3898 211.264C40.3169 211.364 39.1628 210.698 37.8854 209.005C37.25 208.164 36.6161 207.06 36.1416 205.737C35.6656 204.416 35.3721 202.871 35.3966 201.238C35.4374 199.605 35.7922 198.073 36.3204 196.773C36.8471 195.47 37.5243 194.392 38.1929 193.577C39.5365 191.937 40.7166 191.316 40.7853 191.419Z" fill="white" fill-opacity="0.301961"/>
<path d="M195.094 66.7505C195.249 60.2101 200.677 55.0338 207.217 55.1891C213.757 55.3442 218.934 60.7719 218.778 67.3123C218.623 73.8528 213.195 79.029 206.655 78.8737C200.115 78.7186 194.939 73.2909 195.094 66.7505Z" fill="#3E71F3"/>
<path d="M210.796 62.4943C210.821 61.4275 211.707 60.5834 212.773 60.6087C213.84 60.6342 214.684 61.5193 214.659 62.5859C214.634 63.6525 213.749 64.4969 212.682 64.4716C211.615 64.4463 210.771 63.5611 210.796 62.4943Z" fill="black" fill-opacity="0.4"/>
<path d="M214.66 67.0048C214.675 66.3841 215.19 65.8931 215.81 65.908C216.431 65.9227 216.922 66.4376 216.907 67.058C216.892 67.6785 216.377 68.1698 215.757 68.1551C215.136 68.1404 214.645 67.6252 214.66 67.0048Z" fill="black" fill-opacity="0.4"/>
<path d="M213.152 70.4558C213.381 70.4613 213.562 70.6511 213.556 70.8799C213.551 71.1089 213.361 71.29 213.132 71.2844C212.903 71.2791 212.722 71.0891 212.728 70.8603C212.733 70.6315 212.923 70.4505 213.152 70.4558Z" fill="black" fill-opacity="0.4"/>
<path d="M79 143C79 156.807 67.8071 168 54 168C40.1929 168 29 156.807 29 143C29 129.193 40.1929 118 54 118C67.8071 118 79 129.193 79 143ZM37.62 143C37.62 152.046 44.9536 159.38 54 159.38C63.0464 159.38 70.38 152.046 70.38 143C70.38 133.954 63.0464 126.62 54 126.62C44.9536 126.62 37.62 133.954 37.62 143Z" fill="#ADCEFF"/>
<path d="M79 143C79 148.316 77.3055 153.494 74.1625 157.781C71.0195 162.068 66.5917 165.242 61.5221 166.842C56.4525 168.441 51.005 168.383 45.9706 166.675C40.9363 164.968 36.5773 161.7 33.5265 157.347C30.4758 152.994 28.8922 147.781 29.0057 142.466C29.1192 137.152 30.9239 132.011 34.1577 127.792C37.3915 123.573 41.886 120.494 46.9886 119.003C52.0913 117.512 57.5363 117.687 62.533 119.501L59.5546 127.703C56.3019 126.522 52.7575 126.409 49.4359 127.379C46.1144 128.35 43.1886 130.354 41.0836 133.1C38.9785 135.847 37.8038 139.193 37.7299 142.653C37.656 146.112 38.6869 149.505 40.6727 152.339C42.6586 155.173 45.4962 157.3 48.7733 158.412C52.0504 159.523 55.5964 159.561 58.8965 158.52C62.1966 157.479 65.0789 155.412 67.1248 152.622C69.1708 149.831 70.2738 146.46 70.2738 143H79Z" fill="#3E71F3"/>
<path d="M79 143C79 149.63 76.3661 155.989 71.6777 160.678L65.5027 154.503C68.5534 151.452 70.2673 147.314 70.2673 143H79Z" fill="#FD9800"/>
</svg>
