<svg width="270" height="320" viewBox="0 0 270 320" fill="none" xmlns="http://www.w3.org/2000/svg">
<g clip-path="url(#clip0_569_2879)">
<path d="M12.3916 181.977C37.4983 240.45 103.772 265.566 155.699 261.282C169.877 260.114 198.404 257.761 220.677 236.773C263.453 196.468 256.865 112.218 215.917 62.6163C210.643 56.2297 174.142 13.433 117.262 14.0057C75.6181 14.4254 46.3881 37.865 42.8336 40.784C38.344 44.4727 28.4413 53.239 19.5157 67.1452C-1.45484 99.8219 -3.29825 145.438 12.3916 181.977Z" fill="#E0ECFF"/>
<path d="M14.4652 224.597C11.9466 223.021 9.06122 222.031 6.10279 221.728C4.7364 221.588 3.24353 221.628 2.1473 222.453C1.91471 222.628 1.68792 222.887 1.74006 223.173C1.77831 223.383 1.9566 223.536 2.12677 223.665C5.52919 226.252 10.6759 226.579 14.4652 224.597Z" fill="#FD9800"/>
<path d="M14.2507 224.361C12.3577 222.889 10.4535 221.406 8.84967 219.625C7.24589 217.844 5.94256 215.729 5.46332 213.384C5.31813 212.673 5.27294 211.86 5.731 211.296C10.0363 214.647 13.4182 218.981 14.2507 224.361Z" fill="#FD9800"/>
<path d="M14.4207 224.564C14.0964 222.217 13.9799 219.805 14.5207 217.497C15.0615 215.19 16.321 212.982 18.2979 211.666C19.0422 213.399 18.7222 215.395 18.1981 217.207C17.3882 220.005 16.1177 222.671 14.4526 225.065L14.4207 224.564Z" fill="#FD9800"/>
<path d="M18.6412 232.101C16.0793 232.411 13.8479 233.757 11.9349 235.483C10.0219 237.21 8.6621 239.536 8.09892 242.046C10.6119 241.891 12.7439 240.125 14.2901 238.145C15.8363 236.165 16.9077 233.992 18.6061 232.14L18.6412 232.101Z" fill="#FD9800"/>
<path d="M19.5578 233.306C17.4942 228.241 18.2419 222.137 21.4675 217.714C22.9273 222.888 22.3914 228.733 19.5578 233.306Z" fill="#FD9800"/>
<path d="M25.1343 239.924C22.8093 239.78 20.4453 240.332 18.4263 241.49C16.4074 242.648 14.7412 244.408 13.6983 246.484C13.5566 246.766 13.4314 247.125 13.6213 247.378C13.786 247.597 14.1048 247.618 14.3795 247.6C16.6333 247.455 18.631 246.103 20.2791 244.564C21.9274 243.026 23.3634 241.248 25.1847 239.917L25.1343 239.924Z" fill="#FD9800"/>
<path d="M24.9564 239.563C23.757 235.739 23.6823 231.571 24.7438 227.706C25.163 226.18 25.8667 224.573 27.2827 223.858C27.4036 223.796 27.5445 223.742 27.6713 223.79C27.7916 223.835 27.8613 223.958 27.9168 224.073C28.4205 225.122 28.5674 226.313 28.5154 227.475C28.4636 228.636 28.2217 229.781 27.9805 230.918C27.5345 233.023 27.2971 235.285 26.139 237.1C25.864 237.531 25.6218 237.996 25.4025 238.458C25.1833 238.919 25.1817 239.081 24.9807 239.448L24.9564 239.563Z" fill="#FD9800"/>
<path d="M39.7174 241.755C38.624 237.609 39.7848 232.583 42.4061 229.185C42.5992 228.935 42.8549 228.666 43.1703 228.695C43.6532 228.74 43.7783 229.381 43.7566 229.864C43.5671 234.1 42.1491 238.275 39.7174 241.755Z" fill="#FD9800"/>
<path d="M41.0484 242.662C46.1024 243.972 51.9004 242.698 56.104 239.61C53.6128 238.352 50.6762 237.993 47.9537 238.613C45.2311 239.234 42.7432 240.449 41.0484 242.662Z" fill="#FD9800"/>
<path d="M42.1707 239.901C45.0014 235.302 50.4279 232.301 55.8347 232.027C55.2119 234.219 53.4047 235.922 51.3655 236.952C49.3265 237.981 47.0503 238.429 44.8065 238.863C43.9338 239.032 42.7366 239.218 42.1707 239.901Z" fill="#FD9800"/>
<path d="M39.9988 226.507C40.7653 223.89 41.5359 221.25 41.7463 218.532C41.9567 215.814 41.5678 212.976 40.1526 210.643C37.5085 215.742 37.2408 221.699 39.9193 226.78L39.9988 226.507Z" fill="#FD9800"/>
<path d="M48.9006 222.023C51.9926 216.423 58.3008 211.949 64.684 211.322C62.2215 217.433 55.5063 222.154 48.9006 222.023Z" fill="#FD9800"/>
<path d="M46.9553 223.121C51.5665 223.821 55.4953 226.756 59.8047 228.535C60.7262 228.915 61.7204 229.219 62.7095 229.089C63.6986 228.96 64.6745 228.299 64.8962 227.33C65.0803 226.525 64.7128 225.67 64.1332 225.081C63.5535 224.491 62.788 224.122 62.0232 223.805C57.3295 221.858 52.2962 221.809 47.3521 222.99L46.9553 223.121Z" fill="#FD9800"/>
<path d="M44.2869 226.344C45.3308 226.642 45.6875 227.18 46.5141 227.882C49.3189 230.263 52.6827 231.985 56.258 232.87C56.6303 232.962 57.1185 232.999 57.3029 232.664C57.4641 232.371 57.2602 232.017 57.0509 231.756C55.5529 229.888 53.4164 228.611 51.1677 227.776C48.9191 226.941 46.9708 225.935 44.2869 226.151V226.344Z" fill="#FD9800"/>
<path d="M41.2755 206.877C45.0252 210.365 50.3069 212.156 55.4131 211.67C55.6455 211.648 55.8988 211.611 56.0567 211.44C56.4124 211.054 55.9857 210.459 55.571 210.137C51.4145 206.907 46.3798 205.568 41.2755 206.877Z" fill="#FD9800"/>
<path d="M44.8457 205.575C49.8023 201.871 56.5993 200.754 62.4869 202.674C60.2653 204.856 57.183 206.03 54.0804 206.352C50.978 206.674 47.8714 206.331 44.8457 205.575Z" fill="#FD9800"/>
<path d="M43.4269 196.629C43.0185 192.495 43.2835 189.231 42.9955 185.077C42.9725 184.745 42.9009 184.346 42.5894 184.226C42.1557 184.06 41.7941 184.591 41.6518 185.032C40.4165 188.862 41.0917 193.253 43.4207 196.538L43.4269 196.629Z" fill="#FD9800"/>
<path d="M43.1282 197.086C45.9402 195.353 48.0498 193.09 50.0006 190.43C51.3581 188.579 52.5025 186.361 52.1939 184.09C50.2877 184.052 48.4763 185.099 47.2365 186.543C45.9968 187.986 45.2598 189.791 44.7095 191.61C44.1591 193.429 43.774 195.298 43.1282 197.086Z" fill="#FD9800"/>
<path d="M49.8804 195.217C56.0514 192.942 61.8091 189.559 66.793 185.278C64.7727 184.467 62.4597 184.953 60.4399 185.765C55.8254 187.621 52.0552 190.755 49.792 195.172L49.8804 195.217Z" fill="#FD9800"/>
<path d="M45.0269 199.348C48.1488 199.688 51.3203 199.91 54.418 199.394C57.4626 198.887 60.3399 197.684 63.1851 196.49C63.4209 196.392 63.6775 196.273 63.7808 196.04C63.893 195.786 63.7733 195.478 63.5672 195.292C63.3613 195.106 63.0871 195.018 62.8196 194.943C59.7266 194.081 56.3884 194.484 53.3452 195.507C50.3017 196.53 47.8067 197.745 45.0269 199.348Z" fill="#FD9800"/>
<path d="M27.1995 207.018C25.0693 202.733 25.2077 197.733 27.0477 193.317C28.3431 195.283 28.5013 197.788 28.2643 200.129C28.0275 202.47 27.3126 204.879 27.2662 207.231L27.1995 207.018Z" fill="#FD9800"/>
<path d="M18.6901 202.741C13.372 202.64 8.05191 204.898 4.44075 208.79C7.09507 209.206 9.82886 208.524 12.2433 207.349C14.6578 206.174 16.8032 204.526 18.9298 202.889L18.6901 202.741Z" fill="#FD9800"/>
<path d="M12.969 200.834C10.3674 200.624 7.86385 200.303 5.36249 201.067C2.86097 201.831 0.584248 203.565 -0.435333 205.966C1.99799 206.24 4.46558 205.631 6.69611 204.624C8.92648 203.617 10.9546 202.222 12.969 200.834Z" fill="#FD9800"/>
<path d="M21.4396 200.922C19.0991 199.393 16.6958 197.837 13.9706 197.204C11.2452 196.571 8.08718 197.039 6.1869 199.085C8.39294 200.376 11.0694 200.528 13.6273 200.526C16.1851 200.524 19.3206 200.495 21.7319 201.346L21.4396 200.922Z" fill="#FD9800"/>
<path d="M21.4535 201.045C17.4521 197.129 15.9354 190.095 17.5452 184.741C20.6905 189.504 22.0989 195.38 21.4535 201.045Z" fill="#FD9800"/>
<path d="M32.4561 189.95C33.2107 188.202 33.7416 186.367 34.4185 184.587C35.0956 182.808 35.937 181.056 37.2163 179.643C38.4957 178.23 40.2647 177.178 42.1719 177.084C40.978 182.472 37.387 187.286 32.5541 189.978L32.4561 189.95Z" fill="#FD9800"/>
<path d="M30.4652 192.262C29.2163 190.549 27.7734 188.224 26.0801 186.945C24.3866 185.667 22.1814 184.893 20.1147 185.384C22.2165 189.128 26.1884 191.768 30.4652 192.262Z" fill="#FD9800"/>
<path d="M30.8633 190.093C30.0449 188.02 29.2204 185.925 28.8894 183.722C28.5584 181.519 28.7597 179.166 29.8901 177.244C32.0865 181.382 32.794 185.824 30.9754 190.14L30.8633 190.093Z" fill="#FD9800"/>
<path d="M32.4763 177.244C33.7204 173.143 37.4893 170.123 41.5581 168.737C42.0711 168.562 42.6146 168.416 43.1504 168.499C43.6863 168.581 44.2116 168.946 44.324 169.475C44.4724 170.173 43.894 170.798 43.3501 171.262C40.1816 173.962 36.4572 176.011 32.4763 177.244Z" fill="#FD9800"/>
<path d="M32.5212 173.89C32.6795 171.245 32.845 168.562 33.7081 166.056C34.5713 163.551 36.2348 161.2 38.6549 160.103C39.0666 162.774 37.884 165.432 36.458 167.73C35.0318 170.029 33.3128 172.198 32.4561 174.762L32.5212 173.89Z" fill="#FD9800"/>
<path d="M32.4561 175.71C31.428 172.721 31.3217 168.924 29.5254 166.32C28.2699 164.499 26.259 163.259 25.1774 161.331C24.4586 163.132 24.6786 165.207 25.4303 166.994C26.1819 168.782 27.424 170.32 28.7531 171.735C30.0823 173.15 31.2204 174.214 32.4561 175.71Z" fill="#FD9800"/>
<path d="M32.4764 263.744C32.3964 263.744 32.3272 243.802 32.3216 219.209C32.3161 194.606 32.3764 174.669 32.4562 174.669C32.5361 174.669 32.6053 194.606 32.6109 219.208C32.6164 243.802 32.5561 263.744 32.4764 263.744Z" fill="#FD9800"/>
<path d="M49.9629 204.009C49.9685 204.028 49.7003 204.127 49.2106 204.29C48.6701 204.472 47.9745 204.706 47.1402 204.987C45.3942 205.579 42.996 206.438 40.393 207.501C37.8158 208.602 35.3851 209.497 34.001 210.692C33.3095 211.282 32.9126 211.92 32.7166 212.386C32.5181 212.854 32.4826 213.14 32.4562 213.135C32.4464 213.134 32.4494 213.062 32.4648 212.926C32.4876 212.792 32.5224 212.591 32.6118 212.345C32.7805 211.853 33.1665 211.171 33.8653 210.54C34.5609 209.908 35.5291 209.34 36.6386 208.823C37.7481 208.307 38.9779 207.769 40.2834 207.234C42.8942 206.168 45.3111 205.337 47.0766 204.793C47.959 204.519 48.6789 204.317 49.178 204.183C49.6783 204.053 49.9574 203.99 49.9629 204.009Z" fill="#FD9800"/>
<path d="M55.6946 189.978C55.7013 189.986 55.6284 190.063 55.4839 190.203C55.3134 190.362 55.1012 190.561 54.8418 190.804C54.2453 191.343 53.4338 192.078 52.4447 192.974C50.3749 194.81 47.5679 197.301 44.4662 200.053C41.3518 202.816 38.6604 205.456 36.795 207.444C35.861 208.436 35.1257 209.258 34.6239 209.832C34.3897 210.099 34.198 210.317 34.044 210.492C33.9096 210.642 33.8353 210.717 33.8275 210.711C33.8197 210.705 33.879 210.617 33.9988 210.456C34.12 210.295 34.2963 210.057 34.5375 209.76C35.0138 209.163 35.7275 208.318 36.6447 207.305C38.4763 205.277 41.153 202.606 44.2736 199.838C47.3988 197.082 50.2428 194.606 52.3093 192.821C53.3236 191.954 54.1557 191.242 54.7673 190.719C55.0412 190.493 55.2654 190.308 55.4452 190.159C55.6023 190.033 55.688 189.971 55.6946 189.978Z" fill="#FD9800"/>
<path d="M41.1041 202.863C41.0225 202.826 41.6731 201.329 42.3214 199.436C42.9756 197.543 43.2835 195.945 43.3665 195.959C43.4419 195.966 43.2579 197.611 42.5954 199.528C42.2692 200.485 41.9095 201.327 41.6266 201.925C41.343 202.523 41.1396 202.878 41.1041 202.863Z" fill="#FD9800"/>
<path d="M32.4946 214.933C32.4785 214.944 32.3083 214.746 32.0145 214.377C31.6889 213.961 31.2768 213.435 30.7852 212.806C29.7523 211.476 28.3247 209.64 26.7245 207.63C25.1232 205.62 23.6526 203.818 22.5868 202.513C22.0845 201.893 21.6632 201.374 21.3305 200.963C21.037 200.595 20.8819 200.385 20.8969 200.372C20.9122 200.359 21.0962 200.544 21.4161 200.89C21.7366 201.237 22.1903 201.746 22.7434 202.382C23.8501 203.654 25.3477 205.438 26.951 207.451C28.5531 209.463 29.9569 211.321 30.9487 212.684C31.4447 213.365 31.8397 213.921 32.1052 214.311C32.3712 214.7 32.5106 214.921 32.4946 214.933Z" fill="#FD9800"/>
<path d="M28.6604 210.027C28.6132 210.078 27.5902 208.868 27.0541 207.03C26.6587 205.735 26.6411 204.551 26.69 204.009L26.8176 204.019C26.7605 204.25 26.7186 204.372 26.6957 204.368C26.6729 204.365 26.6717 204.236 26.6908 203.999L26.8184 204.009C26.8653 204.547 26.9469 205.69 27.3313 206.948C27.8489 208.729 28.7379 209.978 28.6604 210.027Z" fill="#FD9800"/>
<path d="M23.7105 203.822C23.6732 203.862 23.3441 203.448 22.5889 203.173C21.8399 202.884 20.7125 202.82 19.4752 202.926C18.2371 203.017 17.1311 203.236 16.3398 203.43C15.5482 203.626 15.0645 203.779 15.0496 203.739C15.0364 203.705 15.4971 203.483 16.2849 203.234C17.0715 202.987 18.1926 202.731 19.4535 202.639C20.7046 202.531 21.8912 202.627 22.6656 202.984C23.4504 203.33 23.7363 203.815 23.7105 203.822Z" fill="#FD9800"/>
<path d="M22.5371 202.318C22.5149 202.363 21.8837 202.057 20.8188 201.695C19.756 201.33 18.2418 200.948 16.5322 200.815C14.8215 200.688 13.2665 200.837 12.1604 201.037C11.0525 201.234 10.3823 201.441 10.3674 201.394C10.3611 201.375 10.523 201.307 10.8229 201.2C11.1212 201.089 11.5649 200.962 12.1203 200.837C13.2299 200.583 14.8125 200.398 16.5541 200.528C18.2946 200.663 19.8307 201.085 20.8888 201.503C21.4189 201.711 21.8382 201.903 22.1161 202.058C22.3962 202.209 22.5461 202.3 22.5371 202.318Z" fill="#FD9800"/>
<path d="M32.4562 195.959C32.3788 195.978 31.8177 194.036 31.2032 191.621C30.5885 189.205 30.1529 187.232 30.2304 187.212C30.3079 187.193 30.8688 189.135 31.4834 191.55C32.0981 193.965 32.5336 195.939 32.4562 195.959Z" fill="#FD9800"/>
<path d="M32.5359 195.959C32.4499 195.987 32.089 194.689 31.1472 193.362C30.2304 192.007 29.0602 191.326 29.1031 191.26C29.1181 191.229 29.4413 191.347 29.8919 191.665C30.3438 191.978 30.9024 192.509 31.3838 193.196C32.3616 194.577 32.606 195.954 32.5359 195.959Z" fill="#FD9800"/>
<path d="M32.4763 253.114C32.4451 253.118 32.3863 252.634 32.1607 251.787C31.9378 250.941 31.518 249.74 30.8236 248.335C29.4411 245.519 26.9255 241.95 23.7289 238.374C22.1449 236.57 20.6082 234.869 19.3039 233.24C17.9974 231.613 16.9237 230.063 16.1397 228.692C15.3532 227.322 14.8412 226.146 14.5424 225.317C14.3954 224.901 14.2878 224.576 14.2287 224.352C14.1653 224.128 14.1368 224.01 14.1462 224.007C14.1722 223.999 14.3177 224.464 14.6473 225.277C14.9768 226.089 15.5133 227.243 16.3162 228.589C17.1169 229.937 18.1999 231.464 19.5113 233.073C20.8208 234.685 22.36 236.378 23.9467 238.184C27.1516 241.769 29.6614 245.384 31.0078 248.246C31.6847 249.675 32.079 250.898 32.2699 251.76C32.3628 252.192 32.425 252.529 32.447 252.761C32.476 252.991 32.4861 253.112 32.4763 253.114Z" fill="#FD9800"/>
<path d="M48.2778 235.327C48.2872 235.348 47.9848 235.501 47.4498 235.79C46.9185 236.088 46.165 236.546 45.3015 237.205C44.438 237.864 43.4724 238.729 42.4806 239.769C41.4905 240.812 40.4706 242.022 39.4295 243.319C37.3483 245.922 35.4017 248.225 34.2361 250.063C33.6443 250.975 33.214 251.744 32.9323 252.283C32.6479 252.821 32.4974 253.123 32.4763 253.114C32.4671 253.11 32.4937 253.029 32.553 252.88C32.6147 252.731 32.6983 252.508 32.8313 252.233C33.0834 251.676 33.4891 250.887 34.0632 249.954C35.1951 248.072 37.1263 245.737 39.2039 243.139C40.247 241.839 41.2795 240.627 42.2883 239.586C43.2989 238.547 44.29 237.687 45.179 237.042C46.068 236.396 46.8463 235.96 47.3974 235.691C47.6717 235.554 47.8957 235.469 48.0437 235.406C48.1935 235.345 48.2738 235.318 48.2778 235.327Z" fill="#FD9800"/>
<path d="M48.587 241.097C48.5907 241.139 47.9186 241.22 46.8366 241.35C45.7586 241.489 44.2574 241.669 42.6852 242.165C41.1187 242.674 39.8165 243.448 38.9683 244.109C38.1114 244.769 37.7075 245.315 37.6676 245.283C37.6537 245.273 37.7376 245.124 37.9269 244.882C38.1141 244.637 38.4207 244.311 38.839 243.952C39.6737 243.235 40.9884 242.413 42.5965 241.891C44.2072 241.383 45.7286 241.236 46.8162 241.148C47.908 241.069 48.5839 241.06 48.587 241.097Z" fill="#FD9800"/>
<path d="M38.1785 244.649C38.0873 244.598 38.8763 243.397 39.4879 241.782C40.0622 240.152 40.1966 238.723 40.2996 238.739C40.3368 238.744 40.3355 239.101 40.2705 239.675C40.2018 240.247 40.0639 241.042 39.7599 241.88C39.454 242.716 39.0529 243.415 38.7447 243.902C38.4326 244.388 38.2111 244.669 38.1785 244.649Z" fill="#FD9800"/>
<path d="M53.3954 219.836C53.3989 219.845 53.3024 219.896 53.1153 219.984C52.8981 220.082 52.626 220.206 52.2926 220.357C51.9323 220.511 51.495 220.706 51.0021 220.965C50.5077 221.219 49.9306 221.481 49.3298 221.841C49.0247 222.013 48.7061 222.194 48.3748 222.382C48.0437 222.572 47.7161 222.797 47.3676 223.014C46.6636 223.44 45.9585 223.964 45.2056 224.499C43.7328 225.613 42.184 226.932 40.6931 228.454C39.2163 229.992 37.9464 231.58 36.8795 233.085C36.3686 233.853 35.867 234.574 35.4642 235.29C35.2581 235.644 35.0434 235.978 34.8643 236.314C34.6875 236.651 34.5173 236.974 34.3543 237.284C34.0143 237.895 33.7714 238.478 33.5333 238.98C33.2905 239.479 33.1096 239.921 32.9675 240.286C32.8275 240.623 32.7132 240.898 32.622 241.118C32.5399 241.307 32.4922 241.405 32.4828 241.402C32.4734 241.398 32.5027 241.294 32.5671 241.098C32.6452 240.873 32.7429 240.591 32.8626 240.245C32.989 239.874 33.1554 239.423 33.385 238.915C33.6102 238.405 33.8414 237.813 34.1717 237.193C34.3303 236.878 34.496 236.55 34.6681 236.208C34.8431 235.867 35.0544 235.528 35.2573 235.169C35.654 234.443 36.1514 233.712 36.6601 232.935C37.7228 231.41 38.9966 229.804 40.485 228.254C41.9878 226.719 43.5545 225.396 45.0471 224.286C45.8097 223.752 46.525 223.232 47.2393 222.812C47.593 222.598 47.9257 222.376 48.2617 222.19C48.5983 222.007 48.9219 221.83 49.2318 221.662C49.8424 221.312 50.429 221.061 50.9326 220.819C51.4342 220.573 51.88 220.392 52.2484 220.253C52.591 220.122 52.8706 220.015 53.0938 219.93C53.2881 219.859 53.3918 219.826 53.3954 219.836Z" fill="#FD9800"/>
<path d="M40.8894 228.186C40.8641 228.182 41.0033 227.698 41.5771 227.165C42.137 226.634 43.1584 226.142 44.348 226.106C45.5334 226.075 46.5614 226.405 47.2635 226.674C47.9694 226.95 48.3798 227.174 48.3659 227.207C48.3495 227.247 47.9098 227.09 47.1963 226.866C46.4855 226.649 45.4806 226.364 44.3571 226.394C43.2377 226.428 42.2711 226.858 41.7105 227.32C41.1377 227.78 40.9358 228.214 40.8894 228.186Z" fill="#FD9800"/>
<path d="M39.0203 230.108C38.941 230.064 39.6462 229.033 39.8069 227.557C39.9917 226.083 39.5432 224.919 39.6306 224.894C39.6624 224.881 39.8197 225.152 39.9556 225.637C40.0923 226.12 40.1827 226.823 40.0942 227.59C40.0031 228.358 39.7528 229.021 39.5081 229.459C39.2638 229.9 39.0483 230.128 39.0203 230.108Z" fill="#FD9800"/>
<path d="M18.656 255.971C19.0872 263.592 21.3916 271.343 24.936 279.179H40.3496C43.7298 271.42 45.8749 263.682 46.2563 255.971H18.656Z" fill="#FD9800"/>
<path d="M43.7583 268.303C43.7583 268.383 38.6834 268.447 32.4245 268.447C26.1637 268.447 21.0898 268.383 21.0898 268.303C21.0898 268.223 26.1637 268.159 32.4245 268.159C38.6834 268.159 43.7583 268.223 43.7583 268.303Z" fill="#F9F9F9"/>
<path d="M43.414 271.064C43.414 271.143 38.6562 271.208 32.7889 271.208C26.9194 271.208 22.1628 271.143 22.1628 271.064C22.1628 270.984 26.9194 270.92 32.7889 270.92C38.6562 270.92 43.414 270.984 43.414 271.064Z" fill="#F9F9F9"/>
<path d="M25.1846 260.975C25.2646 260.975 25.3293 262.559 25.3293 264.513C25.3293 266.467 25.2646 268.051 25.1846 268.051C25.1049 268.051 25.0401 266.467 25.0401 264.513C25.0401 262.559 25.1049 260.975 25.1846 260.975Z" fill="#F9F9F9"/>
<path d="M33.4431 260.975C33.5231 260.975 33.5878 262.615 33.5878 264.639C33.5878 266.663 33.5231 268.303 33.4431 268.303C33.3632 268.303 33.2986 266.663 33.2986 264.639C33.2986 262.615 33.3632 260.975 33.4431 260.975Z" fill="#F9F9F9"/>
<path d="M41.1958 260.913C41.2758 260.913 41.3405 262.586 41.3405 264.65C41.3405 266.714 41.2758 268.387 41.1958 268.387C41.1161 268.387 41.0513 266.714 41.0513 264.65C41.0513 262.586 41.1161 260.913 41.1958 260.913Z" fill="#F9F9F9"/>
<path d="M45.767 260.975C45.767 261.054 39.8147 261.119 32.4739 261.119C25.1305 261.119 19.1794 261.054 19.1794 260.975C19.1794 260.895 25.1305 260.831 32.4739 260.831C39.8147 260.831 45.767 260.895 45.767 260.975Z" fill="#F9F9F9"/>
<path d="M66.0972 116.25H23.0854V71.5678H66.0972V116.25Z" fill="#FD9800"/>
<path d="M63.1844 116.25H20.1726V71.5677H63.1844V116.25Z" fill="#F9F9F9"/>
<path d="M63.1977 116.264H20.1594V71.5544H63.1977V116.264ZM20.1859 116.237H63.1711V71.581H20.1859V116.237Z" fill="#FD9800"/>
<path d="M57.4026 110.244H25.9546V77.5742H57.4026V110.244Z" fill="#F9F9F9"/>
<path d="M25.9546 110.461C25.9794 110.49 25.6808 110.832 25.1787 111.36C24.6764 111.888 23.9707 112.603 23.1796 113.38C22.3883 114.157 21.6612 114.848 21.125 115.339C20.5888 115.831 20.2434 116.121 20.2162 116.094C20.1892 116.067 20.4859 115.727 20.9881 115.199C21.4902 114.67 22.1979 113.954 22.9917 113.175C23.7848 112.396 24.5137 111.703 25.0499 111.212C25.5861 110.72 25.9299 110.432 25.9546 110.461Z" fill="#FD9800"/>
<path d="M57.4025 110.381C57.4319 110.356 57.7747 110.653 58.3048 111.154C58.8348 111.655 59.552 112.358 60.3313 113.146C61.1109 113.935 61.805 114.659 62.298 115.194C62.7907 115.728 63.0822 116.072 63.0549 116.1C63.0276 116.126 62.6864 115.831 62.1563 115.33C61.6264 114.83 60.9074 114.124 60.1257 113.334C59.3444 112.543 58.6486 111.817 58.1558 111.282C57.6628 110.748 57.3731 110.405 57.4025 110.381Z" fill="#FD9800"/>
<path d="M57.3165 77.6615C57.2916 77.6321 57.5903 77.2905 58.0924 76.7624C58.5948 76.234 59.3005 75.5193 60.0915 74.7427C60.8829 73.9659 61.6098 73.274 62.146 72.7828C62.6822 72.2919 63.0277 72.0013 63.0549 72.0286C63.082 72.0556 62.7852 72.3956 62.2829 72.9239C61.7808 73.452 61.0731 74.1686 60.2795 74.9475C59.4861 75.7263 58.7575 76.4197 58.2212 76.9109C57.685 77.402 57.3413 77.6909 57.3165 77.6615Z" fill="#FD9800"/>
<path d="M25.8685 77.7415C25.8392 77.7664 25.4962 77.4688 24.9663 76.9683C24.4362 76.4677 23.7189 75.7644 22.9399 74.976C22.1602 74.1876 21.4661 73.463 20.9732 72.9287C20.4804 72.3941 20.1889 72.0498 20.2164 72.0229C20.2435 71.9959 20.5847 72.2917 21.1148 72.7921C21.6447 73.2926 22.3638 73.9979 23.1453 74.7888C23.9267 75.5793 24.6226 76.3057 25.1153 76.8401C25.6081 77.3743 25.898 77.7169 25.8685 77.7415Z" fill="#FD9800"/>
<path d="M57.3165 110.244C57.3142 110.241 57.3118 110.188 57.3095 110.085C57.308 109.973 57.3055 109.823 57.3027 109.629C57.2994 109.219 57.2948 108.63 57.2885 107.865C57.2812 106.318 57.2703 104.066 57.2567 101.207C57.2418 95.4854 57.2206 87.3342 57.1951 77.5744L57.3163 77.6952C48.1616 77.7004 37.4104 77.7065 25.9576 77.7131H25.9548L26.094 77.5744C26.0867 89.5652 26.0799 100.783 26.0743 110.244L25.9548 110.125C35.3523 110.15 43.1769 110.171 48.6625 110.185C51.4034 110.199 53.5595 110.209 55.0409 110.216C55.7729 110.223 56.3363 110.227 56.7286 110.23C56.9142 110.233 57.0576 110.235 57.1647 110.237C57.2632 110.239 57.3143 110.241 57.3165 110.244C57.3188 110.246 57.2721 110.248 57.1779 110.25C57.0741 110.252 56.9349 110.254 56.7546 110.257C56.3677 110.26 55.812 110.265 55.0901 110.271C53.6148 110.278 51.4678 110.289 48.7387 110.302C43.2345 110.317 35.3838 110.338 25.9548 110.363L25.8351 110.363V110.244C25.8295 100.783 25.8227 89.5652 25.8154 77.5744L25.8152 77.4355H25.9548H25.9576C37.4104 77.4421 48.1616 77.4482 57.3163 77.4535H57.4381L57.4376 77.5744C57.4123 87.3662 57.3911 95.544 57.3762 101.284C57.3625 104.132 57.3517 106.374 57.3443 107.915C57.3382 108.67 57.3334 109.252 57.3302 109.656C57.3272 109.845 57.3251 109.99 57.3233 110.099C57.3209 110.197 57.3188 110.246 57.3165 110.244Z" fill="#FD9800"/>
<path d="M46.9253 99.1378H36.4317V88.6801H46.9253V99.1378Z" fill="#EBEBEB"/>
<path d="M105.503 66.0846H69.6612V28.8499H105.503V66.0846Z" fill="#FD9800"/>
<path d="M103.076 66.0846H67.2338V28.8499H103.076V66.0846Z" fill="#F9F9F9"/>
<path d="M103.087 66.0958H67.2227V28.8389H103.087V66.0958ZM67.2449 66.0736H103.065V28.8611H67.2449V66.0736Z" fill="#FD9800"/>
<path d="M98.258 61.0792H72.0521V33.8553H98.258V61.0792Z" fill="#F9F9F9"/>
<path d="M72.0521 61.2602C72.0728 61.2846 71.8239 61.5694 71.4054 62.0095C70.9869 62.4497 70.3989 63.0454 69.7395 63.6926C69.0801 64.34 68.4744 64.9162 68.0274 65.3257C67.5806 65.735 67.2928 65.9769 67.2703 65.9543C67.2476 65.9317 67.4949 65.6484 67.9134 65.2083C68.3319 64.7681 68.9215 64.1709 69.5831 63.5219C70.2441 62.8729 70.8513 62.2951 71.2981 61.8858C71.7451 61.4765 72.0314 61.236 72.0521 61.2602Z" fill="#FD9800"/>
<path d="M98.258 61.1934C98.2827 61.1728 98.5682 61.4209 99.0099 61.838C99.4516 62.2549 100.049 62.841 100.699 63.4981C101.348 64.1552 101.927 64.7589 102.337 65.2043C102.748 65.6496 102.991 65.9365 102.968 65.9589C102.946 65.9815 102.661 65.735 102.219 65.318C101.778 64.9009 101.179 64.3133 100.527 63.6542C99.8762 62.9953 99.2964 62.3901 98.8857 61.9447C98.475 61.4994 98.2335 61.214 98.258 61.1934Z" fill="#FD9800"/>
<path d="M98.1863 33.9281C98.1656 33.9036 98.4146 33.6189 98.8329 33.1787C99.2516 32.7384 99.8398 32.143 100.499 31.4958C101.158 30.8484 101.764 30.2719 102.211 29.8625C102.658 29.4534 102.946 29.2114 102.968 29.234C102.991 29.2566 102.744 29.5399 102.325 29.98C101.907 30.4202 101.317 31.0174 100.656 31.6664C99.9944 32.3154 99.3872 32.8932 98.9404 33.3025C98.4934 33.7118 98.207 33.9525 98.1863 33.9281Z" fill="#FD9800"/>
<path d="M71.9803 33.9947C71.9558 34.0155 71.6702 33.7674 71.2286 33.3505C70.7867 32.9333 70.1891 32.3473 69.5399 31.6902C68.8903 31.0332 68.3117 30.4294 67.901 29.9841C67.4904 29.5387 67.2474 29.2518 67.2703 29.2294C67.2929 29.2069 67.5772 29.4532 68.019 29.8703C68.4607 30.2874 69.0598 30.875 69.711 31.5343C70.3623 32.193 70.942 32.7983 71.3527 33.2436C71.7634 33.6887 72.005 33.9743 71.9803 33.9947Z" fill="#FD9800"/>
<path d="M98.1863 61.0794C98.1845 61.0774 98.1825 61.0329 98.1807 60.9471C98.1792 60.8542 98.1774 60.7291 98.1749 60.5671C98.1721 60.2258 98.1683 59.7348 98.1631 59.0974C98.157 57.8077 98.1479 55.9315 98.1367 53.549C98.1241 48.7809 98.1065 41.9885 98.0853 33.8555L98.1863 33.9561C90.5576 33.9606 81.5982 33.9657 72.0546 33.9711H72.0521L72.1682 33.8555C72.1621 43.8476 72.1564 53.1955 72.1518 61.0792L72.0521 60.9799C79.8833 61.001 86.4036 61.0185 90.9749 61.0309C93.2589 61.0419 95.0556 61.0507 96.2902 61.0566C96.9002 61.0617 97.3695 61.0655 97.6965 61.0682C97.8511 61.0705 97.9706 61.0723 98.0598 61.0738C98.142 61.0756 98.1845 61.0774 98.1863 61.0794C98.1883 61.081 98.1494 61.083 98.0709 61.0848C97.9844 61.0862 97.8683 61.0881 97.7182 61.0904C97.3958 61.0931 96.9327 61.0969 96.3311 61.1018C95.1017 61.1079 93.3127 61.1167 91.0383 61.1277C86.4516 61.1401 79.9097 61.1576 72.0521 61.1785L71.9525 61.1789V61.0792C71.9477 53.1955 71.9421 43.8476 71.9361 33.8555L71.9359 33.7397H72.0521H72.0546C81.5982 33.7451 90.5576 33.7502 98.1863 33.7547H98.2878L98.2875 33.8555C98.2663 42.0152 98.2486 48.8299 98.2361 53.6134C98.2247 55.9862 98.2158 57.8548 98.2097 59.1391C98.2045 59.7682 98.2006 60.2525 98.1977 60.5893C98.1954 60.7466 98.1936 60.8681 98.1921 60.9583C98.1901 61.0405 98.1883 61.0812 98.1863 61.0794Z" fill="#FD9800"/>
<path d="M89.5272 51.8245H80.7829V43.11H89.5272V51.8245Z" fill="#EBEBEB"/>
<path d="M256.046 162.598C256.046 165.4 253.766 167.672 250.954 167.672C248.142 167.672 245.863 165.4 245.863 162.598C245.863 159.796 248.142 157.524 250.954 157.524C253.766 157.524 256.046 159.796 256.046 162.598Z" fill="#FD9800"/>
<path d="M241.26 162.598C241.26 165.583 238.832 168.003 235.836 168.003C232.841 168.003 230.413 165.583 230.413 162.598C230.413 159.613 232.841 157.193 235.836 157.193C238.832 157.193 241.26 159.613 241.26 162.598Z" fill="#FD9800"/>
<path d="M229.973 153.035C229.973 156.204 227.395 158.773 224.216 158.773C221.036 158.773 218.459 156.204 218.459 153.035C218.459 149.867 221.036 147.298 224.216 147.298C227.395 147.298 229.973 149.867 229.973 153.035Z" fill="#FD9800"/>
<path d="M227.87 138.333C227.87 141.642 225.178 144.325 221.857 144.325C218.536 144.325 215.844 141.642 215.844 138.333C215.844 135.023 218.536 132.341 221.857 132.341C225.178 132.341 227.87 135.023 227.87 138.333Z" fill="#FD9800"/>
<path d="M235.435 125.462C235.435 128.882 232.653 131.655 229.221 131.655C225.789 131.655 223.006 128.882 223.006 125.462C223.006 122.042 225.789 119.269 229.221 119.269C232.653 119.269 235.435 122.042 235.435 125.462Z" fill="#FD9800"/>
<path d="M250.145 120.377C250.145 124.104 247.113 127.126 243.373 127.126C239.632 127.126 236.6 124.104 236.6 120.377C236.6 116.649 239.632 113.627 243.373 113.627C247.113 113.627 250.145 116.649 250.145 120.377Z" fill="#FD9800"/>
<path d="M267.105 152.916C267.105 155.623 264.903 157.817 262.187 157.817C259.472 157.817 257.27 155.623 257.27 152.916C257.27 150.21 259.472 148.015 262.187 148.015C264.903 148.015 267.105 150.21 267.105 152.916Z" fill="#FD9800"/>
<path d="M269.383 138.168C269.383 140.681 267.34 142.717 264.819 142.717C262.298 142.717 260.255 140.681 260.255 138.168C260.255 135.656 262.298 133.62 264.819 133.62C267.34 133.62 269.383 135.656 269.383 138.168Z" fill="#FD9800"/>
<path d="M261.398 125.292C261.398 127.587 259.531 129.447 257.228 129.447C254.926 129.447 253.059 127.587 253.059 125.292C253.059 122.997 254.926 121.137 257.228 121.137C259.531 121.137 261.398 122.997 261.398 125.292Z" fill="#FD9800"/>
<path d="M216.822 77.8072C216.822 77.8072 216.831 77.7372 216.858 77.6033C216.888 77.4601 216.93 77.2629 216.984 77.0099C217.101 76.4786 217.271 75.7131 217.489 74.7315C217.941 72.7447 218.59 69.8858 219.392 66.354C221.023 59.2716 223.275 49.4926 225.77 38.6596L225.883 38.1708L225.994 38.6601C226.038 38.8544 226.086 39.0648 226.134 39.2756C228.616 50.2606 230.862 60.2035 232.49 67.412C233.291 71.007 233.94 73.9195 234.391 75.9443C234.609 76.9445 234.778 77.7252 234.896 78.2665C234.95 78.5248 234.992 78.7259 235.022 78.8718C235.049 79.0084 235.057 79.0796 235.057 79.0796C235.057 79.0796 235.034 79.0118 234.999 78.8769C234.964 78.7322 234.914 78.5329 234.851 78.2767C234.724 77.7376 234.54 76.9602 234.304 75.9639C233.836 73.9429 233.163 71.0361 232.332 67.4478C230.687 60.243 228.417 50.3053 225.91 39.3261C225.862 39.1153 225.814 38.9047 225.77 38.7106L225.994 38.7111C223.473 49.5381 221.197 59.3117 219.549 66.3901C218.717 69.915 218.044 72.7683 217.576 74.7515C217.34 75.7288 217.156 76.4912 217.028 77.0201C216.965 77.2712 216.916 77.4665 216.88 77.6086C216.846 77.7407 216.822 77.8072 216.822 77.8072Z" fill="#263138"/>
<path d="M216.818 86.0322V79.0796H235.431V86.0322C235.431 90.5024 231.795 94.1263 227.309 94.1263H224.94C220.454 94.1263 216.818 90.5024 216.818 86.0322Z" fill="#445964"/>
<path d="M216.818 79.0796C216.824 79.0755 216.897 79.1762 217.029 79.3717C217.17 79.5861 217.359 79.8727 217.596 80.2327C218.094 81.0052 218.791 82.09 219.648 83.422C221.372 86.1438 223.734 89.8717 226.342 93.9902C226.359 94.016 226.375 94.0417 226.39 94.0654L226.195 94.0671C228.727 89.9227 231.016 86.1759 232.687 83.4415C233.518 82.1032 234.194 81.0138 234.676 80.2378C234.905 79.8763 235.089 79.5884 235.226 79.373C235.354 79.1766 235.424 79.0757 235.431 79.0796C235.438 79.0838 235.38 79.1928 235.265 79.3969C235.137 79.6178 234.966 79.9129 234.752 80.2838C234.285 81.0688 233.63 82.171 232.826 83.5249C231.17 86.2683 228.901 90.0276 226.391 94.1854L226.295 94.3448L226.195 94.187C226.181 94.1633 226.164 94.1375 226.148 94.1118C223.561 89.9795 221.22 86.239 219.51 83.5079C218.679 82.1598 218.003 81.062 217.521 80.28C217.299 79.9105 217.122 79.6161 216.99 79.3961C216.87 79.1928 216.811 79.0838 216.818 79.0796Z" fill="#263138"/>
<path d="M227.972 38.5984C227.972 39.7169 227.062 40.6238 225.94 40.6238C224.817 40.6238 223.907 39.7169 223.907 38.5984C223.907 37.4797 224.817 36.5728 225.94 36.5728C227.062 36.5728 227.972 37.4797 227.972 38.5984Z" fill="#263138"/>
<path d="M225.94 4.12292C226.003 4.12292 226.055 11.9261 226.055 21.5495C226.055 31.1764 226.003 38.978 225.94 38.978C225.877 38.978 225.825 31.1764 225.825 21.5495C225.825 11.9261 225.877 4.12292 225.94 4.12292Z" fill="#263138"/>
<path d="M226.994 94.8816C226.994 95.3605 226.605 95.7489 226.124 95.7489C225.644 95.7489 225.254 95.3605 225.254 94.8816C225.254 94.4027 225.644 94.0145 226.124 94.0145C226.605 94.0145 226.994 94.4027 226.994 94.8816Z" fill="#263138"/>
<path d="M225.739 95.2056C225.786 95.1825 225.832 95.1594 225.879 95.1363C225.371 95.4212 225.079 95.9955 225 96.5709C224.921 97.1464 225.027 97.7299 225.149 98.2979C225.188 98.4787 225.283 98.7033 225.468 98.692C225.635 98.6818 225.714 98.4843 225.742 98.3202C225.801 97.977 225.81 97.6255 225.769 97.2797C225.746 97.7197 225.893 98.1658 226.172 98.5073C226.227 98.5739 226.305 98.6427 226.388 98.6204C226.467 98.5995 226.502 98.5091 226.523 98.4302C226.6 98.1394 226.644 97.8399 226.654 97.5393C226.699 97.7975 226.752 98.0712 226.931 98.2636C227.11 98.456 227.46 98.5127 227.624 98.3076C227.734 98.1706 227.723 97.9756 227.698 97.802C227.553 96.7679 227.129 95.7743 226.481 94.9532L225.739 95.2056Z" fill="#263138"/>
<path d="M217.989 79.0797C217.989 79.0797 209.627 69.4731 210.556 69.1258C211.485 68.7785 218.918 74.1028 218.918 74.1028C218.918 74.1028 212.531 59.8663 213.808 58.8247C215.086 57.783 221.822 71.4406 221.822 71.4406C221.822 71.4406 220.777 51.5329 221.822 51.3014C222.867 51.0698 226.7 71.2091 226.7 71.2091C226.7 71.2091 232.391 52.806 234.017 52.806C235.643 52.806 232.275 70.5147 232.275 70.5147C232.275 70.5147 239.011 59.1719 240.056 60.6765C241.101 62.1811 235.294 74.4499 235.294 74.4499C235.294 74.4499 243.772 67.3896 244.121 68.3156C244.469 69.2415 234.946 79.0797 234.946 79.0797H217.989Z" fill="#3E71F3"/>
<path d="M216.822 64.6117C216.88 64.5858 218.364 67.7548 220.135 71.689C221.907 75.6245 223.297 78.8348 223.239 78.8607C223.181 78.8866 221.698 75.7183 219.926 71.7827C218.154 67.8485 216.765 64.6376 216.822 64.6117Z" fill="#263138"/>
<path d="M223.578 66.3822C223.641 66.3779 223.888 69.171 224.128 72.6202C224.369 76.0705 224.513 78.8701 224.45 78.8746C224.387 78.879 224.14 76.0865 223.899 72.636C223.658 69.187 223.515 66.3867 223.578 66.3822Z" fill="#263138"/>
<path d="M232.896 57.4666C232.904 57.4691 232.886 57.5468 232.847 57.6923C232.798 57.862 232.737 58.0711 232.663 58.3251C232.488 58.9053 232.252 59.6896 231.964 60.6444C231.374 62.6025 230.582 65.314 229.774 68.3271C228.968 71.3416 228.299 74.0865 227.832 76.0771C227.604 77.0478 227.417 77.8453 227.279 78.4351C227.215 78.6919 227.164 78.9033 227.121 79.0749C227.083 79.2207 227.059 79.2964 227.051 79.2948C227.044 79.2933 227.052 79.2144 227.076 79.0655C227.107 78.8916 227.145 78.6771 227.191 78.4166C227.295 77.8539 227.459 77.0422 227.673 76.0416C228.101 74.0404 228.745 71.2862 229.552 68.2681C230.361 65.2515 231.179 62.5439 231.809 60.5963C232.123 59.6225 232.387 58.8372 232.578 58.2977C232.668 58.0488 232.743 57.844 232.803 57.6779C232.857 57.537 232.888 57.4641 232.896 57.4666Z" fill="#263138"/>
<path d="M236.925 67.7283C236.977 67.7644 235.345 70.1897 233.28 73.145C231.214 76.101 229.498 78.4674 229.446 78.4313C229.394 78.3952 231.026 75.9703 233.092 73.0141C235.157 70.0591 236.873 67.6921 236.925 67.7283Z" fill="#263138"/>
<path d="M220.811 78.8759C220.792 78.8992 220.508 78.7055 220.08 78.3552C219.651 78.0055 219.08 77.4947 218.489 76.8911C217.898 76.2866 217.4 75.7051 217.06 75.2689C216.719 74.8327 216.532 74.5454 216.556 74.5268C216.609 74.4852 217.478 75.5345 218.653 76.7314C219.823 77.9316 220.854 78.8241 220.811 78.8759Z" fill="#263138"/>
<path d="M225.89 75.0595C225.953 75.0537 226.086 75.941 226.187 77.0409C226.287 78.1413 226.318 79.0376 226.255 79.0432C226.192 79.049 226.059 78.1619 225.958 77.0617C225.858 75.9618 225.827 75.0653 225.89 75.0595Z" fill="#263138"/>
<path d="M235.431 83.4121C235.433 83.4276 235.177 83.4797 234.712 83.5606C234.246 83.6424 233.571 83.7473 232.734 83.8628C231.061 84.0933 228.737 84.3567 226.156 84.4457C223.575 84.5319 221.234 84.3907 219.556 84.171C218.717 84.0629 218.041 83.953 217.579 83.8542C217.116 83.7599 216.861 83.7003 216.864 83.6848C216.867 83.6693 217.127 83.6991 217.594 83.7665C218.06 83.8381 218.737 83.9232 219.575 84.0103C221.25 84.188 223.578 84.303 226.149 84.217C228.718 84.1286 231.038 83.8915 232.714 83.7023C233.522 83.6087 234.191 83.5312 234.699 83.4725C235.168 83.4187 235.429 83.3964 235.431 83.4121Z" fill="white"/>
<path d="M235.431 85.4817C235.433 85.4974 235.177 85.5495 234.712 85.6304C234.246 85.7122 233.571 85.8171 232.734 85.9326C231.061 86.1631 228.737 86.4265 226.156 86.5155C223.575 86.6017 221.234 86.4605 219.556 86.2408C218.717 86.1327 218.041 86.0227 217.579 85.924C217.116 85.8295 216.861 85.7701 216.864 85.7544C216.867 85.7391 217.127 85.7689 217.594 85.8363C218.06 85.9079 218.737 85.993 219.575 86.0801C221.25 86.2578 223.578 86.3728 226.149 86.2868C228.718 86.1982 231.038 85.9611 232.714 85.7721C233.522 85.6785 234.191 85.601 234.699 85.5423C235.168 85.4885 235.429 85.4662 235.431 85.4817Z" fill="white"/>
<path d="M98.5651 103.797L96.5049 108.657C96.5049 108.657 97.4672 110.97 97.5659 112.097C97.6642 113.225 96.7479 118.002 96.7479 118.002C96.7479 118.002 95.7449 118.064 95.504 117.089C95.3961 116.651 95.6888 114.288 95.6888 114.288C95.1454 113.583 94.0484 113.693 93.6574 114.492C93.0826 115.666 92.4065 117.029 92.289 117.188C92.1582 117.365 92.3746 119.118 92.5575 120.423C92.6673 121.205 91.6414 121.703 91.1631 121.073C91.1136 121.008 91.0827 120.94 91.0767 120.869C91.0767 120.869 90.3098 121.987 89.5589 119.935C89.5589 119.935 88.036 119.163 88.0041 117.909C88.0041 117.909 86.6193 116.36 86.4331 115.432C86.247 114.504 89.4176 108.916 89.4176 108.916L93.318 100.882L98.5651 103.797Z" fill="#FFBD9C"/>
<path d="M91.7693 113.797C91.7382 113.777 91.4664 114.103 91.0843 114.677C90.7167 115.25 90.2023 116.103 90.0816 117.191C89.9795 118.284 90.3455 119.221 90.612 119.845C90.8931 120.475 91.1097 120.839 91.1433 120.825C91.1827 120.808 91.0305 120.41 90.8018 119.77C90.5851 119.135 90.272 118.227 90.3685 117.22C90.4778 116.214 90.9388 115.373 91.2588 114.782C91.5917 114.189 91.8053 113.82 91.7693 113.797Z" fill="#EB996E"/>
<path d="M90.2224 113.457C90.196 113.429 89.8924 113.693 89.5531 114.228C89.3824 114.494 89.1983 114.822 89.0284 115.206C88.8705 115.591 88.6856 116.03 88.6873 116.549C88.6967 117.05 88.8113 117.497 88.9111 117.899C89.0084 118.264 89.1018 118.616 89.1923 118.955C89.3585 119.556 89.4807 119.923 89.5196 119.914C89.5582 119.905 89.5062 119.522 89.3908 118.909C89.3335 118.605 89.2602 118.238 89.1695 117.837C89.0844 117.438 88.9831 116.998 88.9756 116.547C88.9705 116.108 89.1332 115.683 89.2738 115.308C89.4244 114.932 89.585 114.602 89.729 114.331C90.0149 113.784 90.2521 113.486 90.2224 113.457Z" fill="#EB996E"/>
<path d="M88.4068 113.21C88.3027 113.157 87.8296 114.191 87.3437 115.467C87.2527 115.672 87.2841 115.863 87.2922 116.028C87.3083 116.197 87.3356 116.355 87.3689 116.504C87.4343 116.803 87.5194 117.064 87.6074 117.277C87.7829 117.706 87.9738 117.929 88.0041 117.909C88.0402 117.886 87.9195 117.637 87.8001 117.211C87.7397 116.998 87.6781 116.741 87.6296 116.454C87.6049 116.311 87.5848 116.159 87.5738 116.005C87.5677 115.851 87.5513 115.689 87.6106 115.576C87.8644 114.928 88.0627 114.343 88.2067 113.915C88.3463 113.484 88.4325 113.228 88.4068 113.21Z" fill="#EB996E"/>
<path d="M180.54 91.893C181.219 91.2024 181.897 90.5117 182.576 89.8211C182.729 89.6645 182.899 89.4996 183.116 89.4638C183.497 89.4011 183.832 89.7934 183.849 90.1779C183.866 90.5623 183.662 90.9193 183.449 91.2404C183.235 91.5611 183 91.8868 182.94 92.267L180.54 91.893Z" fill="#FFBD9C"/>
<path d="M200.33 74.5689L189.565 93.1835L169.434 93.3277C169.388 92.3672 170.111 91.5418 171.072 91.4572L188.683 91.1013L197.839 75.4606C198.478 74.3618 199.135 74.1267 200.33 74.5689Z" fill="#263138"/>
<path d="M182.273 93.2305C182.372 93.2066 175.913 93.2277 176.278 93.3277C176.309 93.3978 176.34 93.4679 176.371 93.538L177.209 97.2168C178.662 97.2048 182.852 96.1156 182.852 96.1156C182.852 96.1156 184.262 95.285 184.879 94.5469L184.881 93.2214L182.273 93.2305Z" fill="#FFBD9C"/>
<path d="M176.581 93.2465L161.269 92.6148L154.191 75.9779L146.665 86.7063L152.724 97.5605C154.153 100.12 156.911 101.655 159.847 101.525L177.695 99.4882L176.581 93.2465Z" fill="#3E71F3"/>
<path d="M178.929 170.933L180.109 181.673C180.109 181.673 191.333 183.308 191.745 185.272L171.058 189.076L168.53 172.417L178.929 170.933Z" fill="#3E71F3"/>
<path d="M173.542 181.71C173.155 181.879 172.943 182.37 173.095 182.762C173.248 183.154 173.748 183.374 174.138 183.212C174.528 183.051 174.8 182.468 174.604 182.096C174.409 181.723 173.807 181.498 173.468 181.747L173.542 181.71Z" fill="white" fill-opacity="0.6"/>
<path d="M171.058 189.076L170.804 187.397L190.907 184.417C190.907 184.417 191.623 184.586 191.877 185.403L171.058 189.076Z" fill="white" fill-opacity="0.6"/>
<path d="M180.431 181.518C180.442 181.62 179.941 181.74 179.488 182.138C179.025 182.525 178.832 183.001 178.733 182.974C178.636 182.968 178.699 182.341 179.255 181.868C179.807 181.39 180.439 181.422 180.431 181.518Z" fill="#263138"/>
<path d="M182.745 182.1C182.783 182.195 182.368 182.431 182.086 182.91C181.789 183.38 181.77 183.856 181.668 183.866C181.575 183.896 181.418 183.313 181.78 182.725C182.138 182.133 182.729 182.004 182.745 182.1Z" fill="#263138"/>
<path d="M184.367 184.524C184.278 184.558 184.062 184.073 184.242 183.48C184.417 182.886 184.865 182.598 184.92 182.676C184.989 182.751 184.724 183.093 184.584 183.582C184.433 184.068 184.466 184.499 184.367 184.524Z" fill="#263138"/>
<path d="M179.889 179.1C179.86 179.199 179.373 179.127 178.805 179.249C178.233 179.36 177.815 179.617 177.749 179.538C177.679 179.474 178.061 179.035 178.733 178.9C179.403 178.76 179.928 179.013 179.889 179.1Z" fill="#263138"/>
<path d="M179.16 173.06L179.373 174.974L169.13 176.37L168.821 174.364L179.16 173.06Z" fill="black" fill-opacity="0.301961"/>
<path d="M179.611 176.938C179.618 176.979 179.226 177.101 178.568 177.084C178.24 177.076 177.849 177.026 177.428 176.909C177.218 176.85 177.002 176.775 176.783 176.68C176.679 176.632 176.556 176.587 176.433 176.481C176.305 176.392 176.201 176.132 176.307 175.949C176.391 175.774 176.569 175.678 176.719 175.653C176.871 175.625 177 175.638 177.118 175.65C177.358 175.672 177.586 175.717 177.798 175.777C178.222 175.899 178.579 176.08 178.851 176.266C179.4 176.641 179.62 176.995 179.588 177.02C179.547 177.06 179.265 176.777 178.72 176.481C178.448 176.334 178.107 176.19 177.714 176.094C177.517 176.048 177.307 176.013 177.089 175.998C176.86 175.972 176.672 175.998 176.63 176.104C176.614 176.144 176.614 176.159 176.67 176.217C176.726 176.269 176.824 176.314 176.927 176.361C177.129 176.454 177.329 176.531 177.524 176.595C177.913 176.721 178.278 176.794 178.588 176.833C179.208 176.912 179.605 176.883 179.611 176.938Z" fill="#263138"/>
<path d="M179.5 177.102C179.466 177.123 179.211 176.79 179.078 176.139C179.013 175.816 178.989 175.417 179.054 174.981C179.087 174.764 179.143 174.538 179.227 174.312C179.319 174.089 179.427 173.793 179.815 173.691C180.02 173.653 180.214 173.788 180.293 173.917C180.382 174.047 180.413 174.165 180.455 174.282C180.529 174.519 180.559 174.757 180.559 174.982C180.558 175.433 180.43 175.826 180.271 176.119C179.943 176.716 179.536 176.899 179.523 176.866C179.481 176.82 179.807 176.573 180.042 176.011C180.159 175.734 180.246 175.379 180.229 174.987C180.221 174.792 180.189 174.589 180.122 174.39C180.057 174.174 179.948 174.008 179.869 174.043C179.765 174.056 179.613 174.248 179.554 174.436C179.474 174.637 179.417 174.84 179.378 175.037C179.303 175.43 179.298 175.798 179.328 176.102C179.389 176.716 179.553 177.079 179.5 177.102Z" fill="#263138"/>
<path d="M92.8393 176.927L82.7732 180.938C82.7732 180.938 84.2001 192.153 82.4122 193.075L73.1909 174.233L88.6177 167.341L92.8393 176.927Z" fill="#3E71F3"/>
<path d="M80.9769 174.643C80.7106 174.317 80.1782 174.245 79.8401 174.497C79.5023 174.749 79.4241 175.287 79.6849 175.618C79.9453 175.949 80.5818 176.055 80.8892 175.767C81.1969 175.479 81.2539 174.841 80.9213 174.583L80.9769 174.643Z" fill="white" fill-opacity="0.6"/>
<path d="M73.1909 174.233L74.7459 173.538L83.0136 192.042C83.0136 192.042 83.0422 192.775 82.3211 193.237L73.1909 174.233Z" fill="white" fill-opacity="0.6"/>
<path d="M83.009 181.206C82.9138 181.244 82.6635 180.795 82.1571 180.468C81.6591 180.127 81.1469 180.069 81.1459 179.966C81.1259 179.872 81.7493 179.764 82.3557 180.171C82.9651 180.573 83.1042 181.188 83.009 181.206Z" fill="#263138"/>
<path d="M83.0666 183.584C82.9851 183.646 82.6454 183.311 82.1071 183.168C81.573 183.009 81.1077 183.119 81.0705 183.024C81.0167 182.942 81.5381 182.635 82.2041 182.825C82.8716 183.01 83.1553 183.543 83.0666 183.584Z" fill="#263138"/>
<path d="M81.1582 185.791C81.1006 185.714 81.5121 185.377 82.1332 185.391C82.7545 185.4 83.1533 185.752 83.0926 185.827C83.0388 185.913 82.6367 185.751 82.1266 185.747C81.6167 185.732 81.2088 185.879 81.1582 185.791Z" fill="#263138"/>
<path d="M85.2013 180.038C85.0983 180.037 85.0372 179.55 84.7665 179.037C84.5061 178.518 84.1453 178.185 84.2042 178.101C84.2481 178.017 84.7742 178.265 85.0846 178.874C85.3996 179.481 85.2955 180.052 85.2013 180.038Z" fill="#263138"/>
<path d="M90.8446 177.719L89.0518 178.437L84.9577 168.976L86.5435 168.263L90.8446 177.719Z" fill="black" fill-opacity="0.301961"/>
<path d="M87.2171 179.192C87.1787 179.21 86.9565 178.865 86.7959 178.229C86.7167 177.913 86.6595 177.523 86.66 177.088C86.6605 176.871 86.6756 176.642 86.709 176.408C86.7269 176.294 86.7378 176.164 86.8069 176.018C86.8588 175.871 87.082 175.702 87.2876 175.755C87.479 175.788 87.6199 175.933 87.6844 176.07C87.7518 176.21 87.774 176.337 87.7943 176.452C87.8371 176.689 87.8548 176.92 87.8534 177.14C87.849 177.58 87.7693 177.971 87.6632 178.282C87.4472 178.909 87.1638 179.216 87.1313 179.192C87.0815 179.163 87.2795 178.817 87.4199 178.214C87.4896 177.913 87.5371 177.548 87.5242 177.144C87.5166 176.943 87.4937 176.732 87.4502 176.518C87.4136 176.291 87.3384 176.118 87.2247 176.106C87.1817 176.102 87.1669 176.105 87.1262 176.174C87.0906 176.243 87.0732 176.348 87.0552 176.46C87.0194 176.679 86.9989 176.892 86.9893 177.096C86.9713 177.503 86.9994 177.873 87.0441 178.181C87.1341 178.798 87.2686 179.171 87.2171 179.192Z" fill="#263138"/>
<path d="M87.0284 179.129C86.9991 179.102 87.2533 178.768 87.8466 178.466C88.1411 178.317 88.5207 178.187 88.9594 178.132C89.1786 178.106 89.412 178.099 89.6529 178.119C89.8928 178.148 90.2081 178.172 90.4109 178.517C90.5023 178.703 90.4237 178.927 90.3202 179.036C90.2184 179.157 90.1121 179.219 90.0108 179.291C89.8017 179.425 89.5794 179.518 89.362 179.577C88.926 179.697 88.5111 179.68 88.185 179.606C87.5204 179.451 87.2346 179.109 87.2631 179.088C87.2964 179.036 87.6225 179.282 88.2286 179.357C88.5275 179.395 88.8947 179.383 89.2688 179.262C89.4552 179.203 89.643 179.117 89.8176 178.999C90.0088 178.879 90.1397 178.73 90.085 178.663C90.0444 178.567 89.8184 178.473 89.6204 178.466C89.4044 178.444 89.1932 178.443 88.9927 178.459C88.5919 178.492 88.2357 178.586 87.9489 178.696C87.3725 178.919 87.0653 179.174 87.0284 179.129Z" fill="#263138"/>
<path d="M161.66 40.2524C160.081 39.2796 157.887 40.3423 156.216 39.5368C155.201 39.0478 154.618 37.9842 153.806 37.205C152.591 36.0398 150.612 35.3846 148.964 35.7393C147.317 36.094 146.173 36.6343 145.549 38.1952C144.426 37.0918 141.78 38.1736 140.606 39.5782C139.431 40.9828 139.184 42.6881 139.158 44.5163C139.113 47.6637 139.697 50.8188 140.864 53.7439C140.967 54.0029 141.16 54.3101 141.435 54.2596C141.626 54.2246 141.736 54.0296 141.815 53.8533C142.482 52.3498 142.704 50.6958 142.986 49.0762C143.267 47.4565 143.631 45.806 144.531 44.4285C145.431 43.0508 146.978 41.9847 148.625 42.0865C149.84 42.1617 150.942 42.8511 151.818 43.695C152.694 44.539 153.394 45.5445 154.2 46.4552C155.006 47.3659 155.959 48.2051 157.123 48.5644C158.287 48.9238 159.695 48.7014 160.477 47.7701C161.259 46.839 161.094 45.1819 160.006 44.6364C161.09 44.8167 162.255 44.1472 162.642 43.122C163.029 42.097 162.594 40.8282 161.66 40.2524Z" fill="#263138"/>
<path d="M149.106 66.3842L149.836 62.9438C149.836 62.9438 154.554 63.2625 155.639 58.7333C156.163 56.5462 156.874 51.9555 157.469 47.7927C158.109 43.3157 155.192 39.0999 150.766 38.1044L150.327 38.0055C145.522 37.2151 142.165 40.8398 141.505 45.6475L137.804 64.0661C137.181 67.1659 139.185 70.1856 142.292 70.8262L142.166 72.5646C145.277 73.2063 148.45 69.4823 149.106 66.3842Z" fill="#FFBD9C"/>
<path d="M149.842 62.942C149.842 62.942 146.909 62.5277 144.282 59.9229C144.282 59.9229 144.946 63.5075 149.586 64.1212L149.842 62.942Z" fill="#EB996E"/>
<path d="M155.788 51.0219C155.723 51.3671 155.376 51.5965 155.012 51.5352C154.65 51.4736 154.409 51.1447 154.474 50.7994C154.539 50.4542 154.887 50.2243 155.249 50.2856C155.612 50.347 155.854 50.6766 155.788 51.0219Z" fill="#263138"/>
<path d="M155.986 49.7925C155.886 49.8588 155.476 49.3844 154.775 49.2286C154.077 49.0632 153.482 49.3067 153.425 49.2041C153.396 49.1579 153.513 49.0236 153.774 48.9116C154.031 48.7994 154.442 48.7266 154.878 48.8266C155.314 48.9272 155.644 49.1697 155.818 49.3809C155.996 49.5941 156.035 49.7635 155.986 49.7925Z" fill="#263138"/>
<path d="M149.028 49.621C148.963 49.9662 148.616 50.1957 148.253 50.1342C147.89 50.0728 147.649 49.7439 147.714 49.3984C147.78 49.0533 148.127 48.8235 148.489 48.8847C148.853 48.946 149.094 49.2758 149.028 49.621Z" fill="#263138"/>
<path d="M149.073 48.3744C148.973 48.4407 148.561 47.9661 147.861 47.8105C147.163 47.6452 146.568 47.8885 146.511 47.7859C146.482 47.7397 146.598 47.6054 146.86 47.4936C147.117 47.3814 147.528 47.3086 147.964 47.4085C148.4 47.5091 148.73 47.7516 148.904 47.9628C149.082 48.1759 149.121 48.3454 149.073 48.3744Z" fill="#263138"/>
<path d="M150.442 54.1223C150.448 54.0818 150.9 54.1047 151.626 54.1735C151.809 54.1954 151.986 54.1981 152.044 54.0831C152.115 53.9638 152.084 53.7549 152.044 53.5279C151.974 53.0589 151.9 52.5673 151.823 52.0519C151.526 49.9544 151.354 48.246 151.438 48.2348C151.524 48.2238 151.833 49.9146 152.13 52.0121C152.199 52.5283 152.265 53.0206 152.327 53.4913C152.349 53.7091 152.414 53.9651 152.262 54.2118C152.183 54.334 152.03 54.4013 151.909 54.4063C151.786 54.4152 151.685 54.3945 151.595 54.38C150.877 54.2583 150.436 54.1624 150.442 54.1223Z" fill="#263138"/>
<path d="M148.272 54.1415C148.387 54.1604 148.217 54.9185 148.746 55.6025C149.273 56.288 150.103 56.3853 150.085 56.4926C150.085 56.5424 149.871 56.599 149.527 56.5313C149.189 56.4675 148.723 56.2497 148.399 55.8313C148.077 55.4123 148.006 54.9339 148.05 54.6173C148.093 54.2939 148.22 54.1253 148.272 54.1415Z" fill="#263138"/>
<path d="M149.952 44.8137C149.84 44.9879 149.161 44.7408 148.317 44.6547C147.475 44.5516 146.758 44.6423 146.687 44.4476C146.657 44.3552 146.813 44.2026 147.122 44.0792C147.43 43.9555 147.893 43.8763 148.398 43.9326C148.904 43.99 149.338 44.1695 149.61 44.358C149.884 44.5469 150.002 44.7302 149.952 44.8137Z" fill="#263138"/>
<path d="M156.186 47.7145C156.027 47.8453 155.582 47.5723 155.003 47.434C154.43 47.2756 153.908 47.2996 153.832 47.1084C153.801 47.0168 153.914 46.8752 154.163 46.7735C154.408 46.6715 154.79 46.6289 155.186 46.7306C155.582 46.8329 155.895 47.0541 156.06 47.262C156.228 47.471 156.258 47.6493 156.186 47.7145Z" fill="#263138"/>
<path d="M141.116 49.0944C141.045 49.0434 138.193 47.467 137.59 50.5946C136.986 53.7221 140.261 53.6809 140.284 53.5923C140.307 53.5037 141.116 49.0944 141.116 49.0944Z" fill="#FFBD9C"/>
<path d="M139.554 52.2236C139.542 52.2109 139.492 52.2512 139.391 52.2758C139.293 52.2995 139.133 52.2982 138.981 52.2058C138.673 52.021 138.495 51.443 138.589 50.8763C138.636 50.5902 138.748 50.3305 138.892 50.1256C139.032 49.9151 139.211 49.7838 139.384 49.7863C139.558 49.7798 139.657 49.9021 139.678 49.9974C139.703 50.0929 139.671 50.1515 139.687 50.1601C139.694 50.1697 139.764 50.1207 139.764 49.9865C139.763 49.922 139.74 49.8412 139.678 49.767C139.615 49.6914 139.51 49.6391 139.391 49.6294C139.146 49.5997 138.885 49.7798 138.727 50.0049C138.554 50.2284 138.422 50.5188 138.369 50.8401C138.268 51.4743 138.477 52.1261 138.906 52.3436C139.115 52.4434 139.312 52.4124 139.422 52.3568C139.534 52.298 139.564 52.2314 139.554 52.2236Z" fill="#EB996E"/>
<path d="M158.649 47.0574C156.52 47.1386 154.38 46.1249 153.098 44.4296C152.202 43.2435 151.652 41.7044 150.359 40.9658C149.488 40.4686 148.404 40.4362 147.44 40.715C146.477 40.9938 145.62 41.5582 144.849 42.1982C145.207 44.7043 144.032 47.148 142.89 49.4091C142.764 49.6591 142.62 49.9265 142.365 50.044C141.932 50.2436 141.431 49.8986 141.185 49.4914C140.792 48.8395 140.764 48.0365 140.798 47.2766C140.876 45.5457 141.224 43.8121 141.969 42.2467C142.714 40.6812 143.87 39.2886 145.361 38.3966C147.223 37.2819 149.542 37.0077 151.654 37.5168C153.766 38.0259 155.663 39.286 157.067 40.9391C157.718 41.706 158.279 42.5822 158.483 43.5662L158.649 47.0574Z" fill="#263138"/>
<path d="M162.72 41.641C162.72 41.641 162.717 41.7405 162.631 41.904C162.547 42.065 162.368 42.2894 162.051 42.4463C161.735 42.6058 161.287 42.6591 160.799 42.5715C160.555 42.5281 160.297 42.4625 160.037 42.3499C159.779 42.2361 159.515 42.0682 159.326 41.8047C159.142 41.5477 159.028 41.1907 159.135 40.8404C159.241 40.4839 159.602 40.2442 159.976 40.1967C160.165 40.1704 160.364 40.1853 160.553 40.2516C160.741 40.3179 160.912 40.4479 161.033 40.6114C161.285 40.9401 161.345 41.3903 161.252 41.8012C161.16 42.2194 160.875 42.5939 160.502 42.8302C160.129 43.0701 159.683 43.1941 159.229 43.2146C158.311 43.2571 157.398 42.88 156.632 42.3273C155.855 41.7755 155.227 41.0877 154.641 40.4262C154.053 39.7654 153.483 39.1303 152.852 38.6264C152.227 38.1193 151.529 37.7651 150.829 37.6258C150.128 37.4858 149.446 37.5381 148.856 37.6836C147.666 37.985 146.859 38.6307 146.365 39.0912C146.115 39.3256 145.938 39.5252 145.82 39.6618C145.701 39.7984 145.641 39.8722 145.636 39.8682C145.634 39.8666 145.646 39.8463 145.673 39.8078C145.7 39.77 145.739 39.7126 145.795 39.6417C145.906 39.498 146.077 39.2906 146.322 39.0471C146.808 38.5692 147.614 37.8985 148.829 37.5755C149.43 37.4198 150.129 37.3586 150.854 37.4975C151.58 37.6354 152.303 37.9985 152.943 38.5128C153.589 39.024 154.167 39.6641 154.757 40.3234C155.344 40.9833 155.964 41.6595 156.724 42.199C157.473 42.7391 158.35 43.0986 159.222 43.0602C159.653 43.042 160.074 42.9249 160.42 42.7037C160.768 42.4834 161.024 42.1487 161.11 41.7681C161.197 41.3928 161.142 40.9839 160.922 40.6944C160.712 40.394 160.332 40.2773 159.994 40.3263C159.655 40.3674 159.343 40.5764 159.251 40.877C159.155 41.1771 159.251 41.5023 159.417 41.7407C159.586 41.9827 159.833 42.1462 160.078 42.2584C160.326 42.3697 160.578 42.4385 160.815 42.4847C161.289 42.5779 161.719 42.5349 162.024 42.3909C162.333 42.2486 162.513 42.0398 162.604 41.8885C162.696 41.7349 162.711 41.6381 162.72 41.641Z" fill="#445964"/>
<path d="M139.445 42.1279C139.465 42.0982 139.754 42.3834 140.341 42.5882C140.633 42.6857 141.002 42.7454 141.409 42.7149C141.816 42.6896 142.263 42.5816 142.705 42.4173C143.591 42.0744 144.198 41.4066 144.512 40.8795C144.833 40.3456 144.907 39.9551 144.937 39.9642C144.946 39.9662 144.935 40.064 144.892 40.2366C144.847 40.4087 144.762 40.6538 144.609 40.9351C144.311 41.4926 143.692 42.2044 142.762 42.5643C142.303 42.735 141.845 42.8411 141.418 42.8601C140.991 42.8838 140.603 42.8089 140.303 42.6931C140.002 42.5753 139.783 42.4306 139.645 42.3193C139.506 42.2072 139.439 42.1348 139.445 42.1279Z" fill="#445964"/>
<path d="M139.072 44.4057C139.083 44.3783 139.428 44.5408 140.024 44.6401C140.613 44.7419 141.471 44.7457 142.33 44.422C143.188 44.0974 143.828 43.5277 144.202 43.0623C144.582 42.5951 144.732 42.2455 144.759 42.2589C144.768 42.2628 144.739 42.3534 144.667 42.5091C144.596 42.6649 144.473 42.8828 144.29 43.1308C143.93 43.6257 143.279 44.232 142.386 44.5695C141.493 44.9061 140.602 44.8825 140.003 44.7497C139.701 44.6849 139.465 44.6022 139.307 44.5327C139.15 44.4636 139.068 44.4146 139.072 44.4057Z" fill="#445964"/>
<path d="M146.073 50.8184C146.03 50.8174 145.995 50.7779 145.996 50.7303C145.998 50.6826 146.034 50.6448 146.078 50.6458C146.121 50.6469 146.156 50.6864 146.155 50.7342C146.154 50.7817 146.117 50.8195 146.073 50.8184Z" fill="#EB996E"/>
<path d="M147.48 50.8169C147.436 50.8157 147.402 50.7707 147.403 50.7161C147.405 50.6613 147.441 50.6179 147.485 50.6189C147.529 50.6201 147.563 50.6653 147.561 50.7199C147.56 50.7745 147.524 50.818 147.48 50.8169Z" fill="#EB996E"/>
<path d="M148.386 50.9974C148.342 50.9931 148.313 50.9322 148.32 50.8612C148.327 50.7903 148.367 50.7362 148.411 50.7405C148.455 50.7446 148.484 50.8057 148.477 50.8766C148.47 50.9475 148.43 51.0015 148.386 50.9974Z" fill="#EB996E"/>
<path d="M146.542 51.8034C146.499 51.7939 146.469 51.764 146.476 51.7368C146.482 51.7096 146.521 51.6954 146.564 51.7049C146.607 51.7145 146.636 51.7444 146.63 51.7716C146.624 51.7988 146.584 51.813 146.542 51.8034Z" fill="#EB996E"/>
<path d="M147.833 51.7957C147.79 51.7897 147.76 51.7452 147.767 51.6962C147.774 51.6472 147.814 51.6122 147.857 51.6182C147.901 51.6239 147.93 51.6685 147.924 51.7175C147.917 51.7666 147.876 51.8016 147.833 51.7957Z" fill="#EB996E"/>
<path d="M154.392 52.4722C154.348 52.4711 154.314 52.4303 154.315 52.3812C154.316 52.332 154.353 52.2929 154.396 52.2941C154.44 52.2951 154.474 52.3358 154.473 52.385C154.472 52.4343 154.436 52.4732 154.392 52.4722Z" fill="#EB996E"/>
<path d="M155.323 52.594C155.279 52.5887 155.25 52.5402 155.256 52.4856C155.263 52.4312 155.304 52.3912 155.347 52.3967C155.391 52.4021 155.42 52.4506 155.413 52.5052C155.407 52.5597 155.366 52.5994 155.323 52.594Z" fill="#EB996E"/>
<path d="M153.581 52.3135C153.538 52.3125 153.503 52.2805 153.504 52.2423C153.505 52.2042 153.541 52.174 153.585 52.1751C153.629 52.1761 153.663 52.2079 153.662 52.2462C153.661 52.2845 153.625 52.3147 153.581 52.3135Z" fill="#EB996E"/>
<path d="M154.052 53.3745C154.009 53.3827 153.966 53.3496 153.956 53.3003C153.947 53.2508 153.973 53.2037 154.016 53.1955C154.059 53.1869 154.102 53.2202 154.112 53.2697C154.121 53.3192 154.095 53.3661 154.052 53.3745Z" fill="#EB996E"/>
<path d="M154.866 53.3945C154.827 53.3742 154.81 53.3313 154.827 53.2989C154.844 53.2666 154.89 53.2569 154.928 53.2773C154.967 53.2978 154.984 53.3405 154.967 53.373C154.949 53.4054 154.904 53.4149 154.866 53.3945Z" fill="#EB996E"/>
<path d="M120.905 125.869L112.188 154.462L86.3632 167.341L91.9361 180.268L128.342 166.689L139.707 131.883L120.905 125.869Z" fill="#263138"/>
<path d="M124.285 63.7144L100.662 78.6583C99.51 79.387 98.6493 80.4935 98.2287 81.7869L90.8165 104.575L98.965 107.441L107.562 86.1293L128.84 77.3505L124.285 63.7144Z" fill="#3E71F3"/>
<path d="M149.694 70.7066L150.367 69.7753L149.139 66.2328L145.796 71.2758L144.902 68.5235L138.199 60.569L135.283 62.6947L124.285 63.7144L124.353 64.0132L122.252 80.1899L120.972 97.5618L118.409 106.068L117.327 107.217C116.672 107.912 116.413 108.89 116.64 109.817L116.714 110.119L143.707 118.848L145.796 115.597L154.191 75.9781L149.694 70.7066Z" fill="#3E71F3"/>
<path d="M176.325 137.402C175.76 132.121 172.103 127.678 167.017 126.093L143.847 118.816L116.716 110.131C114.809 114.235 114.547 118.58 114.7 121.111C115.024 126.471 120.9 131.611 126.777 133.089L160.471 141.561L166.824 174.704L180.204 173.642L176.325 137.402Z" fill="#263138"/>
<path d="M160.623 141.759C160.62 141.769 160.471 141.744 160.188 141.686C159.877 141.618 159.467 141.528 158.955 141.415C157.886 141.172 156.346 140.794 154.449 140.303C150.653 139.329 145.449 137.85 139.629 136.492C133.813 135.076 128.65 133.401 124.989 132C123.157 131.303 121.695 130.689 120.692 130.248C120.19 130.028 119.805 129.847 119.544 129.725C119.283 129.601 119.148 129.532 119.152 129.522C119.157 129.513 119.3 129.563 119.568 129.669C119.863 129.787 120.252 129.943 120.738 130.139C121.754 130.546 123.226 131.13 125.064 131.799C128.738 133.146 133.897 134.785 139.702 136.198C145.525 137.556 150.727 139.07 154.505 140.096C156.372 140.598 157.894 141.008 158.983 141.301C159.49 141.436 159.895 141.544 160.202 141.626C160.48 141.703 160.625 141.749 160.623 141.759Z" fill="#445964"/>
<path d="M163.912 137.778C163.983 137.806 163.521 138.928 162.523 140.019C161.533 141.117 160.459 141.686 160.424 141.618C160.373 141.542 161.341 140.878 162.298 139.815C163.263 138.761 163.831 137.735 163.912 137.778Z" fill="#445964"/>
<path d="M165.915 140.815C165.948 140.884 164.793 141.43 163.245 141.647C161.699 141.874 160.436 141.674 160.448 141.598C160.454 141.508 161.697 141.568 163.202 141.348C164.708 141.137 165.883 140.73 165.915 140.815Z" fill="#445964"/>
<path d="M128.317 113.94C128.342 113.86 136.469 116.342 146.466 119.483C156.466 122.625 164.55 125.236 164.525 125.316C164.5 125.395 156.375 122.914 146.374 119.772C136.377 116.631 128.292 114.02 128.317 113.94Z" fill="#445964"/>
<path d="M128.832 75.7024C128.784 75.6666 129.394 75.0701 129.793 73.8024C129.999 73.1778 130.17 72.4062 130.237 71.5376C130.308 70.6719 130.293 69.7027 130.068 68.7328C129.835 67.7654 129.377 66.9077 128.845 66.2303C128.303 65.5564 127.686 65.0591 127.12 64.7239C125.982 64.0505 125.143 63.9099 125.164 63.848C125.168 63.8302 125.375 63.8553 125.742 63.9445C126.107 64.0381 126.631 64.2125 127.228 64.5385C127.826 64.8605 128.484 65.3599 129.063 66.0549C129.632 66.7542 130.118 67.6455 130.364 68.6622C130.599 69.6798 130.604 70.6751 130.516 71.563C130.431 72.4529 130.234 73.24 129.996 73.8733C129.758 74.5068 129.481 74.9881 129.242 75.283C129.01 75.5828 128.841 75.7125 128.832 75.7024Z" fill="#263138"/>
<path d="M122.252 80.1899C123.797 79.7871 126.99 78.0645 126.99 78.0645C125.068 83.1005 123.005 89.1167 121.196 94.194C121.721 89.5055 121.726 84.8782 122.252 80.1899Z" fill="black" fill-opacity="0.301961"/>
<path d="M104.482 83.2981C104.521 83.2301 105.424 83.7115 106.295 84.6067C107.171 85.4976 107.631 86.4097 107.561 86.4465C107.485 86.4937 106.925 85.6794 106.077 84.8184C105.236 83.9517 104.433 83.3727 104.482 83.2981Z" fill="#263138"/>
<path d="M106.388 80.1441C106.445 80.0964 107.307 81.2987 107.699 83.0473C108.105 84.7933 107.85 86.2489 107.778 86.2304C107.684 86.2254 107.797 84.8022 107.402 83.1146C107.025 81.4238 106.305 80.1893 106.388 80.1441Z" fill="#263138"/>
<path d="M118.202 94.0249C118.202 94.1085 118.177 94.1763 118.146 94.1763C118.114 94.1763 118.089 94.1085 118.089 94.0249C118.089 93.9412 118.114 93.8734 118.146 93.8734C118.177 93.8734 118.202 93.9412 118.202 94.0249Z" fill="#263138"/>
<path d="M145.796 115.597C145.786 115.595 145.803 115.474 145.845 115.248C145.897 114.99 145.962 114.662 146.043 114.259C146.233 113.364 146.493 112.135 146.811 110.634C147.465 107.537 148.355 103.326 149.338 98.6723C150.321 94.0168 151.211 89.8046 151.865 86.7078C152.192 85.2082 152.459 83.9808 152.654 83.0864C152.747 82.6862 152.822 82.3612 152.882 82.1047C152.937 81.8809 152.971 81.7645 152.981 81.7665C152.992 81.7684 152.978 81.8892 152.942 82.1169C152.897 82.376 152.84 82.705 152.769 83.1099C152.598 84.009 152.363 85.2428 152.076 86.7507C151.475 89.8221 150.619 94.06 149.635 98.7344C148.653 103.407 147.726 107.63 147.021 110.68C146.666 112.205 146.375 113.437 146.158 114.286C146.055 114.684 145.971 115.007 145.905 115.261C145.843 115.484 145.806 115.599 145.796 115.597Z" fill="#263138"/>
<path d="M159.099 97.05C159.023 97.0524 159.059 95.8569 159.713 94.567C160.357 93.2711 161.295 92.5256 161.338 92.5874C161.405 92.6521 160.598 93.4633 159.985 94.7026C159.358 95.9345 159.191 97.0642 159.099 97.05Z" fill="#263138"/>
<path d="M160.464 98.4612C160.394 98.4848 160.038 97.1086 160.296 95.4051C160.54 93.6987 161.278 92.4827 161.338 92.5256C161.424 92.5643 160.831 93.8015 160.597 95.4489C160.346 97.0936 160.558 98.4487 160.464 98.4612Z" fill="#263138"/>
<path d="M188.683 93.1848L184.229 93.2237L184.783 94.6331L188.647 93.7251L188.683 93.1848Z" fill="#FFBD9C"/>
<path d="M150.562 93.6507C150.562 93.6507 153.53 98.8183 153.486 98.6817C153.686 93.7461 153.669 89.0417 152.526 84.235L150.562 93.6507Z" fill="black" fill-opacity="0.301961"/>
<path d="M144.902 68.6523C144.923 68.6797 144.503 69.0413 143.824 69.6988C143.135 70.3463 142.218 71.3221 140.999 72.328L140.867 72.4369L140.783 72.2824C140.366 71.5128 139.913 70.6771 139.441 69.8052C138.351 67.833 137.319 66.0732 136.563 64.8034C136.214 64.2121 135.916 63.7094 135.673 63.2968C135.464 62.9397 135.357 62.7366 135.375 62.7252C135.393 62.714 135.533 62.8955 135.772 63.2335C136.01 63.5723 136.346 64.0686 136.747 64.6909C137.55 65.934 138.614 67.6816 139.707 69.6588C140.19 70.5314 140.638 71.3757 141.036 72.1513L140.821 72.1058C142.031 71.1354 142.981 70.1833 143.705 69.5697C144.421 68.9453 144.883 68.6282 144.902 68.6523Z" fill="#263138"/>
<path d="M150.209 70.0475C150.234 70.0647 150.106 70.2973 149.839 70.6606C149.58 71.0261 149.167 71.5212 148.738 72.1194L148.577 72.3446L148.495 72.0888C148.327 71.561 148.147 70.9988 147.958 70.4073C147.838 70.0125 147.722 69.6311 147.611 69.27L147.868 69.32C146.718 70.7211 145.847 71.709 145.796 71.6626C145.745 71.6163 146.523 70.5553 147.636 69.1426L147.808 68.9244L147.893 69.1926C148.006 69.5491 148.125 69.9259 148.248 70.3158C148.426 70.9049 148.596 71.4648 148.755 71.9906L148.512 71.9599C148.978 71.3515 149.412 70.8927 149.709 70.5556C150.011 70.2245 150.183 70.0302 150.209 70.0475Z" fill="#263138"/>
<path d="M145.796 71.5325C145.717 71.5691 145.389 70.9166 145.201 70.0634C145.015 69.2193 144.827 68.5574 144.902 68.5235C144.98 68.4867 145.309 69.139 145.497 69.9926C145.683 70.8363 145.871 71.4985 145.796 71.5325Z" fill="#263138"/>
<path d="M141.244 112.765C141.263 112.739 141.572 112.95 141.818 113.479C142.063 113.989 142.195 114.863 141.784 115.683C141.364 116.497 140.578 116.908 140.02 117.012C139.447 117.126 139.093 117.002 139.103 116.972C139.106 116.921 139.455 116.962 139.966 116.804C140.468 116.657 141.147 116.256 141.513 115.546C141.872 114.831 141.796 114.049 141.618 113.558C141.443 113.054 141.205 112.798 141.244 112.765Z" fill="#263138"/>
<path d="M146.55 72.3118C146.561 72.3123 146.563 72.4552 146.557 72.7267C146.546 73.0283 146.533 73.4226 146.516 73.9139C146.477 74.9448 146.39 76.4352 146.254 78.2747C145.984 81.9539 145.465 87.0289 144.601 92.5934C143.732 98.1592 142.683 103.153 141.822 106.74C141.392 108.535 141.022 109.981 140.745 110.975C140.612 111.448 140.505 111.828 140.423 112.119C140.347 112.379 140.301 112.515 140.291 112.512C140.281 112.509 140.306 112.369 140.364 112.103C140.432 111.809 140.52 111.425 140.631 110.946C140.872 109.944 141.21 108.491 141.612 106.692C142.419 103.096 143.432 98.1041 144.3 92.5469C145.163 86.9909 145.715 81.9281 146.039 78.2572C146.203 76.4219 146.323 74.9349 146.398 73.9068C146.438 73.4172 146.471 73.024 146.495 72.7234C146.521 72.453 146.54 72.3112 146.55 72.3118Z" fill="#263138"/>
<path d="M143.773 112.496C143.781 112.531 143.243 112.686 142.347 112.799C141.454 112.914 140.197 112.959 138.826 112.793C137.456 112.624 136.248 112.277 135.408 111.951C134.566 111.625 134.083 111.345 134.098 111.313C134.133 111.219 136.16 112.175 138.863 112.492C141.563 112.836 143.762 112.396 143.773 112.496Z" fill="#263138"/>
<path d="M124.796 109.195C124.775 109.271 123.211 108.858 121.419 108.002C119.622 107.153 118.316 106.203 118.361 106.139C118.41 106.064 119.775 106.89 121.549 107.729C123.32 108.574 124.824 109.111 124.796 109.195Z" fill="#263138"/>
<path d="M113.576 101.723C113.576 101.807 113.546 101.875 113.51 101.875C113.473 101.875 113.443 101.807 113.443 101.723C113.443 101.64 113.473 101.572 113.51 101.572C113.546 101.572 113.576 101.64 113.576 101.723Z" fill="#263138"/>
<path d="M112.461 77.2958C112.378 77.2827 112.466 76.2977 112.657 75.0958C112.848 73.8936 113.07 72.9298 113.153 72.943C113.236 72.956 113.148 73.941 112.957 75.1433C112.766 76.345 112.544 77.3088 112.461 77.2958Z" fill="white"/>
<path d="M122.559 75.6036C122.494 75.6622 121.981 75.192 121.304 74.6766C120.629 74.1574 120.041 73.7844 120.081 73.7074C120.117 73.6348 120.789 73.8981 121.489 74.4362C122.191 74.9711 122.62 75.5511 122.559 75.6036Z" fill="white"/>
<path d="M104.2 80.6576C104.157 80.7299 103.608 80.4899 102.972 80.1213C102.335 79.7527 101.854 79.3954 101.896 79.323C101.939 79.2507 102.488 79.4908 103.124 79.8593C103.76 80.2279 104.242 80.5852 104.2 80.6576Z" fill="white"/>
<path d="M102.894 88.0288C102.919 88.1086 102.013 88.4642 100.871 88.8228C99.7285 89.1817 98.7823 89.4077 98.7571 89.3278C98.7318 89.248 99.6371 88.8926 100.78 88.5338C101.922 88.1751 102.868 87.9491 102.894 88.0288Z" fill="white"/>
<path d="M98.0173 100.552C97.9392 100.574 97.6312 99.7177 97.472 98.6125C97.3091 97.5075 97.3599 96.5995 97.4412 96.5988C97.5278 96.5967 97.613 97.4851 97.773 98.569C97.9291 99.6532 98.1009 100.529 98.0173 100.552Z" fill="white"/>
<path d="M118.346 80.4689C118.363 80.5542 117.402 80.8032 116.244 81.1839C115.085 81.5606 114.163 81.9273 114.125 81.8488C114.089 81.7767 114.969 81.2798 116.149 80.8959C117.328 80.5083 118.332 80.3897 118.346 80.4689Z" fill="white"/>
<path d="M126.349 68.1594C126.334 68.2417 125.141 68.0864 123.686 67.8129C122.23 67.539 121.063 67.2507 121.078 67.1683C121.094 67.0862 122.286 67.2413 123.742 67.515C125.197 67.7887 126.365 68.0772 126.349 68.1594Z" fill="white"/>
<path d="M132.584 68.4517C132.505 68.4253 132.717 67.5742 133.057 66.5508C133.399 65.5272 133.74 64.7191 133.819 64.7453C133.899 64.7717 133.687 65.6227 133.346 66.6464C133.005 67.6697 132.664 68.4781 132.584 68.4517Z" fill="white"/>
<path d="M138.089 75.2751C138.031 75.3325 137.33 74.7178 136.617 73.8217C135.901 72.9272 135.459 72.1072 135.528 72.0642C135.601 72.0177 136.151 72.7526 136.855 73.6331C137.556 74.5154 138.151 75.2151 138.089 75.2751Z" fill="white"/>
<path d="M132.133 81.2035C132.05 81.2105 131.908 80.3312 131.818 79.24C131.728 78.1485 131.722 77.2583 131.806 77.2514C131.89 77.2444 132.031 78.1236 132.121 79.2151C132.212 80.3062 132.217 81.1966 132.133 81.2035Z" fill="white"/>
<path d="M125.78 84.4961C125.723 84.5577 125.214 84.1837 124.644 83.6609C124.074 83.1379 123.658 82.6641 123.714 82.6026C123.771 82.5409 124.28 82.9149 124.85 83.4378C125.42 83.9606 125.837 84.4344 125.78 84.4961Z" fill="white"/>
<path d="M128.994 88.8413C129.027 88.9155 128.375 89.2719 127.497 89.5147C126.62 89.7606 125.877 89.7927 125.867 89.7121C125.855 89.6269 126.561 89.4626 127.415 89.2229C128.271 88.9863 128.96 88.7623 128.994 88.8413Z" fill="white"/>
<path d="M140.237 85.4017C140.159 85.4232 139.872 84.6009 139.735 83.5413C139.594 82.4818 139.66 81.6139 139.741 81.6145C139.828 81.6139 139.898 82.4641 140.036 83.5022C140.17 84.5404 140.321 85.3803 140.237 85.4017Z" fill="white"/>
<path d="M137.824 93.6852C137.749 93.723 137.314 93.0182 136.853 92.111C136.392 91.2036 136.079 90.4376 136.154 90.3998C136.229 90.3621 136.664 91.0667 137.125 91.974C137.586 92.8812 137.899 93.6474 137.824 93.6852Z" fill="white"/>
<path d="M129.073 99.3117C128.994 99.2841 129.266 98.3043 129.68 97.1238C130.095 95.9427 130.496 95.008 130.575 95.0357C130.654 95.0632 130.382 96.0429 129.968 97.2239C129.553 98.4045 129.152 99.3394 129.073 99.3117Z" fill="white"/>
<path d="M125.405 104.024C125.326 104.052 125.045 103.464 124.778 102.712C124.511 101.959 124.359 101.326 124.438 101.299C124.517 101.271 124.798 101.858 125.065 102.611C125.332 103.364 125.484 103.996 125.405 104.024Z" fill="white"/>
<path d="M138.247 103.17C138.285 103.245 137.462 103.742 136.41 104.28C135.356 104.819 134.472 105.195 134.433 105.12C134.395 105.046 135.217 104.549 136.271 104.011C137.324 103.472 138.209 103.096 138.247 103.17Z" fill="white"/>
<path d="M130.053 110.268C129.97 110.276 129.849 109.729 129.784 109.047C129.719 108.364 129.734 107.805 129.817 107.797C129.901 107.789 130.021 108.335 130.087 109.018C130.152 109.7 130.137 110.26 130.053 110.268Z" fill="white"/>
<path d="M120.58 110.428C120.513 110.473 120.127 109.973 119.956 109.228C119.78 108.485 119.906 107.866 119.985 107.877C120.073 107.884 120.087 108.47 120.252 109.16C120.409 109.851 120.656 110.384 120.58 110.428Z" fill="white"/>
<path d="M136.848 113.882C136.874 113.961 136.211 114.248 135.367 114.522C134.523 114.796 133.818 114.953 133.792 114.873C133.766 114.794 134.429 114.507 135.273 114.233C136.117 113.96 136.822 113.802 136.848 113.882Z" fill="white"/>
<path d="M143.872 116.276C143.79 116.291 143.63 115.825 143.516 115.234C143.402 114.643 143.376 114.151 143.459 114.135C143.541 114.119 143.701 114.586 143.815 115.177C143.929 115.768 143.954 116.26 143.872 116.276Z" fill="white"/>
<path d="M144.775 108.128C144.698 108.162 144.369 107.604 144.04 106.881C143.711 106.158 143.506 105.544 143.582 105.509C143.659 105.475 143.988 106.033 144.317 106.756C144.646 107.479 144.851 108.093 144.775 108.128Z" fill="white"/>
<path d="M147.508 99.2345C147.552 99.3059 147.014 99.7139 146.307 100.146C145.599 100.578 144.991 100.87 144.947 100.799C144.903 100.727 145.44 100.319 146.148 99.8875C146.855 99.4556 147.464 99.1632 147.508 99.2345Z" fill="white"/>
<path d="M147.666 94.1313C147.593 94.1658 147.255 93.5875 147.047 92.7961C146.835 92.0054 146.842 91.3364 146.923 91.3301C147.01 91.3217 147.136 91.9554 147.341 92.7187C147.541 93.4826 147.746 94.0961 147.666 94.1313Z" fill="white"/>
<path d="M150.46 82.4095C150.51 82.477 149.867 83.0308 149.024 83.6465C148.181 84.2624 147.458 84.7067 147.408 84.6392C147.359 84.5717 148.002 84.0179 148.844 83.402C149.687 82.7865 150.41 82.3421 150.46 82.4095Z" fill="white"/>
<path d="M150.971 78.7403C150.924 78.8058 150.373 78.475 149.901 77.854C149.425 77.2355 149.252 76.618 149.328 76.591C149.409 76.5573 149.695 77.089 150.143 77.6704C150.586 78.2553 151.025 78.6715 150.971 78.7403Z" fill="white"/>
<path d="M155.252 86.7977C155.17 86.7829 155.249 85.9597 155.43 84.9591C155.611 83.9583 155.824 83.1592 155.907 83.174C155.989 83.1889 155.91 84.0119 155.729 85.0129C155.549 86.0134 155.335 86.8126 155.252 86.7977Z" fill="white"/>
<path d="M157.911 92.2481C157.882 92.3264 157.173 92.1333 156.328 91.8165C155.484 91.4999 154.823 91.1797 154.852 91.1013C154.882 91.023 155.591 91.2161 156.436 91.5329C157.28 91.8495 157.941 92.1699 157.911 92.2481Z" fill="white"/>
<path d="M157.223 100.236C157.147 100.271 156.796 99.6689 156.44 98.8922C156.083 98.115 155.856 97.4572 155.933 97.4224C156.009 97.3876 156.36 97.9891 156.716 98.7661C157.073 99.5428 157.3 100.201 157.223 100.236Z" fill="white"/>
<path d="M166.017 95.7804C166.074 95.8464 165.4 96.5023 164.628 97.359C163.853 98.2131 163.268 98.9484 163.196 98.8989C163.129 98.8546 163.612 98.0275 164.402 97.1561C165.19 96.2824 165.965 95.7184 166.017 95.7804Z" fill="white"/>
<path d="M171.456 97.018C171.394 97.0743 170.824 96.5501 170.183 95.8473C169.542 95.1444 169.073 94.529 169.135 94.4728C169.198 94.4165 169.767 94.9406 170.408 95.6436C171.049 96.3462 171.518 96.9618 171.456 97.018Z" fill="white"/>
<path d="M182.78 82.089V78.8017H181.044L183.708 75.0842L186.372 78.8017H184.703V82.089H182.78Z" fill="#3E71F3"/>
<path d="M179.232 84.8964V82.5958H178.018L179.882 79.9943L181.746 82.5958H180.578V84.8964H179.232Z" fill="#3E71F3"/>
<path d="M156.941 173.949C156.941 173.949 156.843 173.97 156.65 173.996C156.446 174.021 156.162 174.057 155.792 174.103C155.414 174.143 154.948 174.205 154.4 174.304C153.85 174.392 153.214 174.492 152.508 174.654C149.682 175.246 145.579 176.412 141.007 178.972C138.729 180.253 136.35 181.887 134.032 183.931C131.738 185.996 129.49 188.464 127.572 191.387C123.701 197.183 120.987 204.761 120.926 212.979L120.922 213.489L120.647 213.058C119.225 210.831 117.271 208.785 115.017 207.072C107.662 201.572 98.4161 199.552 90.5988 200.88C90.1126 200.981 89.6294 201.081 89.1495 201.181C88.9071 201.223 88.6717 201.287 88.4418 201.368L87.7481 201.588C87.2914 201.746 86.8203 201.854 86.3839 202.05C85.9447 202.237 85.5083 202.423 85.0753 202.608C84.6354 202.778 84.2265 203.006 83.8162 203.222C83.4061 203.438 82.9992 203.653 82.5953 203.867C82.2094 204.111 81.8263 204.353 81.4466 204.593C81.0658 204.832 80.6851 205.064 80.3387 205.34C77.4659 207.405 75.1731 209.822 73.3801 212.23C71.5832 214.643 70.277 217.046 69.2823 219.216C69.0462 219.764 68.8181 220.294 68.5984 220.804C68.391 221.319 68.2205 221.825 68.041 222.305C67.6662 223.258 67.435 224.166 67.1795 224.968C66.7334 226.59 66.4316 227.863 66.2806 228.736C66.1964 229.164 66.1315 229.492 66.0853 229.726C66.0394 229.949 66.0083 230.062 66.0083 230.062C66.0083 230.062 66.0189 229.946 66.0545 229.721C66.0939 229.486 66.1489 229.155 66.2204 228.725C66.3522 227.847 66.6357 226.567 67.0655 224.936C67.3128 224.13 67.5365 223.217 67.9043 222.257C68.0803 221.774 68.2475 221.265 68.4519 220.746C68.6688 220.233 68.8937 219.699 69.127 219.147C70.1111 216.961 71.4102 214.538 73.2071 212.103C75.0001 209.672 77.3 207.228 80.1916 205.136C80.54 204.857 80.9234 204.621 81.3068 204.379C81.6896 204.135 82.0753 203.89 82.4642 203.643C82.8712 203.426 83.2814 203.208 83.6946 202.988C84.1085 202.769 84.5209 202.538 84.9645 202.365C85.4014 202.178 85.8416 201.989 86.2847 201.799C86.7249 201.6 87.2025 201.489 87.6647 201.328L88.3669 201.103C88.5999 201.021 88.8381 200.956 89.0831 200.913C89.5686 200.811 90.0573 200.708 90.5491 200.605C98.4552 199.25 107.767 201.275 115.202 206.831C117.481 208.563 119.46 210.635 120.903 212.899L120.624 212.978C120.691 204.694 123.437 197.065 127.348 191.24C129.287 188.301 131.558 185.822 133.873 183.753C136.213 181.705 138.612 180.073 140.908 178.797C145.516 176.247 149.645 175.107 152.486 174.547C153.196 174.392 153.835 174.301 154.387 174.221C154.938 174.131 155.406 174.078 155.786 174.047C156.157 174.013 156.442 173.986 156.647 173.967C156.841 173.951 156.941 173.949 156.941 173.949Z" fill="#263138"/>
<path d="M250.105 279.521H210.249V179.026H250.105V279.521Z" fill="#3E71F3"/>
<path d="M250.105 279.521H210.249V179.026H250.105V279.521Z" fill="black" fill-opacity="0.301961"/>
<path d="M240.364 279.521H200.508V179.026H240.364V279.521Z" fill="#3E71F3"/>
<path d="M250.105 183.631C250.122 183.643 250.005 183.853 249.778 184.222C249.511 184.642 249.182 185.16 248.793 185.771C247.95 187.071 246.768 188.855 245.444 190.814C244.12 192.774 242.905 194.536 242.008 195.801C241.113 197.065 240.535 197.835 240.488 197.799C240.484 197.795 240.511 197.742 240.569 197.644C240.648 197.517 240.735 197.378 240.832 197.22C241.103 196.803 241.437 196.288 241.831 195.681C242.681 194.385 243.867 192.604 245.192 190.645C246.515 188.686 247.726 186.921 248.615 185.651C249.035 185.062 249.391 184.562 249.68 184.156C249.937 183.807 250.088 183.619 250.105 183.631Z" fill="#3E71F3"/>
<path d="M250.105 201.73C250.122 201.742 250.005 201.952 249.778 202.321C249.511 202.741 249.182 203.259 248.793 203.87C247.95 205.17 246.768 206.954 245.444 208.913C244.12 210.873 242.905 212.635 242.008 213.9C241.113 215.164 240.535 215.934 240.488 215.898C240.484 215.894 240.511 215.842 240.569 215.743C240.648 215.616 240.735 215.477 240.832 215.319C241.103 214.902 241.437 214.387 241.831 213.78C242.681 212.485 243.867 210.703 245.192 208.744C246.515 206.785 247.726 205.02 248.615 203.751C249.035 203.161 249.391 202.661 249.68 202.255C249.937 201.906 250.088 201.719 250.105 201.73Z" fill="#3E71F3"/>
<path d="M250.105 219.829C250.122 219.841 250.005 220.051 249.778 220.42C249.511 220.84 249.182 221.358 248.793 221.969C247.95 223.269 246.768 225.053 245.444 227.012C244.12 228.972 242.905 230.734 242.008 231.999C241.113 233.263 240.535 234.033 240.488 233.997C240.484 233.993 240.511 233.941 240.569 233.842C240.648 233.715 240.735 233.576 240.832 233.418C241.103 233.001 241.437 232.486 241.831 231.879C242.681 230.584 243.867 228.802 245.192 226.843C246.515 224.884 247.726 223.119 248.615 221.849C249.035 221.26 249.391 220.76 249.68 220.354C249.937 220.005 250.088 219.818 250.105 219.829Z" fill="#3E71F3"/>
<path d="M250.105 237.928C250.122 237.94 250.005 238.15 249.778 238.519C249.511 238.94 249.182 239.457 248.793 240.068C247.95 241.368 246.768 243.153 245.444 245.111C244.12 247.071 242.905 248.834 242.008 250.098C241.113 251.362 240.535 252.132 240.488 252.096C240.484 252.092 240.511 252.039 240.569 251.941C240.648 251.814 240.735 251.675 240.832 251.517C241.103 251.1 241.437 250.585 241.831 249.978C242.681 248.683 243.867 246.901 245.192 244.942C246.515 242.983 247.726 241.218 248.615 239.949C249.035 239.359 249.391 238.859 249.68 238.454C249.937 238.104 250.088 237.917 250.105 237.928Z" fill="#3E71F3"/>
<path d="M250.105 256.027C250.122 256.039 250.005 256.249 249.778 256.618C249.511 257.038 249.182 257.556 248.793 258.167C247.95 259.467 246.768 261.251 245.444 263.21C244.12 265.17 242.905 266.932 242.008 268.197C241.113 269.461 240.535 270.231 240.488 270.195C240.484 270.191 240.511 270.139 240.569 270.04C240.648 269.913 240.735 269.774 240.832 269.616C241.103 269.199 241.437 268.684 241.831 268.077C242.681 266.782 243.867 265 245.192 263.041C246.515 261.082 247.726 259.317 248.615 258.047C249.035 257.458 249.391 256.958 249.68 256.553C249.937 256.203 250.088 256.015 250.105 256.027Z" fill="#3E71F3"/>
<path d="M250.105 274.126C250.175 274.173 249.361 275.502 248.287 277.094C247.214 278.687 246.287 279.94 246.217 279.893C246.147 279.847 246.961 278.518 248.035 276.925C249.108 275.333 250.035 274.08 250.105 274.126Z" fill="#3E71F3"/>
<path d="M194.525 279.517H154.669V197.8H194.525V279.517Z" fill="#3E71F3"/>
<path d="M194.525 279.517H154.669V197.8H194.525V279.517Z" fill="black" fill-opacity="0.301961"/>
<path d="M184.783 279.517H144.927V197.8H184.783V279.517Z" fill="#3E71F3"/>
<path d="M194.525 201.067C194.542 201.079 194.425 201.29 194.198 201.662C193.931 202.086 193.602 202.608 193.213 203.224C192.37 204.535 191.188 206.334 189.864 208.31C188.54 210.286 187.325 212.063 186.429 213.339C185.533 214.614 184.955 215.391 184.907 215.355C184.903 215.351 184.93 215.298 184.989 215.199C185.068 215.071 185.154 214.931 185.252 214.772C185.523 214.351 185.856 213.832 186.25 213.22C187.1 211.913 188.287 210.117 189.611 208.141C190.935 206.166 192.146 204.386 193.034 203.105C193.455 202.51 193.811 202.006 194.1 201.597C194.357 201.245 194.507 201.055 194.525 201.067Z" fill="#3E71F3"/>
<path d="M194.525 219.32C194.542 219.331 194.425 219.543 194.198 219.915C193.931 220.338 193.602 220.86 193.213 221.477C192.37 222.788 191.188 224.587 189.864 226.562C188.54 228.538 187.325 230.316 186.429 231.592C185.533 232.867 184.955 233.643 184.907 233.607C184.903 233.604 184.93 233.551 184.989 233.452C185.068 233.324 185.154 233.183 185.252 233.024C185.523 232.604 185.856 232.085 186.25 231.472C187.1 230.166 188.287 228.37 189.611 226.394C190.935 224.419 192.146 222.638 193.034 221.358C193.455 220.762 193.811 220.258 194.1 219.85C194.357 219.497 194.507 219.308 194.525 219.32Z" fill="#3E71F3"/>
<path d="M194.525 237.572C194.542 237.584 194.425 237.795 194.198 238.168C193.931 238.591 193.602 239.113 193.213 239.729C192.37 241.04 191.188 242.839 189.864 244.815C188.54 246.791 187.325 248.569 186.429 249.844C185.533 251.12 184.955 251.896 184.907 251.86C184.903 251.856 184.93 251.803 184.989 251.704C185.068 251.576 185.154 251.436 185.252 251.277C185.523 250.856 185.856 250.338 186.25 249.725C187.1 248.419 188.287 246.622 189.611 244.646C190.935 242.671 192.146 240.891 193.034 239.61C193.455 239.015 193.811 238.511 194.1 238.102C194.357 237.75 194.507 237.56 194.525 237.572Z" fill="#3E71F3"/>
<path d="M194.525 255.825C194.542 255.836 194.425 256.048 194.198 256.42C193.931 256.843 193.602 257.365 193.213 257.982C192.37 259.293 191.188 261.092 189.864 263.067C188.54 265.043 187.325 266.821 186.429 268.097C185.533 269.372 184.955 270.148 184.907 270.113C184.903 270.109 184.93 270.056 184.989 269.957C185.068 269.829 185.154 269.689 185.252 269.529C185.523 269.109 185.856 268.59 186.25 267.977C187.1 266.671 188.287 264.875 189.611 262.899C190.935 260.924 192.146 259.144 193.034 257.863C193.455 257.268 193.811 256.764 194.1 256.355C194.357 256.003 194.507 255.813 194.525 255.825Z" fill="#3E71F3"/>
<path d="M194.525 274.077C194.595 274.124 193.781 275.463 192.707 277.069C191.634 278.676 190.707 279.94 190.637 279.893C190.567 279.847 191.38 278.507 192.454 276.901C193.528 275.295 194.455 274.031 194.525 274.077Z" fill="#3E71F3"/>
<path d="M138.65 279.517H98.7945V219.32H138.65V279.517Z" fill="#3E71F3"/>
<path d="M138.65 279.517H98.7945V219.32H138.65V279.517Z" fill="black" fill-opacity="0.301961"/>
<path d="M128.909 279.517H89.0531V219.32H128.909V279.517Z" fill="#3E71F3"/>
<path d="M138.65 219.32C138.668 219.331 138.551 219.543 138.324 219.915C138.057 220.338 137.728 220.86 137.339 221.477C136.496 222.788 135.314 224.587 133.99 226.562C132.666 228.538 131.45 230.316 130.554 231.592C129.658 232.867 129.08 233.643 129.033 233.607C129.029 233.604 129.056 233.551 129.115 233.452C129.194 233.324 129.28 233.183 129.378 233.024C129.648 232.604 129.982 232.085 130.376 231.472C131.226 230.166 132.413 228.37 133.737 226.394C135.061 224.419 136.271 222.638 137.16 221.358C137.581 220.762 137.937 220.258 138.225 219.85C138.483 219.497 138.633 219.308 138.65 219.32Z" fill="#3E71F3"/>
<path d="M138.65 237.572C138.668 237.584 138.551 237.795 138.324 238.168C138.057 238.591 137.728 239.113 137.339 239.729C136.496 241.04 135.314 242.839 133.99 244.815C132.666 246.791 131.45 248.569 130.554 249.844C129.658 251.12 129.08 251.896 129.033 251.86C129.029 251.856 129.056 251.803 129.115 251.704C129.194 251.576 129.28 251.436 129.378 251.277C129.648 250.856 129.982 250.338 130.376 249.725C131.226 248.419 132.413 246.622 133.737 244.646C135.061 242.671 136.271 240.891 137.16 239.61C137.581 239.015 137.937 238.511 138.225 238.102C138.483 237.75 138.633 237.56 138.65 237.572Z" fill="#3E71F3"/>
<path d="M138.65 255.825C138.668 255.836 138.551 256.048 138.324 256.42C138.057 256.843 137.728 257.365 137.339 257.982C136.496 259.293 135.314 261.092 133.99 263.067C132.666 265.043 131.45 266.821 130.554 268.097C129.658 269.372 129.08 270.148 129.033 270.113C129.029 270.109 129.056 270.056 129.115 269.957C129.194 269.829 129.28 269.689 129.378 269.529C129.648 269.109 129.982 268.59 130.376 267.977C131.226 266.671 132.413 264.875 133.737 262.899C135.061 260.924 136.271 259.144 137.16 257.863C137.581 257.268 137.937 256.764 138.225 256.355C138.483 256.003 138.633 255.813 138.65 255.825Z" fill="#3E71F3"/>
<path d="M138.65 274.077C138.72 274.124 137.907 275.463 136.833 277.069C135.759 278.676 134.832 279.94 134.763 279.893C134.693 279.847 135.506 278.507 136.58 276.901C137.654 275.295 138.581 274.031 138.65 274.077Z" fill="#3E71F3"/>
<path d="M82.7762 279.517H42.9201V237.572H82.7762V279.517Z" fill="#3E71F3"/>
<path d="M82.7762 279.517H42.9201V237.572H82.7762V279.517Z" fill="black" fill-opacity="0.301961"/>
<path d="M73.035 279.518H33.1787V237.572H73.035V279.518Z" fill="#3E71F3"/>
<path d="M82.7762 237.572C82.7937 237.584 82.6765 237.795 82.4497 238.168C82.1827 238.591 81.8536 239.113 81.4648 239.729C80.6218 241.04 79.4393 242.839 78.1155 244.815C76.7913 246.791 75.5761 248.569 74.68 249.844C73.784 251.12 73.2061 251.896 73.1588 251.86C73.1548 251.856 73.1816 251.803 73.2404 251.704C73.3192 251.576 73.4058 251.436 73.5036 251.277C73.7741 250.856 74.1075 250.338 74.5017 249.725C75.3517 248.419 76.5384 246.622 77.8625 244.646C79.1862 242.671 80.397 240.891 81.2858 239.61C81.7063 239.015 82.0624 238.511 82.3511 238.102C82.6083 237.75 82.7588 237.56 82.7762 237.572Z" fill="#3E71F3"/>
<path d="M82.7762 255.825C82.7937 255.836 82.6765 256.048 82.4497 256.42C82.1827 256.843 81.8536 257.365 81.4648 257.982C80.6218 259.293 79.4393 261.092 78.1155 263.067C76.7913 265.043 75.5761 266.821 74.68 268.097C73.784 269.372 73.2061 270.148 73.1588 270.113C73.1548 270.109 73.1816 270.056 73.2404 269.957C73.3192 269.829 73.4058 269.688 73.5036 269.529C73.7741 269.109 74.1075 268.59 74.5017 267.977C75.3517 266.671 76.5384 264.875 77.8625 262.899C79.1862 260.924 80.397 259.144 81.2858 257.863C81.7063 257.268 82.0624 256.764 82.3511 256.355C82.6083 256.003 82.7588 255.813 82.7762 255.825Z" fill="#3E71F3"/>
<path d="M82.7762 274.077C82.8462 274.124 82.0324 275.463 80.9589 277.069C79.885 278.676 78.9581 279.94 78.8883 279.893C78.8184 279.847 79.6319 278.507 80.7058 276.901C81.7793 275.295 82.7063 274.031 82.7762 274.077Z" fill="#3E71F3"/>
<path d="M268.886 279.521C268.886 279.604 210.281 279.672 138.006 279.672C65.706 279.672 7.11444 279.604 7.11444 279.521C7.11444 279.437 65.706 279.369 138.006 279.369C210.281 279.369 268.886 279.437 268.886 279.521Z" fill="#263138"/>
</g>
<defs>
<clipPath id="clip0_569_2879">
<rect width="270" height="320" fill="white"/>
</clipPath>
</defs>
</svg>
