<svg width="248" height="248" viewBox="0 0 248 248" fill="none" xmlns="http://www.w3.org/2000/svg">
<path d="M10.3985 168.148C35.5217 226.68 101.839 251.821 153.8 247.533C167.988 246.363 196.533 244.008 218.821 222.999C261.625 182.653 255.033 98.3174 214.058 48.6656C208.78 42.2725 172.255 -0.56758 115.338 0.0057009C73.6666 0.425818 44.4173 23.8892 40.8605 26.8112C36.3679 30.5036 26.4587 39.2788 17.5273 53.1991C-3.45712 85.909 -5.30174 131.571 10.3985 168.148Z" fill="#E0ECFF"/>
<g clip-path="url(#clip0_703_2101)">
<path d="M211.224 194.253C207.41 205.377 202.506 216.476 196.224 227.04C196.084 227.278 195.943 227.511 195.801 227.748L180.248 222.847C180.337 222.623 180.435 222.372 180.54 222.098C186.814 205.941 224.663 107.5 222.964 88.0907C223.147 89.6794 229.068 142.257 211.224 194.253Z" fill="#E6E6E6"/>
<path d="M199.224 227.985C199.013 228.2 198.796 228.414 198.578 228.623L186.91 224.946C187.068 224.756 187.251 224.532 187.463 224.279C190.918 220.076 201.192 207.493 211.224 194.253C222.005 180.025 232.508 165.041 233.98 158.884C233.685 160.284 224.478 202.905 199.224 227.985Z" fill="#E6E6E6"/>
<path d="M205.057 64.0757C205.052 64.0757 205.048 64.0769 205.044 64.0771V39.1682C205.044 36.4714 203.968 33.8851 202.053 31.9782C200.139 30.0713 197.542 29 194.834 29H116.529C113.821 29 111.224 30.0713 109.31 31.9782C107.395 33.8851 106.319 36.4714 106.319 39.1682V51.9378C106.103 51.9424 105.897 52.0311 105.746 52.1849C105.594 52.3387 105.51 52.5454 105.509 52.7608V59.0857C105.51 59.301 105.594 59.5077 105.746 59.6615C105.897 59.8153 106.103 59.904 106.319 59.9085V66.5345H106.278C106.169 66.5345 106.061 66.5558 105.961 66.5973C105.86 66.6387 105.769 66.6995 105.692 66.7761C105.615 66.8527 105.554 66.9436 105.512 67.0437C105.471 67.1437 105.449 67.251 105.449 67.3593V79.5901C105.449 79.6984 105.471 79.8057 105.512 79.9058C105.554 80.0058 105.615 80.0968 105.692 80.1733C105.769 80.2499 105.86 80.3107 105.961 80.3521C106.061 80.3936 106.169 80.4149 106.278 80.4149H106.319V85.2726H106.306C106.197 85.2726 106.09 85.2939 105.989 85.3354C105.889 85.3768 105.797 85.4376 105.721 85.5142C105.644 85.5908 105.583 85.6817 105.541 85.7818C105.499 85.8818 105.478 85.9891 105.478 86.0974V98.4478C105.478 98.5562 105.499 98.6634 105.541 98.7635C105.583 98.8636 105.644 98.9545 105.721 99.0311C105.797 99.1077 105.889 99.1684 105.989 99.2099C106.09 99.2513 106.197 99.2727 106.306 99.2726H106.319V218.655C106.319 221.351 107.395 223.938 109.31 225.845C111.224 227.751 113.821 228.823 116.529 228.823H194.834C197.542 228.823 200.139 227.751 202.053 225.845C203.968 223.938 205.044 221.351 205.044 218.655V88.2969C205.048 88.2969 205.052 88.2982 205.057 88.2982C205.25 88.2982 205.442 88.2602 205.621 88.1864C205.8 88.1126 205.963 88.0044 206.1 87.8681C206.237 87.7317 206.345 87.5698 206.419 87.3916C206.493 87.2134 206.532 87.0224 206.532 86.8296V65.5444C206.532 65.1549 206.376 64.7813 206.1 64.5059C205.823 64.2304 205.448 64.0757 205.057 64.0757Z" fill="#151619"/>
<path d="M198.948 42.0144V215.806C198.947 217.876 198.12 219.862 196.65 221.326C195.18 222.79 193.185 223.612 191.106 223.612H120.257C118.178 223.612 116.184 222.79 114.713 221.326C113.243 219.862 112.416 217.876 112.415 215.806V42.0144C112.415 39.9433 113.242 37.957 114.712 36.4925C116.183 35.028 118.177 34.2052 120.257 34.2052H130.859V35.5756C130.859 37.2808 131.54 38.9159 132.751 40.1217C133.961 41.3274 135.603 42.0051 137.315 42.0059H173.361C175.071 42.0021 176.71 41.323 177.917 40.1175C179.125 38.912 179.803 37.2785 179.803 35.5756V34.2195H191.106C193.183 34.2195 195.176 35.0403 196.646 36.5017C198.116 37.9631 198.944 39.9458 198.948 42.0144Z" fill="white"/>
<path d="M84.0593 126.517C83.6404 126.356 83.1909 126.288 82.7427 126.318C82.2944 126.348 81.8582 126.475 81.4648 126.692C81.0715 126.908 80.7305 127.207 80.4659 127.569C80.2013 127.931 80.0195 128.346 79.9334 128.785L54.686 142.457L59.1251 147.432L82.5718 132.447C83.3222 132.542 84.0816 132.359 84.706 131.934C85.3305 131.509 85.7767 130.871 85.96 130.14C86.1434 129.409 86.0512 128.637 85.7009 127.969C85.3506 127.301 84.7665 126.785 84.0593 126.517Z" fill="#FFBD9C"/>
<path d="M77.6204 224.886L80.7663 222.859L74.4146 209.81L69.7713 212.801L77.6204 224.886Z" fill="#FFBD9C"/>
<path d="M88.7233 221.86L78.8357 228.229L76.3647 224.425L82.5749 220.424C83.5502 219.796 84.7362 219.579 85.8719 219.822C87.0076 220.064 88 220.746 88.6309 221.718L88.7233 221.86Z" fill="#151619"/>
<path d="M42.3209 225.357H46.0676L47.8507 210.964H42.3209V225.357Z" fill="#FFBD9C"/>
<path d="M53.2937 228.822H41.518V224.291H48.9141C49.4893 224.291 50.0588 224.404 50.5901 224.623C51.1215 224.842 51.6043 225.163 52.011 225.568C52.4176 225.973 52.7402 226.454 52.9603 226.983C53.1804 227.513 53.2937 228.08 53.2937 228.653V228.822Z" fill="#151619"/>
<path d="M128.284 57.2032H120.559C120.37 57.2032 120.188 57.1282 120.054 56.9946C119.92 56.861 119.844 56.6799 119.844 56.491C119.844 56.3021 119.92 56.1209 120.054 55.9873C120.188 55.8537 120.37 55.7787 120.559 55.7787H128.284C128.473 55.7787 128.655 55.8537 128.789 55.9873C128.923 56.1209 128.999 56.3021 128.999 56.491C128.999 56.6799 128.923 56.861 128.789 56.9946C128.655 57.1282 128.473 57.2032 128.284 57.2032Z" fill="#151619"/>
<path d="M128.284 59.1975H120.559C120.37 59.1975 120.188 59.1225 120.054 58.9889C119.92 58.8554 119.844 58.6742 119.844 58.4853C119.844 58.2964 119.92 58.1152 120.054 57.9816C120.188 57.8481 120.37 57.773 120.559 57.773H128.284C128.473 57.773 128.655 57.8481 128.789 57.9816C128.923 58.1152 128.999 58.2964 128.999 58.4853C128.999 58.6742 128.923 58.8554 128.789 58.9889C128.655 59.1225 128.473 59.1975 128.284 59.1975Z" fill="#151619"/>
<path d="M128.284 61.1919H120.559C120.37 61.1919 120.188 61.1168 120.054 60.9832C119.92 60.8497 119.844 60.6685 119.844 60.4796C119.844 60.2907 119.92 60.1095 120.054 59.976C120.188 59.8424 120.37 59.7673 120.559 59.7673H128.284C128.473 59.7673 128.655 59.8424 128.789 59.976C128.923 60.1095 128.999 60.2907 128.999 60.4796C128.999 60.6685 128.923 60.8497 128.789 60.9832C128.655 61.1168 128.473 61.1919 128.284 61.1919Z" fill="#151619"/>
<path d="M188.157 59.2118H187.897L187.796 59.1291C188.125 58.7388 188.306 58.2455 188.306 57.736C188.303 57.3167 188.176 56.9076 187.941 56.5603C187.705 56.213 187.371 55.9431 186.981 55.7847C186.591 55.6264 186.163 55.5867 185.751 55.6707C185.338 55.7547 184.96 55.9586 184.664 56.2566C184.368 56.5547 184.167 56.9334 184.088 57.345C184.008 57.7567 184.052 58.1826 184.215 58.5691C184.378 58.9555 184.653 59.2851 185.004 59.5161C185.356 59.7472 185.768 59.8693 186.189 59.8671C186.699 59.8634 187.192 59.6843 187.585 59.3599L187.682 59.4425V59.7047L189.324 61.3428L189.816 60.8528L188.157 59.2118ZM186.189 59.2118C185.896 59.2129 185.609 59.1275 185.364 58.9662C185.12 58.805 184.929 58.5752 184.816 58.306C184.703 58.0368 184.672 57.7402 184.728 57.4537C184.784 57.1672 184.925 56.9037 185.131 56.6965C185.337 56.4893 185.601 56.3477 185.888 56.2897C186.175 56.2316 186.473 56.2597 186.745 56.3703C187.016 56.481 187.248 56.6693 187.412 56.9113C187.576 57.1534 187.664 57.4384 187.665 57.7303L187.665 57.736C187.666 57.9286 187.629 58.1197 187.556 58.2981C187.483 58.4766 187.375 58.6389 187.239 58.776C187.103 58.913 186.942 59.022 186.763 59.0968C186.585 59.1716 186.394 59.2106 186.2 59.2118C186.196 59.2118 186.192 59.2118 186.189 59.2118Z" fill="#151619"/>
<path d="M144.019 83.4143H130.143C129.308 83.4143 128.508 83.0841 127.918 82.4964C127.328 81.9087 126.996 81.1116 126.996 80.2804C126.996 79.4492 127.328 78.6521 127.918 78.0644C128.508 77.4766 129.308 77.1465 130.143 77.1465H144.019C144.854 77.1465 145.654 77.4766 146.244 78.0644C146.835 78.6521 147.166 79.4492 147.166 80.2804C147.166 81.1116 146.835 81.9087 146.244 82.4964C145.654 83.0841 144.854 83.4143 144.019 83.4143Z" fill="#3E71F3"/>
<path d="M186.5 90.252H128.713C128.257 90.252 127.821 90.0719 127.499 89.7513C127.177 89.4308 126.996 88.996 126.996 88.5426C126.996 88.0892 127.177 87.6544 127.499 87.3339C127.821 87.0133 128.257 86.8332 128.713 86.8332H186.5C186.955 86.8332 187.392 87.0133 187.714 87.3339C188.036 87.6544 188.216 88.0892 188.216 88.5426C188.216 88.996 188.036 89.4308 187.714 89.7513C187.392 90.0719 186.955 90.252 186.5 90.252Z" fill="#E6E6E6"/>
<path d="M149.94 97.0897H128.713C128.257 97.0897 127.821 96.9096 127.499 96.589C127.177 96.2685 126.996 95.8337 126.996 95.3803C126.996 94.9269 127.177 94.4921 127.499 94.1715C127.821 93.851 128.257 93.6709 128.713 93.6709H149.94C150.395 93.6709 150.831 93.851 151.153 94.1715C151.475 94.4921 151.656 94.9269 151.656 95.3803C151.656 95.8337 151.475 96.2685 151.153 96.589C150.831 96.9096 150.395 97.0897 149.94 97.0897Z" fill="#E6E6E6"/>
<path d="M144.019 159.199H130.143C129.308 159.199 128.508 158.868 127.918 158.281C127.328 157.693 126.996 156.896 126.996 156.065C126.996 155.234 127.328 154.436 127.918 153.849C128.508 153.261 129.308 152.931 130.143 152.931H144.019C144.854 152.931 145.654 153.261 146.244 153.849C146.835 154.436 147.166 155.234 147.166 156.065C147.166 156.896 146.835 157.693 146.244 158.281C145.654 158.868 144.854 159.199 144.019 159.199Z" fill="#3E71F3"/>
<path d="M186.5 166.036H128.713C128.257 166.036 127.821 165.856 127.499 165.536C127.177 165.215 126.996 164.78 126.996 164.327C126.996 163.874 127.177 163.439 127.499 163.118C127.821 162.798 128.257 162.617 128.713 162.617H186.5C186.955 162.617 187.392 162.798 187.714 163.118C188.036 163.439 188.216 163.874 188.216 164.327C188.216 164.78 188.036 165.215 187.714 165.536C187.392 165.856 186.955 166.036 186.5 166.036Z" fill="#E6E6E6"/>
<path d="M149.94 172.874H128.713C128.257 172.874 127.821 172.694 127.499 172.373C127.177 172.053 126.996 171.618 126.996 171.165C126.996 170.711 127.177 170.276 127.499 169.956C127.821 169.635 128.257 169.455 128.713 169.455H149.94C150.395 169.455 150.831 169.635 151.153 169.956C151.475 170.276 151.656 170.711 151.656 171.165C151.656 171.618 151.475 172.053 151.153 172.373C150.831 172.694 150.395 172.874 149.94 172.874Z" fill="#E6E6E6"/>
<path d="M144.019 194.242H130.143C129.308 194.242 128.508 193.912 127.918 193.324C127.328 192.736 126.996 191.939 126.996 191.108C126.996 190.277 127.328 189.48 127.918 188.892C128.508 188.304 129.308 187.974 130.143 187.974H144.019C144.854 187.974 145.654 188.304 146.244 188.892C146.835 189.48 147.166 190.277 147.166 191.108C147.166 191.939 146.835 192.736 146.244 193.324C145.654 193.912 144.854 194.242 144.019 194.242Z" fill="#3E71F3"/>
<path d="M186.5 201.079H128.713C128.257 201.079 127.821 200.899 127.499 200.579C127.177 200.258 126.996 199.823 126.996 199.37C126.996 198.917 127.177 198.482 127.499 198.161C127.821 197.841 128.257 197.661 128.713 197.661H186.5C186.955 197.661 187.392 197.841 187.714 198.161C188.036 198.482 188.216 198.917 188.216 199.37C188.216 199.823 188.036 200.258 187.714 200.579C187.392 200.899 186.955 201.079 186.5 201.079Z" fill="#E6E6E6"/>
<path d="M149.94 207.917H128.713C128.257 207.917 127.821 207.737 127.499 207.416C127.177 207.096 126.996 206.661 126.996 206.208C126.996 205.754 127.177 205.32 127.499 204.999C127.821 204.678 128.257 204.498 128.713 204.498H149.94C150.395 204.498 150.831 204.678 151.153 204.999C151.475 205.32 151.656 205.754 151.656 206.208C151.656 206.661 151.475 207.096 151.153 207.416C150.831 207.737 150.395 207.917 149.94 207.917Z" fill="#E6E6E6"/>
<path d="M194.653 141.392H84.2278C83.5832 141.391 82.9651 141.136 82.5092 140.682C82.0534 140.228 81.7969 139.613 81.7962 138.971V109.056C81.7969 108.414 82.0533 107.798 82.5092 107.344C82.9651 106.89 83.5832 106.635 84.2278 106.634H194.653C195.298 106.635 195.916 106.89 196.372 107.344C196.828 107.798 197.084 108.414 197.085 109.056V138.971C197.084 139.613 196.828 140.228 196.372 140.682C195.916 141.136 195.298 141.391 194.653 141.392Z" fill="#3E71F3"/>
<path d="M44.5295 176.982C45.5852 184.358 39.9952 217.037 40.616 217.034L48.6433 216.991C48.9294 216.444 52.614 198.812 53.7698 195.983C55.3833 192.057 57.011 188.082 57.6461 183.888C58.244 179.951 57.9494 175.94 57.5603 171.977C57.5784 171.859 57.5681 171.738 57.5302 171.625C57.4923 171.512 57.428 171.409 57.3424 171.326C57.2569 171.242 57.1527 171.18 57.0384 171.145C56.9241 171.109 56.8029 171.102 56.6849 171.122L45.9142 170.569C43.6942 170.455 43.1678 169.971 43.5054 172.142C43.74 173.763 44.295 175.341 44.5295 176.982Z" fill="#151619"/>
<path d="M46.6465 159.048C44.458 162.182 42.1637 165.788 42.8903 169.541C43.4425 172.39 45.6224 174.598 47.6792 176.663C55.9011 184.886 72.113 221.165 72.113 221.165C79.9367 216.179 71.9266 221.308 79.8657 216.037C79.1619 215.983 63.1731 158.743 61.8486 158.666C56.4904 158.313 51.8674 157.791 46.6465 159.048Z" fill="#151619"/>
<path d="M55.3028 129.219C54.1912 128.231 46.3794 125.187 46.3794 125.187C46.2358 125.168 46.09 125.172 45.9478 125.2C45.5032 125.311 45.3004 125.862 45.3953 126.306C45.4903 126.751 44.7112 134.063 44.5105 137.388C44.1588 143.19 47.59 156.335 47.5598 156.736C47.4422 158.17 46.812 159.514 45.7838 160.523C46.051 160.854 63.0241 161.516 64.1787 161.907C64.4117 161.613 62.8644 140.764 62.7932 139.586C62.6745 137.798 56.7702 130.573 55.3028 129.219Z" fill="#E6E6E6"/>
<path d="M43.1968 174.458C43.599 174.258 43.9524 173.974 44.2322 173.623C44.512 173.273 44.7113 172.866 44.8161 172.431C44.9208 171.996 44.9285 171.543 44.8386 171.105C44.7487 170.667 44.5634 170.253 44.2957 169.894L51.4571 130.423L44.7743 130.336L39.8012 169.367C39.2248 169.855 38.8482 170.536 38.7426 171.282C38.6371 172.028 38.81 172.787 39.2285 173.414C39.6471 174.042 40.2822 174.495 41.0136 174.687C41.7449 174.879 42.5217 174.798 43.1968 174.458Z" fill="#FFBD9C"/>
<path d="M43.1392 133.352C42.8605 133.372 42.5829 133.3 42.3496 133.147C41.952 132.808 45.1961 127.62 45.8369 127.543C47.9224 127.304 50.068 127.224 52.0905 127.785C54.1131 128.346 56.0155 129.623 56.9195 131.512C57.2971 132.298 54.5594 136.255 53.3149 135.674C51.8245 134.979 45.1017 133.401 43.1392 133.352Z" fill="#E6E6E6"/>
<path d="M50.5001 124.761C54.6457 124.761 58.0064 121.415 58.0064 117.286C58.0064 113.157 54.6457 109.81 50.5001 109.81C46.3545 109.81 42.9938 113.157 42.9938 117.286C42.9938 121.415 46.3545 124.761 50.5001 124.761Z" fill="#FFBD9C"/>
<path d="M43.1273 129.646C44.1704 129.755 45.2242 129.601 46.1923 129.199C47.1604 128.798 48.012 128.161 48.669 127.346C49.326 126.532 49.7675 125.567 49.9531 124.539C50.1387 123.511 50.0625 122.453 49.7315 121.462C49.4328 120.568 48.9335 119.748 48.6599 118.845C48.3864 117.943 48.3789 116.876 48.9856 116.153C50.1728 114.737 52.4609 115.628 54.291 115.346C56.2411 115.046 57.7372 113.183 57.8932 111.224C58.0493 109.265 57.024 107.327 55.4978 106.081C53.9715 104.836 52.0031 104.222 50.0394 104.03C47.5175 103.784 44.9742 104.188 42.6546 105.203C40.3349 106.219 38.3169 107.813 36.7949 109.831C35.2729 111.849 34.2982 114.223 33.9647 116.724C33.6311 119.226 33.9499 121.771 34.8904 124.115C35.7108 126.159 37.0509 128.063 38.9543 129.183C40.8578 130.302 43.3717 130.517 45.2688 129.387" fill="#151619"/>
<path d="M123.499 120.309H104.317C103.099 120.309 102.108 118.903 102.108 117.175C102.108 115.447 103.099 114.041 104.317 114.041H123.499C124.718 114.041 125.709 115.447 125.709 117.175C125.709 118.903 124.718 120.309 123.499 120.309Z" fill="white"/>
<path d="M175.057 127.147H103.824C103.369 127.147 102.932 126.967 102.61 126.646C102.288 126.326 102.108 125.891 102.108 125.438C102.108 124.984 102.288 124.549 102.61 124.229C102.932 123.908 103.369 123.728 103.824 123.728H175.057C175.512 123.728 175.949 123.908 176.271 124.229C176.593 124.549 176.773 124.984 176.773 125.438C176.773 125.891 176.593 126.326 176.271 126.646C175.949 126.967 175.512 127.147 175.057 127.147Z" fill="#E6E6E6"/>
<path d="M138.497 133.985H103.824C103.369 133.985 102.932 133.805 102.61 133.484C102.288 133.163 102.108 132.729 102.108 132.275C102.108 131.822 102.288 131.387 102.61 131.067C102.932 130.746 103.369 130.566 103.824 130.566H138.497C138.952 130.566 139.388 130.746 139.71 131.067C140.032 131.387 140.213 131.822 140.213 132.275C140.213 132.729 140.032 133.163 139.71 133.484C139.388 133.805 138.952 133.985 138.497 133.985Z" fill="#E6E6E6"/>
<path d="M243 228.43H17V229H243V228.43Z" fill="#151619"/>
</g>
<defs>
<clipPath id="clip0_703_2101">
<rect width="226" height="200" fill="white" transform="translate(17 29)"/>
</clipPath>
</defs>
</svg>
