<svg width="180" height="32" viewBox="0 0 180 32" fill="none" xmlns="http://www.w3.org/2000/svg">
<path d="M52.9414 21.2523C51.8252 22.2301 50.5474 22.7792 49.1082 22.8994C47.668 23.0184 46.3465 22.7169 45.1437 21.9948L36.2568 29.7798C34.3678 31.4346 32.1737 32.1644 29.6745 31.9691C27.1753 31.7738 25.1155 30.7117 23.495 28.7827C21.8745 26.8537 21.1599 24.6131 21.3511 22.061C21.5423 19.5089 22.5824 17.4055 24.4715 15.7507L27.906 12.742C28.8505 11.9146 29.3706 10.8624 29.4663 9.58523C29.5619 8.31027 29.2045 7.19054 28.3943 6.22603C27.584 5.26153 26.5542 4.72992 25.3046 4.6312C24.055 4.53464 22.9579 4.90006 22.0134 5.72746L13.1264 13.5125C13.6137 14.8614 13.6976 16.247 13.3781 17.6694C13.0566 19.0917 12.3376 20.2917 11.2214 21.2695C9.79034 22.5232 8.14425 23.0773 6.28315 22.9318C4.42206 22.7864 2.87769 21.983 1.65005 20.5217C0.422415 19.0603 -0.120202 17.3794 0.0222026 15.4789C0.164607 13.5784 0.951346 12.0013 2.38242 10.7477C3.49865 9.76987 4.76951 9.22686 6.19498 9.11868C7.62029 9.01267 8.94866 9.30817 10.1801 10.0052L19.067 2.22018C20.9561 0.565394 23.1502 -0.164359 25.6493 0.0309177C28.1485 0.226194 30.2084 1.28833 31.8288 3.21734C33.4493 5.14634 34.164 7.38689 33.9727 9.93898C33.7815 12.4911 32.7414 14.5945 30.8524 16.2493L27.4178 19.258C26.4733 20.0854 25.9533 21.1366 25.8577 22.4115C25.762 23.6886 26.1193 24.8095 26.9295 25.774C27.7398 26.7385 28.7702 27.2696 30.0209 27.3673C31.2694 27.4649 32.3659 27.0999 33.3105 26.2725L42.1974 18.4875C41.7101 17.1386 41.6268 15.7525 41.9474 14.3291C42.2678 12.9078 42.9862 11.7083 44.1024 10.7305C45.5335 9.47685 47.1796 8.92274 49.0407 9.06816C50.9018 9.21358 52.4461 10.017 53.6738 11.4783C54.9014 12.9397 55.444 14.6206 55.3016 16.5211C55.1592 18.4216 54.3725 19.9987 52.9414 21.2523ZM8.27508 17.7623C8.76164 17.336 9.02885 16.8107 9.0767 16.1864C9.12243 15.5618 8.9366 15.0011 8.5192 14.5043C8.1018 14.0074 7.58739 13.7345 6.97597 13.6857C6.36439 13.639 5.81531 13.8287 5.32875 14.255C4.84218 14.6812 4.57498 15.2065 4.52712 15.8309C4.48139 16.4554 4.66723 17.0161 5.08463 17.513C5.50202 18.0098 6.01643 18.2827 6.62785 18.3316C7.23944 18.3783 7.78851 18.1885 8.27508 17.7623Z" fill="url(#paint0_linear_569_4382)"/>
<path d="M72.6771 27.6769V10.3603H72.8207L84.7533 27.6769H87.9757V4.16999H84.498V21.5029H84.3704L72.4379 4.16999H69.1995V27.6769H72.6771Z" fill="url(#paint1_linear_569_4382)"/>
<path d="M97.4611 12.6409C99.9817 12.6409 101.689 14.4655 101.768 17.2185H92.9785C93.1699 14.498 94.9725 12.6409 97.4611 12.6409ZM101.752 22.4966C101.274 24.0442 99.6945 25.0216 97.6845 25.0216C94.8449 25.0216 92.9625 23.0016 92.9625 19.939V19.7272H105.23V18.4892C105.23 13.1297 102.231 9.75756 97.4771 9.75756C92.6275 9.75756 89.4689 13.3577 89.4689 18.8964C89.4689 24.4351 92.5956 27.8887 97.6207 27.8887C101.513 27.8887 104.56 25.6732 105.055 22.4966H101.752Z" fill="url(#paint2_linear_569_4382)"/>
<path d="M113.806 27.8887C118.815 27.8887 121.99 24.4025 121.99 18.8313C121.99 13.26 118.799 9.75756 113.806 9.75756C108.813 9.75756 105.607 13.2763 105.607 18.8313C105.607 24.4025 108.797 27.8887 113.806 27.8887ZM113.806 24.9564C110.871 24.9564 109.116 22.6921 109.116 18.8313C109.116 14.9868 110.871 12.6898 113.806 12.6898C116.741 12.6898 118.48 14.9705 118.48 18.8313C118.48 22.6921 116.741 24.9564 113.806 24.9564Z" fill="url(#paint3_linear_569_4382)"/>
<path d="M123.483 4.16999V27.6769H127.056V19.6458H132.385C136.899 19.6458 140.09 16.4855 140.09 11.8916C140.09 7.31402 136.963 4.16999 132.496 4.16999H123.483ZM127.056 7.24885H131.555C134.666 7.24885 136.437 8.94305 136.437 11.9079C136.437 14.8727 134.65 16.5832 131.555 16.5832H127.056V7.24885Z" fill="url(#paint4_linear_569_4382)"/>
<path d="M145.922 25.0379C143.928 25.0379 142.636 24.0605 142.636 22.5455C142.636 20.9816 143.864 20.0856 146.225 19.939L150.437 19.6458V21.0305C150.437 23.36 148.49 25.0379 145.922 25.0379ZM144.997 27.8561C147.358 27.8561 149.511 26.6506 150.469 24.7284H150.548V27.6769H153.85V15.5406C153.85 12.0382 151.123 9.75756 146.895 9.75756C143.003 9.75756 140.099 12.0708 140.004 15.1985H143.242C143.545 13.6672 144.917 12.6735 146.799 12.6735C149.113 12.6735 150.437 13.7813 150.437 15.8013V17.1697L145.762 17.4466C141.487 17.7235 139.142 19.5155 139.142 22.6106C139.142 25.7709 141.535 27.8561 144.997 27.8561Z" fill="url(#paint5_linear_569_4382)"/>
<path d="M156.732 6.01079V9.98563H154.339V12.7713H156.732V23.0179C156.732 26.4388 158.072 27.7909 161.533 27.7909C162.283 27.7909 163.097 27.7095 163.479 27.6117V24.8261C163.256 24.8587 162.666 24.9075 162.299 24.9075C160.847 24.9075 160.177 24.1908 160.177 22.6595V12.7713H163.495V9.98563H160.177V6.01079H156.732Z" fill="url(#paint6_linear_569_4382)"/>
<path d="M164.925 27.6769H168.386V17.5443C168.386 14.7098 170.014 12.8201 172.71 12.8201C175.246 12.8201 176.538 14.4166 176.538 17.0556V27.6769H180V16.3714C180 12.3803 177.719 9.79014 173.906 9.79014C171.258 9.79014 169.471 10.8816 168.434 12.9668H168.355V3.11112H164.925V27.6769Z" fill="url(#paint7_linear_569_4382)"/>
<defs>
<linearGradient id="paint0_linear_569_4382" x1="90" y1="0" x2="90" y2="32" gradientUnits="userSpaceOnUse">
<stop stop-color="#3E71F3"/>
<stop offset="1" stop-color="#3D55D4"/>
</linearGradient>
<linearGradient id="paint1_linear_569_4382" x1="90" y1="0" x2="90" y2="32" gradientUnits="userSpaceOnUse">
<stop stop-color="#3E71F3"/>
<stop offset="1" stop-color="#3D55D4"/>
</linearGradient>
<linearGradient id="paint2_linear_569_4382" x1="90" y1="0" x2="90" y2="32" gradientUnits="userSpaceOnUse">
<stop stop-color="#3E71F3"/>
<stop offset="1" stop-color="#3D55D4"/>
</linearGradient>
<linearGradient id="paint3_linear_569_4382" x1="90" y1="0" x2="90" y2="32" gradientUnits="userSpaceOnUse">
<stop stop-color="#3E71F3"/>
<stop offset="1" stop-color="#3D55D4"/>
</linearGradient>
<linearGradient id="paint4_linear_569_4382" x1="90" y1="0" x2="90" y2="32" gradientUnits="userSpaceOnUse">
<stop stop-color="#3E71F3"/>
<stop offset="1" stop-color="#3D55D4"/>
</linearGradient>
<linearGradient id="paint5_linear_569_4382" x1="90" y1="0" x2="90" y2="32" gradientUnits="userSpaceOnUse">
<stop stop-color="#3E71F3"/>
<stop offset="1" stop-color="#3D55D4"/>
</linearGradient>
<linearGradient id="paint6_linear_569_4382" x1="90" y1="0" x2="90" y2="32" gradientUnits="userSpaceOnUse">
<stop stop-color="#3E71F3"/>
<stop offset="1" stop-color="#3D55D4"/>
</linearGradient>
<linearGradient id="paint7_linear_569_4382" x1="90" y1="0" x2="90" y2="32" gradientUnits="userSpaceOnUse">
<stop stop-color="#3E71F3"/>
<stop offset="1" stop-color="#3D55D4"/>
</linearGradient>
</defs>
</svg>
