<svg width="270" height="320" viewBox="0 0 270 320" fill="none" xmlns="http://www.w3.org/2000/svg">
<g clip-path="url(#clip0_707_2584)">
<mask id="mask0_707_2584" style="mask-type:luminance" maskUnits="userSpaceOnUse" x="5" y="-6" width="261" height="332">
<path d="M266 -6H5V326H266V-6Z" fill="white"/>
</mask>
<g mask="url(#mask0_707_2584)">
<path d="M23.8066 204.188C48.9133 262.661 115.187 287.777 167.114 283.493C181.292 282.325 209.819 279.972 232.092 258.984C274.868 218.679 268.28 134.429 227.332 84.8273C222.058 78.4407 185.557 35.644 128.677 36.2167C87.0331 36.6364 57.803 60.0759 54.2486 62.995C49.759 66.6837 39.8563 75.45 30.9307 89.3562C9.96014 122.033 8.11672 167.649 23.8066 204.188Z" fill="#E0ECFF"/>
<g opacity="0.3">
<path d="M73.6268 57.5731C73.5474 57.6638 73.4518 57.738 73.3444 57.7915C73.237 57.845 73.1198 57.8769 72.9998 57.8852C72.8798 57.8935 72.7598 57.8781 72.6461 57.84C72.5315 57.8017 72.4269 57.7416 72.3358 57.6626C71.596 57.0184 70.8147 56.3955 70.0208 55.813C69.8277 55.6715 69.6978 55.46 69.659 55.2238C69.6193 54.9875 69.6753 54.7454 69.8124 54.5494L69.8223 54.5351C69.8936 54.4381 69.9829 54.356 70.0849 54.2935C70.1877 54.2311 70.3023 54.1895 70.4205 54.1711C70.5395 54.1528 70.6604 54.158 70.7777 54.1865C70.8941 54.2151 71.0042 54.2663 71.1007 54.3373C71.9388 54.9503 72.7589 55.6053 73.5375 56.2836C73.708 56.4321 73.8171 56.6383 73.8442 56.8625C73.8722 57.0867 73.8153 57.3131 73.6854 57.498C73.6674 57.5244 73.6475 57.5495 73.6268 57.5731ZM65.9466 53.2411C65.0796 52.773 64.1828 52.3373 63.2825 51.9462C63.1724 51.8983 63.0723 51.8292 62.9893 51.7427C62.9053 51.6564 62.8404 51.5544 62.7962 51.4426C62.752 51.3308 62.7303 51.2114 62.7321 51.0914C62.7348 50.9713 62.7601 50.8527 62.8079 50.7426C62.8557 50.6324 62.9252 50.5327 63.0118 50.4493C63.0984 50.3658 63.2004 50.3002 63.3122 50.2561C63.4232 50.2121 63.5432 50.1905 63.6632 50.1926C63.7832 50.1947 63.9013 50.2204 64.0114 50.2683C64.9587 50.6799 65.9015 51.1381 66.8154 51.6311C66.9209 51.6882 67.0148 51.7656 67.0905 51.8587C67.1663 51.9519 67.2232 52.059 67.2574 52.1742C67.2917 52.2893 67.3034 52.41 67.2908 52.5294C67.2791 52.649 67.243 52.7649 67.1862 52.8705C67.1681 52.9013 67.1492 52.9312 67.1284 52.96C67.0003 53.1435 66.8091 53.2735 66.5907 53.3252C66.3733 53.377 66.1441 53.3471 65.9466 53.2411ZM58.7472 50.3408C57.7996 50.0786 56.8296 49.8539 55.8622 49.6732C55.6272 49.6252 55.4205 49.4867 55.2866 49.2877C55.1527 49.0887 55.1024 48.8451 55.1464 48.6093C55.1904 48.3736 55.3252 48.1645 55.5219 48.0272C55.7185 47.8899 55.9613 47.8354 56.1978 47.8754C57.2161 48.0651 58.2381 48.3013 59.2358 48.5778C59.3516 48.6099 59.4599 48.6645 59.5546 48.7384C59.6492 48.8124 59.7284 48.9042 59.7876 49.0088C59.8468 49.1133 59.8848 49.2285 59.8994 49.3476C59.9141 49.4669 59.9051 49.5879 59.8731 49.7036C59.8409 49.8194 59.7864 49.9277 59.7125 50.0223C59.6385 50.117 59.5466 50.1961 59.4421 50.2553C59.3376 50.3145 59.2224 50.3525 59.1032 50.3672C58.984 50.3818 58.8631 50.3729 58.7472 50.3408ZM51.0844 49.1246C50.1001 49.0808 49.1032 49.079 48.1206 49.1183C47.9994 49.1254 47.8779 49.1082 47.7634 49.0679C47.6489 49.0275 47.5435 48.9647 47.4535 48.8832C47.3634 48.8017 47.2906 48.703 47.2391 48.593C47.1876 48.483 47.1585 48.3638 47.1537 48.2425C47.1487 48.1211 47.168 48 47.2103 47.8862C47.2527 47.7724 47.3174 47.6682 47.4005 47.5796C47.4836 47.491 47.5835 47.4199 47.6943 47.3704C47.8052 47.3208 47.9249 47.2938 48.0463 47.2911C49.0808 47.2489 50.1305 47.2507 51.1659 47.2973C51.4082 47.3081 51.6363 47.4147 51.8 47.5936C51.9637 47.7726 52.0496 48.0094 52.0388 48.2517C52.028 48.494 51.9214 48.7221 51.7424 48.8858C51.5634 49.0495 51.3268 49.1355 51.0844 49.1246ZM43.3366 49.6464C42.3701 49.8208 41.3973 50.0392 40.4461 50.2969C40.2119 50.3602 39.9621 50.3278 39.7517 50.2069C39.5414 50.0859 39.3877 49.8864 39.3244 49.6521C39.2612 49.4179 39.2936 49.1681 39.4145 48.9577C39.5353 48.7474 39.7349 48.5937 39.9691 48.5305C40.9705 48.262 41.9942 48.0302 43.0117 47.8458C43.13 47.8245 43.2512 47.8267 43.3686 47.8522C43.486 47.8777 43.5972 47.9262 43.6959 47.9947C43.7945 48.0632 43.8788 48.1505 43.9437 48.2515C44.0087 48.3525 44.0531 48.4654 44.0744 48.5837C44.0957 48.7019 44.0936 48.8231 44.068 48.9405C44.0425 49.058 43.9941 49.1691 43.9256 49.2678C43.857 49.3665 43.7698 49.4507 43.6687 49.5156C43.5676 49.5806 43.4547 49.625 43.3366 49.6464ZM35.8983 51.8683C34.9927 52.2531 34.0933 52.6818 33.2236 53.1417C33.1173 53.1995 33.0007 53.2356 32.8805 53.2479C32.7601 53.2603 32.6386 53.2486 32.5228 53.2137C32.4071 53.1788 32.2995 53.1213 32.2061 53.0445C32.1127 52.9677 32.0355 52.8732 31.9788 52.7663C31.9223 52.6595 31.8874 52.5425 31.8763 52.4221C31.8652 52.3017 31.8781 52.1803 31.9141 52.0649C31.9502 51.9495 32.0089 51.8425 32.0866 51.7499C32.1644 51.6573 32.2598 51.5811 32.3671 51.5256C33.2826 51.0406 34.2303 50.5896 35.1824 50.1832C35.293 50.1362 35.4117 50.1115 35.5318 50.1103C35.6518 50.1092 35.771 50.1317 35.8824 50.1767C35.9938 50.2216 36.0953 50.288 36.181 50.3722C36.2667 50.4562 36.335 50.5564 36.382 50.667C36.4291 50.7775 36.4538 50.8961 36.455 51.0163C36.456 51.1364 36.4336 51.2555 36.3887 51.3669C36.3437 51.4783 36.2773 51.5797 36.1932 51.6655C36.1091 51.7512 36.0088 51.8195 35.8983 51.8665V51.8683ZM14.3192 78.0981C14.0808 78.0532 13.8699 77.9153 13.733 77.7151C13.596 77.5147 13.5443 77.2681 13.589 77.0296C13.7805 76.013 14.0194 74.9902 14.2978 73.987C14.33 73.8714 14.3847 73.7631 14.4588 73.6686C14.5329 73.5741 14.6249 73.4951 14.7295 73.436C14.8341 73.377 14.9493 73.3392 15.0686 73.3247C15.1878 73.3103 15.3087 73.3194 15.4244 73.3517C15.5401 73.3839 15.6483 73.4387 15.7429 73.5127C15.8374 73.5868 15.9164 73.6788 15.9754 73.7834C16.0344 73.888 16.0722 74.0032 16.0867 74.1225C16.1012 74.2417 16.092 74.3627 16.0598 74.4783C15.7913 75.4269 15.5685 76.3978 15.3869 77.3634C15.365 77.4817 15.32 77.5944 15.2545 77.6951C15.1889 77.7959 15.1041 77.8827 15.0049 77.9505C14.9057 78.0185 14.794 78.066 14.6764 78.0905C14.5587 78.1151 14.4373 78.1162 14.3192 78.0936V78.0981ZM29.1411 55.6832C28.3447 56.2595 27.5634 56.8769 26.8144 57.5194C26.724 57.6015 26.6182 57.6644 26.5031 57.7048C26.388 57.7453 26.266 57.7622 26.1442 57.7547C26.0225 57.7473 25.9034 57.7156 25.7942 57.6614C25.6848 57.6072 25.5875 57.5318 25.5077 57.4394C25.4281 57.347 25.3676 57.2397 25.3301 57.1237C25.2925 57.0076 25.2785 56.8852 25.2889 56.7637C25.2994 56.6421 25.334 56.5239 25.3909 56.416C25.4476 56.308 25.5255 56.2126 25.6198 56.1351C26.4028 55.4586 27.2305 54.8071 28.0646 54.2004C28.1619 54.1299 28.2722 54.0792 28.3892 54.0513C28.5061 54.0234 28.6273 54.0188 28.7461 54.0379C28.8648 54.0568 28.9786 54.099 29.081 54.162C29.1834 54.225 29.2724 54.3075 29.3429 54.4049C29.4134 54.5022 29.464 54.6126 29.492 54.7295C29.5199 54.8464 29.5244 54.9676 29.5054 55.0864C29.4864 55.2051 29.4443 55.3189 29.3813 55.4213C29.3183 55.5237 29.2358 55.6127 29.1384 55.6832H29.1411ZM16.4696 70.4227C16.3596 70.3746 16.2601 70.3053 16.1768 70.2187C16.0935 70.1321 16.0281 70.03 15.9844 69.9182C15.9405 69.8063 15.9192 69.687 15.9216 69.5668C15.9239 69.4467 15.9499 69.3283 15.998 69.2182C16.4124 68.2706 16.8732 67.3273 17.3672 66.4163C17.4244 66.3106 17.5019 66.2171 17.5953 66.1413C17.6887 66.0655 17.796 66.0088 17.9112 65.9745C18.0265 65.9402 18.1474 65.9289 18.267 65.9413C18.3866 65.9537 18.5026 65.9895 18.6084 66.0468C18.7142 66.104 18.8076 66.1815 18.8834 66.2749C18.9592 66.3682 19.0159 66.4756 19.0502 66.5908C19.0846 66.7061 19.0959 66.827 19.0834 66.9466C19.0711 67.0662 19.0352 67.1822 18.978 67.288C18.5082 68.1542 18.0706 69.0499 17.6768 69.9511C17.6525 70.0074 17.6225 70.0611 17.5873 70.1114C17.4656 70.2844 17.2879 70.41 17.0841 70.4667C16.8804 70.5235 16.6633 70.508 16.4696 70.4227ZM23.4076 60.9102C22.7597 61.6493 22.136 62.427 21.5534 63.2198C21.41 63.4118 21.1971 63.5398 20.9603 63.5764C20.7236 63.613 20.4819 63.5552 20.2873 63.4154C20.0927 63.2757 19.9606 63.0652 19.9197 62.8291C19.8786 62.5931 19.9318 62.3503 20.068 62.1532C20.0713 62.1477 20.0752 62.1426 20.0796 62.1379C20.6925 61.3022 21.3494 60.4834 22.0304 59.7057C22.1847 59.5304 22.4003 59.4209 22.6328 59.3994C22.8653 59.3779 23.0973 59.4462 23.2811 59.5903C23.4648 59.7344 23.5865 59.9433 23.6212 60.1743C23.6559 60.4051 23.6009 60.6406 23.4675 60.8323C23.4488 60.8592 23.4291 60.8851 23.4076 60.9102Z" fill="#91B3FA"/>
<path d="M14.6252 84.1144C14.7326 83.9618 14.7904 83.78 14.7908 83.5935C14.7908 83.1219 14.8051 82.6432 14.8266 82.1689C14.8376 81.9266 14.7519 81.6898 14.5884 81.5106C14.4249 81.3314 14.1969 81.2246 13.9546 81.2136C13.7122 81.2026 13.4754 81.2882 13.2962 81.4518C13.1172 81.6153 13.0102 81.8433 12.9992 82.0856C12.9769 82.5841 12.9643 83.0879 12.9616 83.5846C12.9606 83.7795 13.0218 83.9697 13.1364 84.1273C13.251 84.2851 13.413 84.4014 13.5986 84.461C13.7844 84.5205 13.9841 84.5187 14.1688 84.4565C14.3535 84.3933 14.5134 84.2742 14.6252 84.1144Z" fill="#91B3FA"/>
</g>
<g opacity="0.3">
<path d="M25.3889 109.842C25.5138 109.664 25.5713 109.448 25.551 109.231C25.5306 109.015 25.4338 108.812 25.2779 108.661C24.9397 108.333 24.6032 107.991 24.2766 107.647C24.1967 107.551 24.098 107.473 23.9866 107.416C23.8751 107.36 23.7533 107.327 23.6288 107.319C23.5042 107.312 23.3794 107.33 23.262 107.373C23.1447 107.416 23.0374 107.482 22.9465 107.567C22.8558 107.653 22.7834 107.756 22.7341 107.871C22.6847 107.985 22.6594 108.109 22.6595 108.234C22.6597 108.359 22.6855 108.482 22.7352 108.597C22.7849 108.711 22.8576 108.814 22.9486 108.9C23.2922 109.257 23.6466 109.622 24.0028 109.968C24.0975 110.061 24.2114 110.131 24.3362 110.176C24.4612 110.22 24.5942 110.236 24.7261 110.223C24.858 110.212 24.9856 110.17 25.1001 110.103C25.2145 110.037 25.3131 109.946 25.3889 109.837V109.842Z" fill="#91B3FA"/>
<path d="M78.2964 106.28C78.1467 106.471 77.9283 106.596 77.6875 106.626C77.4466 106.655 77.2039 106.589 77.0126 106.44C76.8205 106.291 76.6969 106.072 76.6662 105.831C76.6364 105.59 76.7032 105.347 76.8529 105.156C77.443 104.397 78.0104 103.601 78.5463 102.781C78.6122 102.681 78.697 102.595 78.7962 102.527C78.8955 102.459 79.0073 102.412 79.1246 102.387C79.2428 102.363 79.3637 102.361 79.4819 102.384C79.6001 102.406 79.7119 102.451 79.813 102.517C79.9131 102.583 79.9997 102.668 80.0674 102.767C80.135 102.866 80.1829 102.977 80.2072 103.095C80.2325 103.213 80.2334 103.334 80.2108 103.452C80.1892 103.57 80.1432 103.683 80.0773 103.783C79.8455 104.141 79.6073 104.491 79.3619 104.832C79.0236 105.323 78.6627 105.811 78.2964 106.28ZM81.2961 99.8692C81.0778 99.7646 80.9091 99.5778 80.8279 99.3496C80.7467 99.1213 80.7594 98.8696 80.8631 98.6513C81.279 97.7753 81.6624 96.8722 82.0026 95.9664C82.091 95.7436 82.2633 95.564 82.4825 95.4675C82.7017 95.3701 82.9498 95.3637 83.1745 95.4476C83.3991 95.5315 83.5814 95.7012 83.6824 95.9186C83.7834 96.136 83.7943 96.3841 83.7149 96.6096C83.3567 97.5623 82.9525 98.5132 82.515 99.4353C82.4933 99.4822 82.4672 99.5273 82.4365 99.5697C82.312 99.7456 82.1298 99.8719 81.9223 99.9269C81.7139 99.9811 81.4928 99.9612 81.298 99.8692H81.2961ZM74.9719 109.993C74.2421 110.703 73.4734 111.393 72.684 112.04C72.5911 112.116 72.4846 112.174 72.3691 112.209C72.2546 112.244 72.1337 112.256 72.0137 112.244C71.8946 112.233 71.7782 112.197 71.6718 112.141C71.5662 112.085 71.4724 112.008 71.3957 111.915C71.319 111.822 71.2622 111.715 71.227 111.6C71.1918 111.485 71.1801 111.364 71.1918 111.245C71.2026 111.125 71.2378 111.008 71.2946 110.903C71.3515 110.796 71.4282 110.703 71.5211 110.626C72.2699 110.011 72.9998 109.357 73.6926 108.683C73.8559 108.525 74.0724 108.432 74.3007 108.424C74.528 108.416 74.7509 108.494 74.9241 108.641C75.0982 108.789 75.2101 108.996 75.239 109.222C75.2678 109.448 75.211 109.678 75.0802 109.863C75.0486 109.91 75.0125 109.954 74.9737 109.993H74.9719ZM84.0523 92.5264C83.935 92.5002 83.824 92.4506 83.7257 92.3821C83.6274 92.3126 83.5435 92.2242 83.4794 92.1231C83.4154 92.0212 83.372 91.9084 83.3513 91.7893C83.3314 91.6711 83.3342 91.5503 83.3612 91.433C83.5741 90.4875 83.7483 89.5231 83.8809 88.5695C83.9143 88.3286 84.0415 88.1121 84.2345 87.965C84.4285 87.8189 84.6721 87.7548 84.9121 87.7882C85.1529 87.8216 85.3695 87.9488 85.5165 88.1427C85.6627 88.3358 85.7267 88.5794 85.6933 88.8194C85.5535 89.8289 85.3695 90.8448 85.1457 91.8399C85.0916 92.0762 84.9463 92.2819 84.7415 92.4109C84.5368 92.5408 84.2887 92.5841 84.0523 92.5309V92.5264ZM68.6314 114.929C67.7644 115.461 66.8623 115.962 65.9466 116.421C65.73 116.531 65.4792 116.549 65.2483 116.473C65.0182 116.397 64.8279 116.232 64.7187 116.015C64.6095 115.799 64.5906 115.548 64.6673 115.317C64.7431 115.087 64.9073 114.897 65.1247 114.788C65.9908 114.352 66.8469 113.875 67.6706 113.37C67.8492 113.26 68.0613 113.215 68.2697 113.243C68.4781 113.272 68.6702 113.37 68.8146 113.524C68.9589 113.677 69.0455 113.875 69.06 114.085C69.0753 114.295 69.0167 114.503 68.8958 114.676C68.8263 114.778 68.7361 114.863 68.6314 114.929ZM61.359 118.353C60.394 118.683 59.4043 118.979 58.4172 119.225C58.182 119.284 57.9328 119.248 57.7246 119.123C57.5163 118.999 57.366 118.797 57.3066 118.562C57.2473 118.327 57.2838 118.078 57.4082 117.869C57.5325 117.661 57.7345 117.511 57.9697 117.452C58.9076 117.215 59.849 116.936 60.7645 116.623C60.8788 116.581 61.0002 116.562 61.1218 116.568C61.2435 116.574 61.3626 116.604 61.4727 116.656C61.5827 116.708 61.6811 116.781 61.7623 116.872C61.8426 116.964 61.9048 117.069 61.9445 117.185C61.9842 117.3 62.0005 117.422 61.9923 117.543C61.9833 117.665 61.9517 117.783 61.8967 117.892C61.8417 118.001 61.7659 118.098 61.6739 118.177C61.5809 118.256 61.4745 118.316 61.359 118.353ZM53.5079 120.111C52.494 120.224 51.464 120.29 50.4474 120.322C50.3273 120.325 50.2077 120.305 50.0956 120.262C49.9833 120.22 49.8807 120.155 49.7934 120.072C49.7061 119.989 49.636 119.89 49.587 119.781C49.538 119.671 49.511 119.553 49.5078 119.433C49.5045 119.313 49.5249 119.193 49.5678 119.081C49.6107 118.968 49.6753 118.866 49.758 118.779C49.8405 118.691 49.9395 118.621 50.0492 118.572C50.1589 118.523 50.2772 118.496 50.3973 118.493C51.3646 118.468 52.3428 118.403 53.3066 118.292C53.5477 118.266 53.7895 118.336 53.979 118.487C54.1683 118.639 54.2898 118.86 54.3164 119.101C54.3431 119.343 54.2729 119.584 54.1213 119.774C53.9697 119.963 53.749 120.084 53.5079 120.111ZM45.4656 120.111C44.4517 119.999 43.4306 119.842 42.431 119.646C42.193 119.598 41.9836 119.458 41.8489 119.256C41.7141 119.054 41.665 118.808 41.7125 118.569C41.76 118.331 41.9 118.122 42.1019 117.987C42.3038 117.852 42.5509 117.804 42.789 117.85C43.7376 118.037 44.7077 118.186 45.6706 118.292C45.911 118.32 46.1309 118.441 46.2818 118.631C46.4328 118.82 46.5026 119.061 46.4759 119.302C46.4586 119.455 46.4036 119.601 46.3157 119.727C46.2222 119.862 46.094 119.969 45.9447 120.037C45.7955 120.106 45.6306 120.133 45.4674 120.116L45.4656 120.111ZM37.614 118.348C36.652 118.016 35.6917 117.638 34.7584 117.225C34.5365 117.127 34.3626 116.945 34.2751 116.718C34.1876 116.492 34.1936 116.24 34.2917 116.018C34.3899 115.796 34.5721 115.623 34.7985 115.535C35.0247 115.448 35.2765 115.453 35.4985 115.552C36.3844 115.944 37.2971 116.302 38.2109 116.617C38.3244 116.657 38.4292 116.718 38.5191 116.798C38.6091 116.877 38.6824 116.974 38.735 117.082C38.7876 117.19 38.8184 117.307 38.8257 117.427C38.8329 117.547 38.8165 117.667 38.7773 117.781C38.7381 117.895 38.6769 117.999 38.5973 118.089C38.5176 118.179 38.421 118.252 38.313 118.305C38.2049 118.357 38.0876 118.388 37.9676 118.395C37.8477 118.403 37.7276 118.386 37.614 118.348ZM30.3493 114.906C29.7104 114.512 29.0759 114.095 28.4639 113.664C28.2419 113.508 28.0223 113.35 27.8052 113.191C27.7074 113.12 27.6246 113.032 27.5616 112.929C27.4986 112.826 27.4568 112.712 27.4387 112.593C27.4205 112.474 27.4264 112.353 27.4558 112.235C27.4852 112.119 27.5377 112.009 27.6101 111.913C27.6811 111.816 27.7706 111.735 27.8735 111.672C27.9762 111.61 28.0903 111.569 28.209 111.551C28.3278 111.533 28.449 111.538 28.5656 111.567C28.6824 111.595 28.7922 111.647 28.8889 111.718C29.0959 111.87 29.3047 112.019 29.5153 112.166C30.0979 112.575 30.7001 112.971 31.3051 113.345C31.4074 113.408 31.4962 113.49 31.5667 113.588C31.6372 113.685 31.6877 113.795 31.7156 113.912C31.7433 114.029 31.748 114.15 31.7289 114.269C31.71 114.387 31.6677 114.501 31.6049 114.603C31.5941 114.619 31.5843 114.635 31.5736 114.65C31.4408 114.841 31.2407 114.973 31.0136 115.022C30.7866 115.07 30.5497 115.03 30.3511 114.91L30.3493 114.906Z" fill="#91B3FA"/>
<path d="M85.8684 84.3401C85.9766 84.1863 86.0353 84.0027 86.0353 83.8146C86.0353 83.3197 86.0244 82.815 86.0037 82.3156C85.9902 82.0761 85.8819 81.8515 85.7042 81.6904C85.5264 81.5293 85.2928 81.4445 85.0528 81.4544C84.8128 81.4642 84.5864 81.568 84.4231 81.7431C84.2589 81.9183 84.1705 82.151 84.1759 82.3909C84.1957 82.866 84.2057 83.3447 84.2057 83.8155C84.2057 84.0097 84.2679 84.1987 84.3834 84.3554C84.498 84.5115 84.6604 84.6279 84.8453 84.6856C85.0303 84.7443 85.2296 84.7425 85.4137 84.6802C85.5977 84.618 85.7565 84.4989 85.8684 84.3401Z" fill="#91B3FA"/>
</g>
<path d="M74.7915 73.2422C74.7671 73.1566 74.7175 73.0806 74.6481 73.0248C74.5786 72.969 74.4938 72.9362 74.4054 72.9307L69.2143 72.6283C68.0261 70.4701 66.4933 68.5202 64.6763 66.8554L65.6011 61.7421C65.6173 61.6548 65.6047 61.5648 65.5668 61.4846C65.5298 61.4044 65.4675 61.338 65.3899 61.2947L59.9509 58.2351C59.8734 58.1914 59.7843 58.1731 59.6959 58.1825C59.6076 58.192 59.5243 58.2288 59.4578 58.2878L55.5705 61.7421C53.2033 61.0585 50.7405 60.765 48.279 60.8732L45.316 56.5965C45.2652 56.5235 45.1931 56.4681 45.1093 56.4379C45.0256 56.4078 44.9346 56.4044 44.8489 56.4283L38.8407 58.1188C38.7551 58.1429 38.6791 58.1931 38.6233 58.2624C38.5675 58.3316 38.5347 58.4166 38.5292 58.5053L38.2268 63.6956C36.0684 64.8841 34.1185 66.4169 32.4539 68.2336L27.338 67.3047C27.2506 67.2892 27.1608 67.3012 27.0806 67.339C27.0005 67.3769 26.934 67.4387 26.8905 67.5159L23.8336 72.9621C23.79 73.0397 23.7717 73.129 23.7811 73.2176C23.7906 73.3061 23.8274 73.3894 23.8864 73.4561L27.3433 77.3399C26.6596 79.707 26.3664 82.1698 26.4753 84.6315L22.1977 87.5942C22.1247 87.6447 22.0693 87.7169 22.0392 87.8008C22.0093 87.8847 22.0061 87.9759 22.0304 88.0616L23.7173 94.07C23.7414 94.1548 23.7916 94.2315 23.8609 94.2866C23.9302 94.3425 24.0151 94.3759 24.1038 94.3813L29.2987 94.6835C30.4871 96.8415 32.0199 98.792 33.8366 100.457L32.9076 105.573C32.8923 105.659 32.9044 105.75 32.9422 105.83C32.98 105.91 33.0417 105.976 33.1188 106.02L38.5633 109.081C38.6409 109.125 38.7302 109.143 38.8188 109.134C38.9073 109.125 38.9906 109.088 39.0573 109.028L42.942 105.572C45.3091 106.255 47.7718 106.549 50.2334 106.441L53.1963 110.717C53.2469 110.79 53.3189 110.846 53.4026 110.876C53.4861 110.905 53.5771 110.909 53.6626 110.886L59.6708 109.198C59.7565 109.173 59.8326 109.124 59.8885 109.054C59.9443 108.985 59.9771 108.9 59.9822 108.811L60.2856 103.62C62.4434 102.431 64.393 100.899 66.0585 99.0834L71.1747 100.012C71.2622 100.027 71.3515 100.015 71.4318 99.9775C71.5121 99.9396 71.5789 99.8782 71.6222 99.8006L74.6769 94.3587C74.7202 94.2811 74.7392 94.1918 74.7292 94.1034C74.7202 94.015 74.6832 93.9311 74.6246 93.8643L71.1675 89.9805C71.8504 87.6114 72.1427 85.1457 72.0317 82.6823L76.3081 79.7193C76.3811 79.6685 76.4371 79.5963 76.4668 79.5126C76.4975 79.4289 76.5002 79.3379 76.4768 79.2522L74.7915 73.2422Z" fill="#91B3FA"/>
<path d="M53.8067 87.9731C52.6913 89.1523 51.1621 89.8533 49.5406 89.9282C47.9191 90.0039 46.3316 89.4473 45.112 88.3755C43.8923 87.3046 43.1355 85.8025 43.0007 84.1847C42.8658 82.567 43.3636 80.9602 44.3891 79.7018C45.4146 78.4436 46.888 77.632 48.4995 77.4376C50.1111 77.2433 51.7353 77.6814 53.0305 78.6598C54.3257 79.6383 55.1911 81.0809 55.4447 82.6841C55.6982 84.2878 55.3202 85.927 54.3901 87.2568C54.2135 87.5094 54.0185 87.7494 53.8067 87.9731ZM44.4463 83.7841C44.4758 84.8967 44.89 85.964 45.6185 86.8057C46.347 87.6466 47.3447 88.2095 48.4414 88.3972C49.5383 88.5857 50.6664 88.3872 51.6335 87.8369C52.6007 87.2866 53.3471 86.4178 53.7456 85.3785C54.1441 84.3401 54.1699 83.1949 53.8188 82.1389C53.4676 81.0829 52.7612 80.1813 51.8199 79.5879C50.8786 78.9943 49.7605 78.7456 48.6563 78.884C47.5522 79.0224 46.5302 79.5393 45.7644 80.3468C45.6005 80.5196 45.4495 80.7041 45.3125 80.8989C44.7198 81.7419 44.4159 82.7541 44.4463 83.7841Z" fill="#BDD0FB"/>
<path d="M61.7298 92.5733C62.0312 92.1439 62.3126 91.6964 62.5743 91.2318C62.6564 91.0847 62.7358 90.9377 62.8134 90.7843C63.1941 90.0526 63.5152 89.2921 63.7751 88.509L63.785 88.4766L63.8148 88.3872C63.8337 88.3286 63.8527 88.2691 63.8707 88.2086C63.8869 88.1617 63.8933 88.113 63.8906 88.0634C63.8878 88.0146 63.8743 87.9659 63.8527 87.9226C63.8301 87.8784 63.7994 87.8387 63.7615 87.8071C63.7236 87.7756 63.6803 87.7512 63.6334 87.7368C63.5865 87.7223 63.5369 87.7178 63.4873 87.7223C63.4386 87.7277 63.3907 87.7422 63.3474 87.7665C63.305 87.79 63.2671 87.8225 63.2365 87.8613C63.2067 87.901 63.1842 87.9452 63.1715 87.993C62.568 89.9651 61.5548 91.7884 60.1999 93.3438C58.8449 94.8991 57.1775 96.1513 55.3064 97.0192C53.4353 97.888 51.4023 98.3527 49.3397 98.3833C47.2772 98.414 45.2312 98.0098 43.3351 97.1979C41.439 96.3859 39.735 95.1833 38.3341 93.6695C36.9333 92.1556 35.867 90.363 35.2045 88.4098C34.542 86.4557 34.2982 84.3852 34.489 82.331C34.6797 80.2771 35.3008 78.2864 36.3117 76.4883C40.2806 69.4188 49.2526 66.9032 56.3167 70.8694C56.7509 71.1133 57.1727 71.3788 57.5803 71.6649C59.3412 72.9016 60.8077 74.5112 61.876 76.3791C61.9022 76.4258 61.9391 76.4658 61.9834 76.4963C62.051 76.5439 62.1331 76.5669 62.2161 76.5615C62.2991 76.5562 62.3776 76.5228 62.4389 76.467C62.5003 76.4111 62.5409 76.336 62.5544 76.254C62.5671 76.172 62.5517 76.088 62.5111 76.0158C61.123 73.5965 59.1063 71.5978 56.6747 70.2313C49.2579 66.0675 39.8358 68.7163 35.6728 76.1304C33.8054 79.4585 33.2377 83.3607 34.0792 87.0827C34.9208 90.8051 37.112 94.0836 40.2295 96.2849C40.6625 96.5889 41.1106 96.8713 41.5718 97.1302C44.9002 98.9995 48.8032 99.5679 52.5263 98.7262C56.2495 97.8835 59.5283 95.6921 61.7289 92.5724L61.7298 92.5733Z" fill="#BDD0FB"/>
<g opacity="0.3">
<path d="M111.352 45.8179C111.422 45.7179 111.458 45.5978 111.454 45.4758C111.45 45.3536 111.407 45.236 111.331 45.1404C111.033 44.7655 110.718 44.3942 110.397 44.038C110.348 43.9814 110.288 43.9352 110.221 43.902C110.153 43.8688 110.08 43.8494 110.005 43.8448C109.93 43.8402 109.855 43.8506 109.785 43.8753C109.714 43.9001 109.649 43.9386 109.593 43.9887C109.538 44.0388 109.492 44.0996 109.46 44.1674C109.429 44.2351 109.41 44.3086 109.407 44.3835C109.403 44.4584 109.415 44.5332 109.441 44.6036C109.467 44.6739 109.506 44.7383 109.558 44.7933C109.864 45.1333 110.162 45.4868 110.453 45.8448C110.499 45.9028 110.555 45.9511 110.62 45.987C110.685 46.0229 110.757 46.0456 110.831 46.0539C110.905 46.0623 110.98 46.056 111.051 46.0354C111.122 46.0148 111.188 45.9805 111.247 45.9342C111.287 45.9008 111.322 45.8616 111.352 45.8179Z" fill="#91B3FA"/>
<path d="M108.308 42.7279C108.21 42.8408 108.071 42.9102 107.921 42.9207C107.772 42.9313 107.624 42.8822 107.511 42.7843C106.913 42.2667 106.29 41.7796 105.643 41.3248C105.508 41.2287 105.37 41.1344 105.232 41.042C105.17 41.0006 105.117 40.9475 105.077 40.8858C105.035 40.824 105.007 40.7547 104.993 40.6819C104.978 40.6091 104.978 40.5342 104.993 40.4615C105.008 40.3888 105.037 40.3196 105.077 40.2581C105.165 40.1379 105.294 40.0551 105.439 40.0266C105.585 39.998 105.736 40.0257 105.861 40.1042C106.007 40.2014 106.15 40.3001 106.293 40.4003C106.971 40.877 107.625 41.3877 108.251 41.9306C108.356 42.0226 108.424 42.1502 108.44 42.2889C108.456 42.4274 108.421 42.5673 108.341 42.6814C108.333 42.6974 108.321 42.7127 108.308 42.7279ZM102.76 39.5896C101.907 39.1569 101.028 38.7768 100.128 38.4513C99.9928 38.3964 99.8837 38.2911 99.8241 38.1575C99.7646 38.024 99.7592 37.8725 99.8088 37.735C99.8584 37.5974 99.9595 37.4844 100.09 37.4197C100.222 37.355 100.373 37.3438 100.512 37.3882C101.455 37.7296 102.377 38.1286 103.272 38.5828C103.338 38.6164 103.397 38.6627 103.445 38.719C103.494 38.7754 103.53 38.8407 103.554 38.9113C103.576 38.9818 103.585 39.0563 103.58 39.1303C103.574 39.2043 103.554 39.2764 103.52 39.3426C103.508 39.3665 103.493 39.3895 103.478 39.4115C103.399 39.5234 103.283 39.6031 103.15 39.6358C103.018 39.6686 102.878 39.6522 102.756 39.5896H102.76ZM97.3738 37.6468C96.4401 37.4362 95.4946 37.2835 94.5419 37.1895C94.4679 37.1822 94.3957 37.1604 94.3308 37.1255C94.2649 37.0905 94.2072 37.043 94.1603 36.9857C94.1134 36.9283 94.0782 36.8623 94.0565 36.7914C94.0349 36.7204 94.0277 36.6459 94.0349 36.5721C94.0421 36.4983 94.0638 36.4266 94.0989 36.3612C94.1341 36.2958 94.1819 36.238 94.2388 36.1909C94.2965 36.1439 94.3624 36.1086 94.4336 36.0871C94.504 36.0656 94.5789 36.0583 94.6529 36.0656C95.6516 36.1635 96.6431 36.3234 97.6228 36.5443C97.769 36.5774 97.8962 36.6671 97.9756 36.7938C98.0559 36.9205 98.082 37.0737 98.0496 37.2199C98.0333 37.2919 98.0026 37.36 97.9602 37.4204C97.8953 37.5125 97.8051 37.5833 97.6995 37.6236C97.5949 37.664 97.4803 37.672 97.3702 37.6468H97.3738ZM91.6748 37.0866C90.7176 37.111 89.764 37.1944 88.8176 37.3363C88.7436 37.3504 88.666 37.3495 88.5921 37.3332C88.5172 37.3171 88.4477 37.286 88.3855 37.242C88.3232 37.198 88.2709 37.1419 88.2303 37.0771C88.1906 37.0123 88.1644 36.94 88.1527 36.8648C88.1419 36.7896 88.1455 36.7128 88.1644 36.6392C88.1843 36.5655 88.2177 36.4964 88.2637 36.4361C88.3106 36.3757 88.3683 36.3253 88.4342 36.288C88.5009 36.2506 88.574 36.227 88.6498 36.2186C89.6422 36.0703 90.6427 35.9827 91.6459 35.9564C91.793 35.9571 91.9337 36.0151 92.0384 36.1181C92.1439 36.2209 92.2044 36.3607 92.208 36.5076C92.2116 36.6545 92.1584 36.7971 92.0582 36.9052C91.959 37.0133 91.8209 37.0784 91.6748 37.0866ZM86.0082 37.9385C85.0862 38.1952 84.1804 38.5078 83.2963 38.8746C83.2277 38.903 83.1547 38.9177 83.0807 38.9177C83.0058 38.9178 82.9327 38.9033 82.8642 38.8748C82.7956 38.8465 82.7333 38.805 82.681 38.7526C82.6287 38.7002 82.5863 38.6379 82.5583 38.5694C82.5295 38.5009 82.515 38.4275 82.515 38.3533C82.515 38.2791 82.5295 38.2056 82.5583 38.1371C82.5863 38.0685 82.6278 38.0062 82.6801 37.9537C82.7324 37.9012 82.7947 37.8595 82.8633 37.8311C83.7898 37.4456 84.7389 37.1169 85.7051 36.8468C85.8477 36.812 85.9983 36.834 86.1246 36.9083C86.2509 36.9825 86.3438 37.1031 86.3835 37.2444C86.4232 37.3859 86.4061 37.5371 86.3357 37.6661C86.2654 37.7951 86.1481 37.8918 86.0082 37.9359V37.9385ZM80.7224 40.1355C79.8915 40.6064 79.0895 41.1279 78.3226 41.697C78.2631 41.7414 78.1954 41.7736 78.1241 41.7918C78.052 41.8101 77.9771 41.814 77.904 41.8033C77.83 41.7926 77.7597 41.7676 77.6956 41.7296C77.6325 41.6916 77.5765 41.6415 77.5323 41.582C77.4881 41.5226 77.4556 41.455 77.4376 41.383C77.4195 41.3111 77.415 41.2363 77.4259 41.1629C77.4367 41.0895 77.4619 41.0189 77.4998 40.9552C77.5377 40.8914 77.5873 40.8357 77.6469 40.7914C78.4507 40.1919 79.2916 39.6429 80.164 39.1475C80.2749 39.0839 80.4048 39.0602 80.532 39.0805C80.6583 39.1007 80.7747 39.1635 80.8613 39.2585C80.9479 39.3536 80.9985 39.4753 81.0066 39.6034C81.0147 39.7316 80.9786 39.8587 80.9046 39.9636C80.8568 40.0325 80.7946 40.0897 80.7224 40.1309V40.1355ZM76.1358 43.5575C75.4447 44.22 74.7969 44.9251 74.1943 45.6685C74.1465 45.7261 74.0887 45.774 74.0238 45.8092C73.9579 45.8445 73.8857 45.8665 73.8117 45.874C73.6629 45.8893 73.5131 45.8444 73.3968 45.7495C73.2804 45.6545 73.2064 45.5173 73.1911 45.3678C73.1766 45.2184 73.2208 45.069 73.3156 44.9526C73.9498 44.1743 74.6291 43.4353 75.3527 42.7396C75.4618 42.6421 75.6044 42.5907 75.7514 42.5964C75.8976 42.602 76.0356 42.6642 76.1376 42.7698C76.2386 42.8754 76.2954 43.0162 76.2945 43.1625C76.2945 43.3089 76.2377 43.4496 76.1358 43.5548V43.5575ZM70.4088 50.7962C70.342 50.7645 70.2815 50.7199 70.2319 50.6651C70.1823 50.6102 70.1435 50.5461 70.1191 50.4764C70.0939 50.4066 70.0831 50.3326 70.0867 50.2588C70.0903 50.1848 70.1083 50.1122 70.1399 50.0453C70.5089 49.2555 70.9194 48.4861 71.3705 47.7402C71.4372 47.6265 71.5076 47.5146 71.5771 47.4027C71.6565 47.2758 71.7837 47.1857 71.9298 47.1522C72.076 47.1186 72.2293 47.1446 72.3565 47.2242C72.4828 47.3039 72.5731 47.4307 72.6064 47.5768C72.6407 47.7228 72.6146 47.8763 72.5352 48.0032C72.4684 48.1082 72.4035 48.2147 72.3385 48.3227C71.9082 49.035 71.5157 49.7695 71.163 50.5232C71.1494 50.5544 71.1323 50.5843 71.1133 50.6127C71.0358 50.7217 70.9212 50.7994 70.7913 50.8322C70.6614 50.8649 70.5242 50.8506 70.4042 50.7917L70.4088 50.7962Z" fill="#91B3FA"/>
</g>
<g opacity="0.3">
<path d="M112.012 74.6552C111.434 75.4548 110.809 76.2189 110.14 76.9434C110.09 77.0011 110.029 77.0482 109.961 77.0819C109.892 77.1156 109.818 77.1352 109.743 77.1396C109.667 77.1439 109.591 77.1329 109.519 77.1072C109.448 77.0815 109.382 77.0416 109.326 76.99C109.27 76.9383 109.226 76.8759 109.194 76.8066C109.163 76.7372 109.146 76.6623 109.144 76.5863C109.144 76.5102 109.157 76.4347 109.185 76.3641C109.214 76.2936 109.256 76.2294 109.31 76.1756C109.95 75.485 110.547 74.7561 111.099 73.993C111.186 73.871 111.319 73.7885 111.466 73.7638C111.614 73.739 111.765 73.774 111.887 73.861C112.01 73.9479 112.092 74.0798 112.116 74.2276C112.141 74.3754 112.106 74.527 112.02 74.6489L112.012 74.6552ZM112.829 72.3768C112.698 72.3041 112.602 72.1824 112.56 72.0384C112.519 71.8945 112.537 71.7401 112.609 71.6091C113.064 70.7851 113.469 69.9346 113.822 69.0622C113.879 68.9234 113.988 68.8126 114.126 68.7543C114.264 68.6959 114.419 68.6949 114.558 68.7512C114.697 68.8076 114.808 68.9168 114.867 69.0548C114.925 69.1929 114.926 69.3484 114.87 69.4872C114.498 70.4016 114.073 71.293 113.595 72.1567C113.584 72.1746 113.574 72.1916 113.562 72.2086C113.482 72.3218 113.363 72.4014 113.228 72.4325C113.092 72.4635 112.951 72.4437 112.829 72.3768ZM107.997 78.9891C107.243 79.6256 106.451 80.2162 105.625 80.7574C105.5 80.8376 105.348 80.8652 105.202 80.8341C105.057 80.8029 104.929 80.7156 104.847 80.5911C104.766 80.4665 104.736 80.3149 104.766 80.1689C104.796 80.0229 104.882 79.8945 105.005 79.8114C105.793 79.2956 106.549 78.7325 107.269 78.1255C107.373 78.0372 107.507 77.9901 107.644 77.993C107.781 77.9958 107.912 78.0485 108.013 78.1411C108.114 78.2336 108.178 78.3598 108.194 78.4961C108.208 78.6324 108.173 78.7694 108.094 78.8817C108.067 78.9213 108.036 78.9573 108.001 78.9891H107.997ZM115.12 67.0801C114.974 67.0411 114.852 66.9462 114.777 66.8163C114.702 66.6864 114.681 66.5322 114.72 66.3874C114.964 65.4782 115.153 64.5551 115.286 63.6231C115.296 63.5497 115.321 63.479 115.359 63.4152C115.397 63.3513 115.446 63.2954 115.506 63.2509C115.565 63.2063 115.632 63.1738 115.704 63.1553C115.776 63.1368 115.85 63.1326 115.924 63.1431C115.997 63.1534 116.069 63.1782 116.132 63.2159C116.196 63.2536 116.252 63.3036 116.297 63.3628C116.341 63.4221 116.374 63.4896 116.392 63.5615C116.411 63.6333 116.415 63.7081 116.404 63.7815C116.265 64.7591 116.068 65.7274 115.811 66.6809C115.793 66.7449 115.766 66.8054 115.728 66.8599C115.661 66.9537 115.568 67.0251 115.46 67.0644C115.351 67.1038 115.234 67.1092 115.123 67.0801H115.12ZM103.062 82.2231C102.177 82.6593 101.266 83.0419 100.335 83.3686C100.265 83.3932 100.19 83.4037 100.116 83.3997C100.042 83.3955 99.9702 83.3769 99.9035 83.3448C99.8367 83.3127 99.7763 83.2677 99.7276 83.2125C99.6779 83.1572 99.6392 83.0927 99.6148 83.0227C99.5904 82.9528 99.5796 82.8787 99.5841 82.8046C99.5877 82.7305 99.6067 82.658 99.6391 82.5911C99.6707 82.5243 99.7158 82.4645 99.7709 82.4149C99.8268 82.3655 99.8909 82.3274 99.9612 82.3028C100.849 81.9911 101.718 81.6259 102.561 81.2093C102.695 81.1484 102.847 81.1419 102.986 81.1912C103.124 81.2406 103.238 81.3419 103.303 81.4737C103.368 81.6055 103.38 81.7574 103.334 81.8974C103.289 82.0373 103.191 82.1541 103.062 82.2231ZM97.4902 84.1785C96.5257 84.3897 95.5505 84.544 94.568 84.6396C94.4192 84.654 94.2703 84.608 94.1548 84.5133C94.0394 84.4177 93.9663 84.2805 93.9518 84.131C93.9374 83.9819 93.9825 83.8332 94.0781 83.7175C94.1738 83.6018 94.3109 83.5289 94.4598 83.5145C95.3971 83.4237 96.3282 83.2771 97.2475 83.0752C97.3197 83.0592 97.3945 83.0576 97.4676 83.0707C97.5407 83.0837 97.6111 83.111 97.6733 83.1509C97.7356 83.1909 97.7897 83.2428 97.8321 83.3037C97.8745 83.3645 97.9043 83.4331 97.9205 83.5056C97.9367 83.578 97.9377 83.6529 97.925 83.7259C97.9124 83.799 97.8844 83.8687 97.8447 83.9311C97.805 83.9937 97.7527 84.0477 97.6923 84.0901C97.6309 84.1325 97.5623 84.1625 97.4902 84.1785ZM91.6107 84.7443C90.6219 84.719 89.6358 84.6342 88.6579 84.4899C88.509 84.4682 88.3764 84.3879 88.2862 84.2679C88.1969 84.1477 88.159 83.9969 88.1815 83.8488C88.2032 83.7005 88.2826 83.567 88.4035 83.4777C88.5235 83.3883 88.6741 83.3504 88.8221 83.3722C89.754 83.5096 90.6932 83.5903 91.6342 83.6138C91.7803 83.622 91.9184 83.687 92.0185 83.795C92.1177 83.903 92.1719 84.0455 92.1683 84.1924C92.1646 84.3392 92.1033 84.479 91.9986 84.5819C91.894 84.6847 91.7533 84.7434 91.6062 84.7443H91.6107Z" fill="#91B3FA"/>
<path d="M116.541 61.1158C116.606 61.0237 116.642 60.9143 116.644 60.8016C116.652 60.3184 116.644 59.8325 116.627 59.3574C116.615 59.2116 116.548 59.076 116.439 58.979C116.329 58.882 116.186 58.8311 116.04 58.8372C115.894 58.8432 115.756 58.9055 115.655 59.0113C115.553 59.1169 115.498 59.2577 115.498 59.4039C115.517 59.8567 115.522 60.3202 115.514 60.782C115.512 60.903 115.548 61.0214 115.618 61.1199C115.689 61.2185 115.789 61.2918 115.904 61.3292C116.019 61.3666 116.144 61.366 116.258 61.3276C116.373 61.2892 116.472 61.2149 116.541 61.1158Z" fill="#91B3FA"/>
</g>
<path d="M109.169 53.2868C109.153 53.2295 109.119 53.1786 109.073 53.1414C109.027 53.1042 108.97 53.0824 108.911 53.0792L105.435 52.8761C104.64 51.4317 103.614 50.1269 102.399 49.0129L103.02 45.5899C103.03 45.5314 103.022 45.4709 102.997 45.4171C102.972 45.3632 102.93 45.3185 102.878 45.2893L99.2359 43.2453C99.1845 43.2161 99.1249 43.2038 99.0654 43.2101C99.0058 43.2163 98.9508 43.2408 98.9057 43.2803L96.311 45.5935C94.7268 45.1359 93.0785 44.9397 91.4321 45.0127L89.45 42.1491C89.4157 42.1001 89.367 42.063 89.3111 42.0427C89.2551 42.0225 89.1938 42.0204 89.136 42.0363L85.1169 43.1657C85.0591 43.1817 85.0086 43.2152 84.9707 43.2616C84.9337 43.308 84.9112 43.3649 84.9085 43.4243L84.7055 46.9001C83.2611 47.695 81.9565 48.7206 80.8424 49.9364L77.4186 49.3154C77.36 49.3048 77.2995 49.3128 77.2463 49.3382C77.1922 49.3634 77.1471 49.4049 77.1182 49.4567L75.0739 53.0998C75.045 53.1517 75.0324 53.2114 75.0396 53.2706C75.0459 53.3298 75.0703 53.3855 75.11 53.43L77.4222 56.0251C76.9648 57.609 76.769 59.2569 76.8412 60.904L73.9777 62.887C73.929 62.9209 73.892 62.9691 73.8713 63.0252C73.8514 63.0812 73.8496 63.1421 73.8649 63.1994L74.9945 67.2201C75.0107 67.2772 75.0441 67.3279 75.091 67.3651C75.137 67.4023 75.1939 67.4241 75.2534 67.4277L78.7286 67.6308C79.5243 69.0759 80.5501 70.3817 81.7662 71.4967L81.1401 74.9205C81.1293 74.979 81.1374 75.0395 81.1626 75.0933C81.1879 75.1472 81.2294 75.1919 81.2808 75.2212L84.9229 77.2651C84.9752 77.2943 85.0348 77.3066 85.0943 77.3002C85.153 77.2938 85.2089 77.2689 85.2531 77.2292L87.8486 74.9169C89.4329 75.3745 91.0802 75.5707 92.7276 75.4977L94.7106 78.3613C94.7449 78.4121 94.7936 78.4507 94.8513 78.4715C94.9091 78.4923 94.9713 78.4941 95.03 78.4768L99.0509 77.3474C99.1078 77.3312 99.1592 77.2976 99.1962 77.2513C99.2332 77.205 99.2557 77.1481 99.2593 77.0888L99.4614 73.6131C100.906 72.8176 102.21 71.792 103.325 70.5767L106.747 71.1978C106.806 71.2083 106.866 71.2003 106.921 71.175C106.975 71.1497 107.019 71.1083 107.049 71.0564L109.093 67.4151C109.122 67.3632 109.134 67.3034 109.127 67.2443C109.121 67.1853 109.097 67.1296 109.057 67.0849L106.744 64.4898C107.202 62.906 107.398 61.258 107.325 59.6109L110.188 57.6279C110.238 57.5941 110.275 57.5459 110.295 57.4899C110.315 57.4338 110.317 57.3728 110.301 57.3156L109.169 53.2868Z" fill="#91B3FA"/>
<path d="M95.1842 63.1956C94.4246 63.9954 93.3835 64.4696 92.2819 64.5185C91.1795 64.5673 90.1014 64.1871 89.2741 63.4576C88.4459 62.728 87.9335 61.706 87.8442 60.6064C87.7539 59.5068 88.0941 58.4153 88.7923 57.5612C89.4906 56.707 90.4929 56.1569 91.5882 56.0263C92.6834 55.8956 93.7877 56.1948 94.6664 56.8609C95.546 57.5269 96.1333 58.508 96.3047 59.5978C96.4762 60.6877 96.2181 61.8015 95.5848 62.7051C95.463 62.878 95.3295 63.0418 95.1842 63.1956ZM89.9201 62.536C90.2196 62.8201 90.5723 63.0425 90.9576 63.1902C91.3437 63.3381 91.7542 63.4086 92.1665 63.3976C92.5797 63.3866 92.9856 63.2944 93.3628 63.1264C93.7399 62.9582 94.08 62.7175 94.3642 62.4179C94.9379 61.8127 95.2474 61.0044 95.2257 60.1708C95.2032 59.3372 94.8504 58.5467 94.2451 57.9731C93.6397 57.3994 92.8314 57.0896 91.9978 57.1119C91.1651 57.1343 90.3739 57.4868 89.8001 58.0921C89.6945 58.2042 89.5971 58.3238 89.5078 58.4499C89.0765 59.0678 88.8808 59.8198 88.9565 60.5695C89.0323 61.3192 89.3742 62.017 89.9201 62.536Z" fill="#BDD0FB"/>
<path d="M100.698 66.3955C100.904 66.1032 101.096 65.798 101.276 65.4801C101.63 64.8481 101.92 64.1819 102.14 63.4916L102.17 63.4021C102.204 63.2884 102.202 63.1666 102.163 63.054C102.126 62.9415 102.052 62.8441 101.955 62.7757C101.906 62.7413 101.852 62.715 101.795 62.6978C101.652 62.6539 101.498 62.6686 101.365 62.7385C101.232 62.8084 101.134 62.9281 101.089 63.071C100.89 63.7178 100.622 64.3415 100.291 64.9314L100.235 65.0281C99.4515 66.3971 98.3364 67.5476 96.9931 68.374C96.2623 68.8227 95.4747 69.1709 94.6511 69.4095L94.6303 69.4157L94.568 69.4327C93.3663 69.7739 92.1078 69.8734 90.8673 69.7251C89.6268 69.5769 88.4279 69.184 87.3398 68.5692C87.0547 68.4098 86.7778 68.2359 86.5107 68.0484C85.3478 67.2269 84.3843 66.1551 83.6905 64.9117C82.9977 63.6683 82.5917 62.2851 82.5042 60.8642C82.4167 59.4432 82.6494 58.0206 83.1844 56.7014C83.7194 55.3823 84.5449 54.2001 85.5977 53.2421C86.6506 52.284 87.9055 51.5746 89.2696 51.166C90.6328 50.7575 92.0708 50.6603 93.4773 50.8815C94.8838 51.1028 96.2226 51.637 97.3946 52.4445C98.5674 53.2522 99.5435 54.3127 100.252 55.5478C100.292 55.6191 100.349 55.6803 100.417 55.7267C100.522 55.8004 100.65 55.8362 100.778 55.828C100.906 55.8198 101.027 55.7682 101.122 55.6816C101.217 55.5951 101.279 55.4789 101.299 55.3521C101.319 55.2252 101.296 55.0954 101.232 54.984C100.44 53.6014 99.3478 52.4142 98.036 51.5101C96.7242 50.6058 95.2266 50.0077 93.6523 49.7597C92.0789 49.5117 90.4695 49.6202 88.943 50.0771C87.4165 50.5342 86.0127 51.328 84.8345 52.4002C83.6554 53.4722 82.7324 54.7952 82.1334 56.2716C81.5352 57.748 81.2754 59.3399 81.3738 60.93C81.4721 62.5202 81.9259 64.0681 82.7027 65.4592C83.4785 66.8505 84.5575 68.0496 85.8594 68.9682C86.158 69.1782 86.4674 69.3728 86.7859 69.5517C89.0846 70.8383 91.7785 71.2278 94.3479 70.6449C96.9173 70.0621 99.1791 68.5483 100.698 66.3955Z" fill="#BDD0FB"/>
<path d="M186.067 54.7858V279.411C186.067 280.895 185.467 282.235 184.444 283.061C183.669 283.688 182.69 284.089 181.612 284.045L179.151 283.956C176.664 283.867 174.422 281.587 174.422 278.987V55.166L186.067 54.7858Z" fill="#ED9103"/>
<path d="M190.75 46.727C190.747 48.5333 190.307 50.3122 189.466 51.9109C188.626 53.5097 187.41 54.8809 185.923 55.9066C184.259 57.0607 182.297 57.7087 180.274 57.7724C179.272 57.8044 178.273 57.6864 177.306 57.4226C176.605 57.2308 175.929 56.9625 175.287 56.6225C175.127 56.533 174.966 56.448 174.808 56.3541C171.842 54.5643 169.87 51.2649 169.87 47.4276C169.87 41.5375 174.523 36.5942 180.274 36.3812C186.049 36.1647 190.75 40.7957 190.75 46.727Z" fill="#ED9103"/>
<path d="M185.949 46.3379C185.947 47.7423 185.606 49.1253 184.952 50.3685C184.298 51.6116 183.354 52.6777 182.197 53.4755C180.904 54.372 179.38 54.8758 177.806 54.9261C176.458 54.9705 175.121 54.6621 173.93 54.0311C173.805 53.9632 173.68 53.8951 173.558 53.8191C171.251 52.4302 169.717 49.8628 169.717 46.8793C169.717 42.3001 173.333 38.4567 177.806 38.2884C182.298 38.1265 185.949 41.7265 185.949 46.3379Z" fill="#FFB84A"/>
<path d="M101.893 62.8162L102.788 63.278L119.729 52.8875L202.693 65.1518L214.297 66.4798L213.613 68.6464C213.523 68.8791 200.317 78.4999 200.317 78.4999L210.592 91.9896L210.098 93.3763C210.072 93.4548 210.018 93.5206 209.948 93.5648C209.879 93.6081 209.795 93.6262 209.713 93.6153L199.044 91.9626L116.033 79.1031C115.8 79.0663 115.585 78.9534 115.422 78.7818L102.072 64.8038C101.985 64.7109 101.917 64.6012 101.874 64.4813C101.831 64.3614 101.812 64.2339 101.821 64.1067L101.893 62.8162Z" fill="#FFCA78"/>
<path d="M120.663 51.9757L214.296 66.4798C214.316 66.4837 214.334 66.4933 214.349 66.5074C214.363 66.5213 214.373 66.5392 214.378 66.5588C214.381 66.5784 214.38 66.5988 214.373 66.6175C214.366 66.6362 214.353 66.6524 214.337 66.6642L201.143 76.3163C201.056 76.3808 200.998 76.4755 200.977 76.5816C200.957 76.6877 200.978 76.7975 201.035 76.889L210.469 91.7938C210.48 91.8101 210.486 91.829 210.486 91.8489C210.487 91.8678 210.481 91.8868 210.471 91.9039C210.46 91.9202 210.446 91.9337 210.429 91.9427C210.412 91.9508 210.392 91.9544 210.373 91.9526L116.686 77.4385C116.417 77.3968 116.169 77.269 115.979 77.0743L102.019 62.9352C102.006 62.9209 101.995 62.9035 101.988 62.8846C101.983 62.8657 101.98 62.8456 101.983 62.8259C101.986 62.8062 101.993 62.7872 102.004 62.7706C102.015 62.7539 102.029 62.7398 102.046 62.7294L119.818 52.1421C120.072 51.9891 120.371 51.9302 120.663 51.9757Z" fill="#ED9103"/>
<path d="M110.039 150.373L110.988 150.606L124.597 136.884L205.723 129.456L216.551 128.104C216.604 128.097 216.657 128.102 216.708 128.119C216.759 128.135 216.805 128.162 216.844 128.198C216.883 128.234 216.914 128.28 216.934 128.328C216.954 128.378 216.962 128.431 216.96 128.484L216.866 130.254C216.832 130.496 206.542 142.638 206.542 142.638L219.335 153.047L219.186 154.473C219.18 154.554 219.146 154.628 219.09 154.686C219.033 154.744 218.959 154.78 218.879 154.788L208.428 155.672L127.122 162.552C126.893 162.571 126.664 162.513 126.471 162.387L110.664 152.214C110.56 152.147 110.471 152.058 110.403 151.954C110.334 151.851 110.288 151.734 110.266 151.612L110.039 150.373Z" fill="#ADCEFF"/>
<path d="M125.272 135.806L216.71 128.068C216.751 128.065 216.793 128.074 216.829 128.095C216.865 128.114 216.895 128.145 216.914 128.182C216.933 128.219 216.941 128.262 216.936 128.303C216.932 128.345 216.915 128.383 216.888 128.416L206.821 140.375C206.754 140.457 206.721 140.56 206.726 140.665C206.732 140.77 206.775 140.869 206.85 140.943L219.179 152.893C219.193 152.906 219.202 152.922 219.206 152.941C219.211 152.959 219.209 152.978 219.203 152.996C219.197 153.014 219.185 153.03 219.171 153.041C219.156 153.052 219.138 153.06 219.119 153.061L127.352 160.825C127.089 160.848 126.825 160.785 126.601 160.646L110.177 150.462C110.16 150.452 110.146 150.438 110.136 150.422C110.125 150.405 110.119 150.386 110.117 150.367C110.114 150.348 110.117 150.328 110.123 150.31C110.13 150.292 110.14 150.275 110.154 150.261L124.513 136.16C124.716 135.956 124.985 135.831 125.272 135.806Z" fill="#91B3FA"/>
<path d="M257.644 104.544L256.66 104.937L239.58 93.8797L150.696 100.7L138.32 101.406L138.824 103.343C138.904 103.574 152.103 113.733 152.103 113.733L140.101 126.134L140.509 127.504C140.535 127.584 140.587 127.653 140.657 127.699C140.729 127.745 140.813 127.766 140.897 127.757L152.332 126.808L241.315 119.417C241.562 119.398 241.797 119.304 241.99 119.148L257.292 106.46C257.39 106.38 257.47 106.28 257.526 106.166C257.582 106.054 257.613 105.929 257.617 105.803L257.644 104.544Z" fill="#3E71F3"/>
<path d="M238.663 92.9423L138.504 101.265C138.467 101.267 138.432 101.28 138.403 101.303C138.374 101.326 138.352 101.358 138.342 101.393C138.332 101.429 138.333 101.467 138.344 101.501C138.357 101.536 138.379 101.567 138.409 101.589L151.408 111.575C151.449 111.606 151.484 111.647 151.511 111.692C151.537 111.738 151.554 111.789 151.559 111.841C151.566 111.893 151.561 111.947 151.547 111.997C151.532 112.048 151.507 112.095 151.474 112.136L140.247 125.952C140.234 125.967 140.226 125.986 140.224 126.006C140.223 126.026 140.227 126.046 140.236 126.063C140.246 126.081 140.26 126.095 140.278 126.104C140.297 126.113 140.316 126.117 140.336 126.114L240.767 117.773C241.052 117.749 241.324 117.642 241.547 117.463L257.51 104.653C257.525 104.641 257.537 104.625 257.545 104.607C257.553 104.588 257.557 104.57 257.556 104.55C257.554 104.53 257.548 104.511 257.539 104.494C257.529 104.478 257.514 104.463 257.498 104.452L239.544 93.1525C239.281 92.9892 238.972 92.9153 238.663 92.9423Z" fill="#3E71F3"/>
<path d="M183.743 75.2932C184.056 73.3545 182.74 71.5278 180.801 71.2131C178.863 70.8983 177.037 72.2149 176.722 74.1536C176.407 76.0922 177.723 77.919 179.662 78.2336C181.601 78.5483 183.428 77.2319 183.743 75.2932Z" fill="#F3AB3E"/>
<path d="M180.466 76.3341C181.671 76.3341 182.647 75.3573 182.647 74.1524C182.647 72.9474 181.671 71.9706 180.466 71.9706C179.261 71.9706 178.284 72.9474 178.284 74.1524C178.284 75.3573 179.261 76.3341 180.466 76.3341Z" fill="#F3AB3E"/>
<path d="M182.986 111.616C183.42 109.775 182.279 107.931 180.439 107.496C178.598 107.062 176.753 108.202 176.319 110.043C175.885 111.883 177.025 113.728 178.865 114.162C180.706 114.597 182.551 113.457 182.986 111.616Z" fill="#F3AB3E"/>
<path d="M179.894 112.393C181.055 112.393 181.996 111.452 181.996 110.291C181.996 109.13 181.055 108.189 179.894 108.189C178.734 108.189 177.792 109.13 177.792 110.291C177.792 111.452 178.734 112.393 179.894 112.393Z" fill="#F3AB3E"/>
<path d="M182.387 145.747C183.777 144.358 183.777 142.105 182.387 140.716C180.997 139.327 178.744 139.327 177.355 140.716C175.966 142.105 175.966 144.358 177.355 145.747C178.744 147.137 180.997 147.137 182.387 145.747Z" fill="#F3AB3E"/>
<path d="M182.231 143.159C182.508 141.985 181.781 140.81 180.607 140.533C179.434 140.255 178.258 140.982 177.981 142.156C177.704 143.33 178.431 144.506 179.604 144.783C180.778 145.06 181.954 144.333 182.231 143.159Z" fill="#F3AB3E"/>
<path d="M103.863 170.38C75.6648 169.646 44.4694 177.22 44.4694 177.22C37.042 218.199 40.311 264.551 41.5754 278.589C41.6923 279.867 42.2248 281.072 43.0916 282.019C43.9584 282.965 45.1117 283.601 46.3746 283.831C60.946 286.509 76.3126 284.883 84.0433 283.707C85.512 283.483 86.877 282.817 87.9578 281.799C89.0386 280.78 89.7838 279.457 90.0942 278.004C95.2041 254.23 109.796 201.771 109.796 201.771C123.591 200.193 134.981 196.325 144.379 191.157C137.327 182.825 134.065 172.276 132.665 166.045C122.666 169.048 112.561 170.607 103.863 170.38Z" fill="#3E71F3"/>
<path d="M187.565 129.636C184.827 126.262 182.255 126.408 182.255 126.408C177.937 143.9 155.09 159.31 132.667 166.045C134.067 172.276 137.329 182.825 144.381 191.158C181.683 170.649 187.565 129.636 187.565 129.636Z" fill="#FFBD9C"/>
<path d="M186.884 130.479C187.165 131.403 183.795 132.774 181.855 128.986C181.803 127.179 180.781 119.429 181.87 117.969C187.695 110.183 198.934 100.467 198.934 100.467C200.801 102.347 199.232 104.155 199.232 104.155L193.773 109.736C194.885 111.794 196.248 113.529 196.871 116.006C197.343 117.886 197.024 119.881 196.065 121.576C195.107 123.272 193.785 125.488 192.543 127.214C190.189 130.485 186.884 130.479 186.884 130.479Z" fill="#FFBD9C"/>
<path d="M55.0289 204.631L44.4693 177.22C44.4693 177.22 17.9559 194.867 13.4072 217.519C18.381 217.934 27.4264 219.315 36.249 223.873C38.301 213.179 55.0289 204.631 55.0289 204.631Z" fill="#3E71F3"/>
<path d="M77.8039 230.548C77.8039 230.548 48.0678 246.982 38.225 232.612C36.1811 229.629 35.7139 226.68 36.2509 223.876C27.4283 219.312 18.3828 217.934 13.4091 217.522C12.0382 224.352 12.6583 231.634 16.6083 239.027C33.7846 271.171 81.648 237.879 81.648 237.879L77.8039 230.548Z" fill="#FFBD9C"/>
<path d="M71.7268 256.518L87.9236 199.949C88.0129 199.635 88.1933 199.356 88.4414 199.144C88.6895 198.932 88.9953 198.8 89.3192 198.762C92.254 198.42 100.758 197.457 110.577 196.627C122.405 195.627 136.139 194.816 144.347 195.506C144.616 195.528 144.876 195.615 145.104 195.76C145.332 195.906 145.52 196.104 145.654 196.339C145.787 196.574 145.861 196.838 145.869 197.108C145.877 197.378 145.819 197.646 145.699 197.888C141.032 207.33 121.834 245.74 112.22 258.323C112.064 258.528 111.862 258.694 111.63 258.808C111.398 258.922 111.143 258.98 110.885 258.977L73.3002 258.629C73.0449 258.626 72.7941 258.564 72.5677 258.449C72.3403 258.333 72.1427 258.167 71.9912 257.963C71.8387 257.759 71.7359 257.521 71.6898 257.271C71.6438 257.021 71.6565 256.763 71.7268 256.518Z" fill="#3D55D4"/>
<path d="M75.6404 242.85C75.6404 242.85 73.3841 233.572 74.298 230.281C75.2128 226.989 76.972 222.757 82.8506 223.697C88.7292 224.638 95.6561 227.115 95.6561 227.115C95.6561 227.115 95.306 231.403 90.8384 230.02L93.6126 232.168C93.6126 232.168 93.2157 235.6 89.4437 233.766L92.0194 236.609C92.0194 236.609 90.3991 239.428 87.6222 237.619C84.8453 235.811 83.5137 243.968 75.6404 242.85Z" fill="#FFBD9C"/>
<path d="M109.497 213.513C109.497 214.454 109.777 215.374 110.299 216.156C110.822 216.938 111.564 217.547 112.433 217.907C113.302 218.267 114.258 218.362 115.181 218.178C116.103 217.994 116.95 217.542 117.616 216.877C118.281 216.211 118.734 215.364 118.917 214.442C119.101 213.519 119.006 212.562 118.646 211.694C118.286 210.825 117.677 210.082 116.895 209.56C116.113 209.038 115.194 208.758 114.253 208.758C112.991 208.758 111.782 209.26 110.89 210.151C109.999 211.043 109.497 212.252 109.497 213.513Z" fill="#91B3FA"/>
<path d="M89.7586 216.646L93.056 205.46C93.2473 204.792 93.6172 204.188 94.1242 203.715C94.6321 203.24 95.2591 202.914 95.9385 202.768C106.276 200.611 134.568 200.154 134.852 200.149L134.834 198.885C133.67 198.903 106.135 199.349 95.6796 201.532C94.7774 201.724 93.9438 202.158 93.268 202.786C92.5923 203.415 92.0997 204.216 91.8435 205.102L88.5452 216.288L89.7586 216.646Z" fill="#BDD0FB"/>
<path d="M184.839 283.702C184.674 283.675 184.517 283.615 184.376 283.526C184.234 283.436 184.113 283.32 184.018 283.183C181.207 279.132 160.848 247.477 190.167 220.084C217.998 194.075 230.404 188.949 232.536 173.212C232.784 171.375 235.291 171.012 236.058 172.7C241.785 185.318 250.411 214.612 218.202 232.628C182.675 252.5 184.793 275.599 186.27 282.19C186.315 282.392 186.31 282.6 186.256 282.799C186.201 282.997 186.099 283.179 185.957 283.329C185.816 283.479 185.64 283.591 185.444 283.656C185.249 283.721 185.041 283.738 184.838 283.702H184.839Z" fill="#91B3FA"/>
<path d="M189.143 284.429C188.759 284.365 188.406 284.178 188.137 283.896C187.867 283.614 187.697 283.253 187.65 282.867C186.989 277.455 185.592 257.268 200.584 252.406C217.091 247.053 229.78 262.674 242.156 251.162C242.808 250.557 243.851 251.135 243.678 252.006C242.41 258.186 237.195 272.427 215.943 274.647C193.198 277.023 190.567 279.54 190.921 282.776C190.944 283.01 190.913 283.245 190.831 283.464C190.748 283.684 190.616 283.881 190.445 284.041C190.273 284.2 190.067 284.319 189.842 284.385C189.617 284.453 189.381 284.467 189.15 284.427L189.143 284.429Z" fill="#91B3FA"/>
</g>
<path d="M56.5566 140.652L58.6274 171.894C58.9655 176.995 63.191 180.965 68.3036 180.986C73.9327 181.01 78.4125 176.269 78.0669 170.652C77.8842 167.678 77.718 165.243 77.718 165.243C77.718 165.243 85.2855 164.099 85.4113 156.54C85.5234 149.795 83.7672 129.822 83.3877 125.594L69.7476 125.538C61.8788 125.965 55.9134 132.8 56.5566 140.652Z" fill="#FFBD9C"/>
<path d="M77.7357 165.136C77.7357 165.136 72.9553 165.504 67.8903 162.294C67.8903 162.294 70.1969 167.744 77.7447 167.095L77.7357 165.136Z" fill="#EB996E"/>
<path d="M82.5153 143.068C82.5332 143.638 82.065 144.124 81.4696 144.153C80.8757 144.182 80.3786 143.745 80.3608 143.175C80.343 142.605 80.8113 142.119 81.4053 142.089C82.0006 142.06 82.4977 142.498 82.5153 143.068Z" fill="#263138"/>
<path d="M82.8267 142.244C82.6919 142.384 81.8768 141.776 80.7147 141.774C79.5542 141.755 78.6992 142.349 78.5736 142.207C78.512 142.143 78.6495 141.89 79.0217 141.621C79.3882 141.353 80.0127 141.094 80.7365 141.1C81.4603 141.108 82.0681 141.376 82.4168 141.65C82.7727 141.926 82.8928 142.181 82.8267 142.244Z" fill="#263138"/>
<path d="M71.4637 143.424C71.4813 143.994 71.0132 144.479 70.4179 144.509C69.8239 144.538 69.3268 144.101 69.3091 143.531C69.2915 142.96 69.7597 142.475 70.354 142.445C70.9491 142.415 71.4461 142.854 71.4637 143.424Z" fill="#263138"/>
<path d="M71.4054 142.413C71.2708 142.553 70.4541 141.944 69.2933 141.943C68.1329 141.924 67.2776 142.518 67.152 142.375C67.0906 142.312 67.2265 142.059 67.6007 141.79C67.9672 141.522 68.5914 141.263 69.315 141.269C70.0389 141.276 70.6462 141.545 70.9953 141.819C71.3505 142.095 71.471 142.35 71.4054 142.413Z" fill="#263138"/>
<path d="M75.5854 151.047C75.5801 150.981 76.3027 150.859 77.4736 150.714C77.7705 150.685 78.0515 150.627 78.1025 150.425C78.1733 150.211 78.0505 149.89 77.9083 149.545C77.6322 148.826 77.3434 148.072 77.0404 147.282C75.8355 144.06 74.9648 141.412 75.0948 141.365C75.2251 141.317 76.3071 143.89 77.5119 147.111C77.8019 147.906 78.0794 148.663 78.3429 149.388C78.4535 149.725 78.6454 150.108 78.492 150.553C78.411 150.774 78.1928 150.934 78.0021 150.984C77.8117 151.042 77.6449 151.044 77.498 151.052C76.32 151.111 75.5894 151.113 75.5854 151.047Z" fill="#263138"/>
<path d="M72.1627 151.837C72.3519 151.826 72.3489 153.087 73.4244 153.987C74.4981 154.889 75.8433 154.753 75.8523 154.93C75.8696 155.009 75.5521 155.173 74.9843 155.186C74.4277 155.203 73.6157 155.021 72.9575 154.471C72.3012 153.919 72.0214 153.186 71.9803 152.668C71.9345 152.141 72.0765 151.829 72.1627 151.837Z" fill="#263138"/>
<path d="M71.7242 137.861C71.6082 138.176 70.4489 138.022 69.0853 138.18C67.7181 138.311 66.6172 138.706 66.4376 138.422C66.3575 138.286 66.5504 137.99 66.9962 137.685C67.438 137.382 68.1421 137.095 68.9607 137.007C69.7794 136.921 70.5281 137.054 71.0237 137.258C71.5234 137.462 71.7742 137.711 71.7242 137.861Z" fill="#263138"/>
<path d="M82.4136 138.88C82.2081 139.143 81.4089 138.866 80.4463 138.849C79.4847 138.798 78.6683 139.018 78.4818 138.742C78.4001 138.607 78.5296 138.344 78.8867 138.095C79.2386 137.848 79.8266 137.647 80.4878 137.67C81.1488 137.693 81.721 137.935 82.0548 138.207C82.3938 138.479 82.5043 138.751 82.4136 138.88Z" fill="#263138"/>
<path d="M59.0861 146.336C58.9573 146.279 53.8978 144.777 54.0411 149.947C54.1845 155.117 59.3448 153.906 59.3498 153.758C59.3544 153.609 59.0861 146.336 59.0861 146.336Z" fill="#FFBD9C"/>
<path d="M57.7163 151.843C57.6932 151.827 57.628 151.909 57.4777 151.983C57.3312 152.055 57.0774 152.109 56.8049 152.015C56.2533 151.83 55.7694 150.975 55.7185 150.045C55.6922 149.574 55.7782 149.124 55.9348 148.748C56.082 148.365 56.3193 148.095 56.5928 148.038C56.8649 147.967 57.0642 148.126 57.1313 148.27C57.2047 148.413 57.1748 148.517 57.2022 148.525C57.2171 148.538 57.3108 148.435 57.2633 148.223C57.2391 148.121 57.175 148.001 57.051 147.905C56.9242 147.807 56.7402 147.761 56.5492 147.787C56.1512 147.826 55.8028 148.202 55.6308 148.615C55.4368 149.029 55.3292 149.536 55.3584 150.064C55.4203 151.105 55.9807 152.065 56.7341 152.26C57.1004 152.345 57.4007 152.227 57.5541 152.1C57.7104 151.968 57.7345 151.852 57.7163 151.843Z" fill="#EB996E"/>
<path d="M56.2078 146.149C56.9971 145.961 58.3578 146.694 58.6906 147.434C59.0239 148.173 59.0943 149.01 59.4259 149.75C59.7579 150.49 60.5128 151.161 61.3031 150.977C61.8479 150.851 62.2395 150.342 62.3853 149.802C62.5313 149.262 62.4755 148.691 62.4079 148.136C62.1135 145.721 61.6165 143.325 61.5296 140.894C61.4429 138.462 61.8 135.938 63.0857 133.872C64.3711 131.806 66.7225 130.293 69.1471 130.499C70.7531 130.635 72.2229 131.479 73.8179 131.709C75.7093 131.982 77.7129 131.322 79.0723 129.979C79.2464 129.807 80.0558 129.279 80.0558 129.279C80.0562 129.154 79.9427 128.074 79.5186 127.679C76.3649 124.738 70.6626 123.897 66.4757 124.931C62.2889 125.967 58.3555 128.903 56.5394 132.814C54.7229 136.726 55.2334 142.179 56.2078 146.149Z" fill="#263138"/>
<path d="M56.3624 145.705C56.0915 143.171 54.8377 140.855 54.1976 138.388C53.5578 135.921 53.7084 132.921 55.6863 131.314C56.3622 130.765 57.1985 130.427 57.8285 129.825C58.4612 129.22 58.8327 128.401 59.3045 127.663C60.7626 125.384 63.3178 123.843 66.0144 123.617C67.8792 123.46 69.7512 123.898 71.6189 123.787C74.5774 123.612 77.3788 122.075 80.3389 122.218C81.3213 122.266 82.3686 122.548 82.9795 123.319C83.5902 124.09 83.4947 125.438 82.6052 125.858C83.0707 125.104 84.3091 125.134 84.8941 125.8C85.4793 126.466 85.4602 127.513 85.0452 128.296C84.63 129.08 83.8942 129.643 83.1317 130.096C80.6192 131.589 77.5608 132.14 74.6848 131.617L69.1155 128.554L62.7954 129.92L56.7691 133.909L59.3867 145.036L56.3624 145.705Z" fill="#263138"/>
</g>
<defs>
<clipPath id="clip0_707_2584">
<rect width="270" height="320" fill="white"/>
</clipPath>
</defs>
</svg>
